<?xml version="1.0" standalone="no"?><!DOCTYPE svg PUBLIC "-//W3C//DTD SVG 1.1//EN" "http://www.w3.org/Graphics/SVG/1.1/DTD/svg11.dtd"><svg class="icon" width="200px" height="200.00px" viewBox="0 0 1024 1024" version="1.1" xmlns="http://www.w3.org/2000/svg"><path d="M740.571429 274.285714c0 5.028571-4.114286 9.142857-9.142858 9.142857h-64c-5.028571 0-9.142857-4.114286-9.142857-9.142857v-54.857143H365.714286v54.857143c0 5.028571-4.114286 9.142857-9.142857 9.142857h-64c-5.028571 0-9.142857-4.114286-9.142858-9.142857v-54.857143H137.142857v667.428572h749.714286V219.428571H740.571429v54.857143z m-74.971429 139.2l-102.057143 187.542857h56.114286c5.028571 0 9.142857 4.114286 9.142857 9.142858v24.342857c0 5.028571-4.114286 9.142857-9.142857 9.142857h-74.742857v38.514286h74.742857c5.028571 0 9.142857 4.114286 9.142857 9.142857v24.342857c0 5.028571-4.114286 9.142857-9.142857 9.142857h-74.742857V786.285714c0 5.028571-4.114286 9.142857-9.142857 9.142857h-47.2c-5.028571 0-9.142857-4.114286-9.142858-9.142857v-61.485714h-74.4c-5.028571 0-9.142857-4.114286-9.142857-9.142857v-24.342857c0-5.028571 4.114286-9.142857 9.142857-9.142857h74.4v-38.514286h-74.4c-5.028571 0-9.142857-4.114286-9.142857-9.142857v-24.342857c0-5.028571 4.114286-9.142857 9.142857-9.142858H460.571429l-102.057143-187.428571c-2.4-4.457143-0.8-10.057143 3.657143-12.457143 1.257143-0.8 2.857143-1.142857 4.342857-1.142857h52.571428a9.142857 9.142857 0 0 1 8.114286 5.028571l83.885714 166.171429h3.2l83.885715-166.171429c1.485714-3.085714 4.685714-5.028571 8.114285-5.028571h51.428572c5.142857 0 9.142857 4.114286 9.028571 9.142857 0 1.485714-0.457143 2.971429-1.142857 4.342857z" fill="#D9D9D9" /><path d="M657.714286 400h-51.428572c-3.428571 0-6.628571 1.942857-8.114285 5.028571L514.285714 571.2h-3.2l-83.885714-166.171429a9.142857 9.142857 0 0 0-8.114286-5.028571h-52.571428c-1.485714 0-3.085714 0.342857-4.342857 1.142857-4.457143 2.4-6.057143 8-3.657143 12.457143l102.057143 187.428571h-55.542858c-5.028571 0-9.142857 4.114286-9.142857 9.142858v24.342857c0 5.028571 4.114286 9.142857 9.142857 9.142857h74.4v38.514286h-74.4c-5.028571 0-9.142857 4.114286-9.142857 9.142857v24.342857c0 5.028571 4.114286 9.142857 9.142857 9.142857h74.4V786.285714c0 5.028571 4.114286 9.142857 9.142858 9.142857h47.2c5.028571 0 9.142857-4.114286 9.142857-9.142857v-61.485714h74.742857c5.028571 0 9.142857-4.114286 9.142857-9.142857v-24.342857c0-5.028571-4.114286-9.142857-9.142857-9.142857h-74.742857v-38.514286h74.742857c5.028571 0 9.142857-4.114286 9.142857-9.142857v-24.342857c0-5.028571-4.114286-9.142857-9.142857-9.142858h-56.114286l102.057143-187.542857c0.685714-1.371429 1.142857-2.857143 1.142857-4.342857 0.114286-5.028571-3.885714-9.142857-9.028571-9.142857z"  /><path d="M932.571429 137.142857H740.571429v-73.142857c0-5.028571-4.114286-9.142857-9.142858-9.142857h-64c-5.028571 0-9.142857 4.114286-9.142857 9.142857v73.142857H365.714286v-73.142857c0-5.028571-4.114286-9.142857-9.142857-9.142857h-64c-5.028571 0-9.142857 4.114286-9.142858 9.142857v73.142857H91.428571c-20.228571 0-36.571429 16.342857-36.571428 36.571429v758.857143c0 20.228571 16.342857 36.571429 36.571428 36.571428h841.142858c20.228571 0 36.571429-16.342857 36.571428-36.571428V173.714286c0-20.228571-16.342857-36.571429-36.571428-36.571429z m-45.714286 749.714286H137.142857V219.428571h146.285714v54.857143c0 5.028571 4.114286 9.142857 9.142858 9.142857h64c5.028571 0 9.142857-4.114286 9.142857-9.142857v-54.857143h292.571428v54.857143c0 5.028571 4.114286 9.142857 9.142857 9.142857h64c5.028571 0 9.142857-4.114286 9.142858-9.142857v-54.857143h146.285714v667.428572z"  /></svg>