<?xml version="1.0" standalone="no"?><!DOCTYPE svg PUBLIC "-//W3C//DTD SVG 1.1//EN" "http://www.w3.org/Graphics/SVG/1.1/DTD/svg11.dtd"><svg class="icon" width="200px" height="200.00px" viewBox="0 0 1024 1024" version="1.1" xmlns="http://www.w3.org/2000/svg"><path d="M914.285714 91.428571H566.857143c-10.057143 0-18.285714 8.228571-18.285714 18.285715v347.428571c0 10.057143 8.228571 18.285714 18.285714 18.285714h347.428571c10.057143 0 18.285714-8.228571 18.285715-18.285714V109.714286c0-10.057143-8.228571-18.285714-18.285715-18.285715z m-59.428571 306.285715H626.285714V169.142857h228.571429v228.571429zM457.142857 548.571429H109.714286c-10.057143 0-18.285714 8.228571-18.285715 18.285714v347.428571c0 10.057143 8.228571 18.285714 18.285715 18.285715h347.428571c10.057143 0 18.285714-8.228571 18.285714-18.285715V566.857143c0-10.057143-8.228571-18.285714-18.285714-18.285714z m-59.428571 306.285714H169.142857V626.285714h228.571429v228.571429z m59.428571-763.428572H109.714286c-10.057143 0-18.285714 8.228571-18.285715 18.285715v347.428571c0 10.057143 8.228571 18.285714 18.285715 18.285714h347.428571c10.057143 0 18.285714-8.228571 18.285714-18.285714V109.714286c0-10.057143-8.228571-18.285714-18.285714-18.285715z m-59.428571 306.285715H169.142857V169.142857h228.571429v228.571429z m516.571428 150.857143H566.857143c-10.057143 0-18.285714 8.228571-18.285714 18.285714v347.428571c0 10.057143 8.228571 18.285714 18.285714 18.285715h347.428571c10.057143 0 18.285714-8.228571 18.285715-18.285715V566.857143c0-10.057143-8.228571-18.285714-18.285715-18.285714z m-59.428571 306.285714H626.285714V626.285714h228.571429v228.571429z" fill="#333333" /><path d="M169.142857 169.142857h228.571429v228.571429H169.142857z m457.142857 0h228.571429v228.571429H626.285714zM169.142857 626.285714h228.571429v228.571429H169.142857z m457.142857 0h228.571429v228.571429H626.285714z" fill="#E6E6E6" /></svg>