<?xml version="1.0" standalone="no"?><!DOCTYPE svg PUBLIC "-//W3C//DTD SVG 1.1//EN" "http://www.w3.org/Graphics/SVG/1.1/DTD/svg11.dtd"><svg class="icon" width="200px" height="200.00px" viewBox="0 0 1024 1024" version="1.1" xmlns="http://www.w3.org/2000/svg"><path d="M202.171429 377.028571h619.657142L512 151.657143z" fill="#D9D9D9" /><path d="M948.571429 454.857143c35.314286 0 50.057143-45.371429 21.371428-66.285714L533.485714 71.085714a36.354286 36.354286 0 0 0-42.971428 0L54.057143 388.571429c-28.685714 20.8-13.942857 66.285714 21.485714 66.285714H146.285714v427.428571h-82.285714c-5.028571 0-9.142857 4.114286-9.142857 9.142857v59.428572c0 5.028571 4.114286 9.142857 9.142857 9.142857h896c5.028571 0 9.142857-4.114286 9.142857-9.142857v-59.428572c0-5.028571-4.114286-9.142857-9.142857-9.142857h-82.285714V454.857143h70.857143zM362.285714 882.285714H228.571429V454.857143h133.714285v427.428571z m216 0H444.571429V454.857143h133.714285v427.428571z m217.142857 0H660.571429V454.857143h134.857142v427.428571zM202.171429 377.028571L512 151.657143l309.828571 225.371428H202.171429z"  /></svg>