<?xml version="1.0" standalone="no"?><!DOCTYPE svg PUBLIC "-//W3C//DTD SVG 1.1//EN" "http://www.w3.org/Graphics/SVG/1.1/DTD/svg11.dtd"><svg class="icon" width="200px" height="200.00px" viewBox="0 0 1024 1024" version="1.1" xmlns="http://www.w3.org/2000/svg"><path d="M512 178.285714c-63.542857 0-123.2 24.685714-168.114286 69.6S274.285714 352.457143 274.285714 416v388.571429h475.428572V416c0-63.542857-24.685714-123.2-69.6-168.114286S575.542857 178.285714 512 178.285714z m320 237.714286c0-161.257143-119.2-294.628571-274.285714-316.8v0.114286c155.085714 22.171429 274.285714 155.428571 274.285714 316.685714zM466.285714 99.314286v-0.114286C311.2 121.371429 192 254.742857 192 416c0-161.257143 119.2-294.514286 274.285714-316.685714z" fill="#D9D9D9" /><path d="M859.428571 804.571429h-27.428571V416c0-161.257143-119.2-294.514286-274.285714-316.685714V54.857143c0-25.257143-20.457143-45.714286-45.714286-45.714286s-45.714286 20.457143-45.714286 45.714286v44.457143c-155.085714 22.171429-274.285714 155.428571-274.285714 316.685714v388.571429h-27.428571c-20.228571 0-36.571429 16.342857-36.571429 36.571428v36.571429c0 5.028571 4.114286 9.142857 9.142857 9.142857h246.857143c0 70.628571 57.371429 128 128 128s128-57.371429 128-128h246.857143c5.028571 0 9.142857-4.114286 9.142857-9.142857v-36.571429c0-20.228571-16.342857-36.571429-36.571429-36.571428zM512 941.714286c-30.285714 0-54.857143-24.571429-54.857143-54.857143h109.714286c0 30.285714-24.571429 54.857143-54.857143 54.857143z m237.714286-137.142857H274.285714V416c0-63.542857 24.685714-123.2 69.6-168.114286S448.457143 178.285714 512 178.285714c63.542857 0 123.2 24.685714 168.114286 69.6S749.714286 352.457143 749.714286 416v388.571429z"  /></svg>