<?xml version="1.0" standalone="no"?><!DOCTYPE svg PUBLIC "-//W3C//DTD SVG 1.1//EN" "http://www.w3.org/Graphics/SVG/1.1/DTD/svg11.dtd"><svg class="icon" width="200px" height="200.00px" viewBox="0 0 1024 1024" version="1.1" xmlns="http://www.w3.org/2000/svg"><path d="M265.142857 347.428571h100.571429v329.142858h-100.571429z m173.714286 0h320v329.142858H438.857143z" fill="#D9D9D9" /><path d="M1014.857143 182.857143h-59.428572c-5.028571 0-9.142857 4.114286-9.142857 9.142857v283.428571h-105.142857V274.285714c0-5.028571-4.114286-9.142857-9.142857-9.142857H192c-5.028571 0-9.142857 4.114286-9.142857 9.142857v201.142857h-105.142857V192c0-5.028571-4.114286-9.142857-9.142857-9.142857H9.142857c-5.028571 0-9.142857 4.114286-9.142857 9.142857v640c0 5.028571 4.114286 9.142857 9.142857 9.142857h59.428572c5.028571 0 9.142857-4.114286 9.142857-9.142857V553.142857h105.142857v196.571429c0 5.028571 4.114286 9.142857 9.142857 9.142857h640c5.028571 0 9.142857-4.114286 9.142857-9.142857V553.142857h105.142857v278.857143c0 5.028571 4.114286 9.142857 9.142857 9.142857h59.428572c5.028571 0 9.142857-4.114286 9.142857-9.142857V192c0-5.028571-4.114286-9.142857-9.142857-9.142857zM365.714286 676.571429h-100.571429V347.428571h100.571429v329.142858z m393.142857 0H438.857143V347.428571h320v329.142858z"  /></svg>