<?xml version="1.0" standalone="no"?><!DOCTYPE svg PUBLIC "-//W3C//DTD SVG 1.1//EN" "http://www.w3.org/Graphics/SVG/1.1/DTD/svg11.dtd"><svg class="icon" width="200px" height="200.00px" viewBox="0 0 1024 1024" version="1.1" xmlns="http://www.w3.org/2000/svg"><path d="M91.428571 550.857143h228.571429v228.571428H91.428571z m306.285715-306.285714h228.571428v228.571428H397.714286z" fill="#D9D9D9" /><path d="M973.714286 166.857143H356.571429c-20.228571 0-36.571429 16.342857-36.571429 36.571428v269.714286H50.285714c-20.228571 0-36.571429 16.342857-36.571428 36.571429v310.857143c0 20.228571 16.342857 36.571429 36.571428 36.571428h617.142857c20.228571 0 36.571429-16.342857 36.571429-36.571428V550.857143h269.714286c20.228571 0 36.571429-16.342857 36.571428-36.571429V203.428571c0-20.228571-16.342857-36.571429-36.571428-36.571428zM320 779.428571H91.428571V550.857143h228.571429v228.571428z m306.285714 0H397.714286V550.857143h228.571428v228.571428z m0-306.285714H397.714286V244.571429h228.571428v228.571428z m306.285715 0H704V244.571429h228.571429v228.571428z"  /></svg>