<?xml version="1.0" standalone="no"?><!DOCTYPE svg PUBLIC "-//W3C//DTD SVG 1.1//EN" "http://www.w3.org/Graphics/SVG/1.1/DTD/svg11.dtd"><svg class="icon" width="200px" height="200.00px" viewBox="0 0 1024 1024" version="1.1" xmlns="http://www.w3.org/2000/svg"><path d="M914.285714 292.571429H700.8l-19.542857-54.628572-26.171429-73.371428H368.8l-26.171429 73.371428-19.542857 54.628572H109.714286c-5.028571 0-9.142857 4.114286-9.142857 9.142857v521.142857c0 5.028571 4.114286 9.142857 9.142857 9.142857h804.571428c5.028571 0 9.142857-4.114286 9.142857-9.142857V301.714286c0-5.028571-4.114286-9.142857-9.142857-9.142857zM512 731.428571c-101.028571 0-182.857143-81.828571-182.857143-182.857142s81.828571-182.857143 182.857143-182.857143 182.857143 81.828571 182.857143 182.857143-81.828571 182.857143-182.857143 182.857142z" fill="#D9D9D9" /><path d="M512 365.714286c-101.028571 0-182.857143 81.828571-182.857143 182.857143s81.828571 182.857143 182.857143 182.857142 182.857143-81.828571 182.857143-182.857142-81.828571-182.857143-182.857143-182.857143z m0 292.571428c-60.571429 0-109.714286-49.142857-109.714286-109.714285s49.142857-109.714286 109.714286-109.714286 109.714286 49.142857 109.714286 109.714286-49.142857 109.714286-109.714286 109.714285z"  /><path d="M914.285714 210.285714H758.857143l-37.028572-103.771428a36.651429 36.651429 0 0 0-34.514285-24.228572H336.685714c-15.428571 0-29.257143 9.714286-34.4 24.228572L265.142857 210.285714H109.714286c-50.514286 0-91.428571 40.914286-91.428572 91.428572v521.142857c0 50.514286 40.914286 91.428571 91.428572 91.428571h804.571428c50.514286 0 91.428571-40.914286 91.428572-91.428571V301.714286c0-50.514286-40.914286-91.428571-91.428572-91.428572z m9.142857 612.571429c0 5.028571-4.114286 9.142857-9.142857 9.142857H109.714286c-5.028571 0-9.142857-4.114286-9.142857-9.142857V301.714286c0-5.028571 4.114286-9.142857 9.142857-9.142857h213.371428l19.542857-54.628572 26.171429-73.371428h286.285714l26.171429 73.371428 19.542857 54.628572H914.285714c5.028571 0 9.142857 4.114286 9.142857 9.142857v521.142857z"  /></svg>