<?xml version="1.0" standalone="no"?><!DOCTYPE svg PUBLIC "-//W3C//DTD SVG 1.1//EN" "http://www.w3.org/Graphics/SVG/1.1/DTD/svg11.dtd"><svg class="icon" width="200px" height="200.00px" viewBox="0 0 1024 1024" version="1.1" xmlns="http://www.w3.org/2000/svg"><path d="M740.571429 274.285714c0 5.028571-4.114286 9.142857-9.142858 9.142857h-64c-5.028571 0-9.142857-4.114286-9.142857-9.142857v-54.857143H365.714286v54.857143c0 5.028571-4.114286 9.142857-9.142857 9.142857h-64c-5.028571 0-9.142857-4.114286-9.142858-9.142857v-54.857143H137.142857v155.428572h749.714286V219.428571H740.571429v54.857143z" fill="#D9D9D9" /><path d="M932.571429 137.142857H740.571429v-73.142857c0-5.028571-4.114286-9.142857-9.142858-9.142857h-64c-5.028571 0-9.142857 4.114286-9.142857 9.142857v73.142857H365.714286v-73.142857c0-5.028571-4.114286-9.142857-9.142857-9.142857h-64c-5.028571 0-9.142857 4.114286-9.142858 9.142857v73.142857H91.428571c-20.228571 0-36.571429 16.342857-36.571428 36.571429v758.857143c0 20.228571 16.342857 36.571429 36.571428 36.571428h841.142858c20.228571 0 36.571429-16.342857 36.571428-36.571428V173.714286c0-20.228571-16.342857-36.571429-36.571428-36.571429z m-45.714286 749.714286H137.142857V452.571429h749.714286v434.285714z m0-512H137.142857V219.428571h146.285714v54.857143c0 5.028571 4.114286 9.142857 9.142858 9.142857h64c5.028571 0 9.142857-4.114286 9.142857-9.142857v-54.857143h292.571428v54.857143c0 5.028571 4.114286 9.142857 9.142857 9.142857h64c5.028571 0 9.142857-4.114286 9.142858-9.142857v-54.857143h146.285714v155.428572z"  /></svg>