<?xml version="1.0" standalone="no"?><!DOCTYPE svg PUBLIC "-//W3C//DTD SVG 1.1//EN" "http://www.w3.org/Graphics/SVG/1.1/DTD/svg11.dtd"><svg class="icon" width="200px" height="200.00px" viewBox="0 0 1024 1024" version="1.1" xmlns="http://www.w3.org/2000/svg"><path d="M155.051989 468.571429L137.223417 517.714286v270.857143h749.714286V517.714286l-17.828572-49.142857H155.051989zM228.651989 636.571429c-25.257143 0-45.714286-20.457143-45.714286-45.714286s20.457143-45.714286 45.714286-45.714286 45.714286 20.457143 45.714285 45.714286-20.457143 45.714286-45.714285 45.714286z m443.428571 85.714285c0 5.028571-4.114286 9.142857-9.142857 9.142857H361.223417c-5.028571 0-9.142857-4.114286-9.142857-9.142857v-96c0-5.028571 4.114286-9.142857 9.142857-9.142857h45.714286c5.028571 0 9.142857 4.114286 9.142857 9.142857v41.142857h192v-41.142857c0-5.028571 4.114286-9.142857 9.142857-9.142857h45.714286c5.028571 0 9.142857 4.114286 9.142857 9.142857v96z m123.428571-85.714285c-25.257143 0-45.714286-20.457143-45.714285-45.714286s20.457143-45.714286 45.714285-45.714286 45.714286 20.457143 45.714286 45.714286-20.457143 45.714286-45.714286 45.714286z" fill="#D9D9D9" /><path d="M749.794846 590.857143a45.714286 45.714286 0 1 0 91.428571 0 45.714286 45.714286 0 1 0-91.428571 0z"  /><path d="M1022.937703 399.314286L995.851989 352a9.142857 9.142857 0 0 0-12.457143-3.314286l-57.942857 33.828572-89.485715-247.085715a73.028571 73.028571 0 0 0-69.6-50.742857H271.166274c-39.657143 0-74.857143 25.6-87.085714 63.428572l-85.257143 234.514285-58.057143-33.828571a9.142857 9.142857 0 0 0-12.457143 3.314286L1.223417 399.314286c-2.514286 4.342857-1.028571 9.828571 3.314286 12.342857l69.028571 40.228571-16.571428 45.714286c-1.371429 3.657143-2.057143 7.542857-2.057143 11.428571v397.942858c0 17.942857 13.485714 32.457143 30.057143 32.457142h77.257143c14.057143 0 26.285714-10.628571 29.257142-25.485714l8.8-43.085714h623.542858l8.8 43.085714c3.085714 14.857143 15.2 25.485714 29.257142 25.485714h77.257143c16.571429 0 30.057143-14.514286 30.057143-32.457142V509.028571c0-3.885714-0.685714-7.771429-2.057143-11.428571l-16.571428-45.714286 68.914285-40.228571a9.142857 9.142857 0 0 0 3.428572-12.342857zM261.451989 176.114286l0.571428-1.485715 0.457143-1.485714c1.257143-3.771429 4.685714-6.285714 8.685714-6.285714h488.685715l86.171428 237.714286H178.366274l83.085715-228.457143zM886.937703 788.571429H137.223417V517.714286l17.828572-49.142857h714.057142l17.828572 49.142857v270.857143z"  /><path d="M182.937703 590.857143a45.714286 45.714286 0 1 0 91.428571 0 45.714286 45.714286 0 1 0-91.428571 0z m480 26.285714h-45.714286c-5.028571 0-9.142857 4.114286-9.142857 9.142857v41.142857H416.08056v-41.142857c0-5.028571-4.114286-9.142857-9.142857-9.142857h-45.714286c-5.028571 0-9.142857 4.114286-9.142857 9.142857v96c0 5.028571 4.114286 9.142857 9.142857 9.142857h301.714286c5.028571 0 9.142857-4.114286 9.142857-9.142857v-96c0-5.028571-4.114286-9.142857-9.142857-9.142857z"  /></svg>