<?xml version="1.0" standalone="no"?><!DOCTYPE svg PUBLIC "-//W3C//DTD SVG 1.1//EN" "http://www.w3.org/Graphics/SVG/1.1/DTD/svg11.dtd"><svg class="icon" width="200px" height="200.00px" viewBox="0 0 1024 1024" version="1.1" xmlns="http://www.w3.org/2000/svg"><path d="M932.571429 137.142857H740.571429v-73.142857c0-5.028571-4.114286-9.142857-9.142858-9.142857h-64c-5.028571 0-9.142857 4.114286-9.142857 9.142857v73.142857H365.714286v-73.142857c0-5.028571-4.114286-9.142857-9.142857-9.142857h-64c-5.028571 0-9.142857 4.114286-9.142858 9.142857v73.142857H91.428571c-20.228571 0-36.571429 16.342857-36.571428 36.571429v758.857143c0 20.228571 16.342857 36.571429 36.571428 36.571428h841.142858c20.228571 0 36.571429-16.342857 36.571428-36.571428V173.714286c0-20.228571-16.342857-36.571429-36.571428-36.571429z m-45.714286 749.714286H137.142857V219.428571h146.285714v54.857143c0 5.028571 4.114286 9.142857 9.142858 9.142857h64c5.028571 0 9.142857-4.114286 9.142857-9.142857v-54.857143h292.571428v54.857143c0 5.028571 4.114286 9.142857 9.142857 9.142857h64c5.028571 0 9.142857-4.114286 9.142858-9.142857v-54.857143h146.285714v667.428572z" fill="#333333" /><path d="M740.571429 274.285714c0 5.028571-4.114286 9.142857-9.142858 9.142857h-64c-5.028571 0-9.142857-4.114286-9.142857-9.142857v-54.857143H365.714286v54.857143c0 5.028571-4.114286 9.142857-9.142857 9.142857h-64c-5.028571 0-9.142857-4.114286-9.142858-9.142857v-54.857143H137.142857v667.428572h749.714286V219.428571H740.571429v54.857143z m-20 147.2L477.6 756a18.4 18.4 0 0 1-29.714286 0l-144.457143-198.857143c-4.342857-6.057143 0-14.514286 7.428572-14.514286h63.085714c5.942857 0 11.428571 2.857143 14.857143 7.542858l73.942857 101.714285 172.457143-237.485714c3.428571-4.685714 9.028571-7.542857 14.857143-7.542857H713.142857c7.428571 0 11.771429 8.457143 7.428572 14.628571z" fill="#E6E6E6" /><path d="M713.142857 406.857143h-63.085714c-5.828571 0-11.428571 2.857143-14.857143 7.542857L462.742857 651.885714l-73.942857-101.714285c-3.428571-4.685714-8.914286-7.542857-14.857143-7.542858H310.857143c-7.428571 0-11.771429 8.457143-7.428572 14.514286l144.457143 198.857143a18.4 18.4 0 0 0 29.714286 0l242.971429-334.514286c4.342857-6.171429 0-14.628571-7.428572-14.628571z" fill="#333333" /></svg>