<?xml version="1.0" standalone="no"?><!DOCTYPE svg PUBLIC "-//W3C//DTD SVG 1.1//EN" "http://www.w3.org/Graphics/SVG/1.1/DTD/svg11.dtd"><svg class="icon" width="200px" height="200.00px" viewBox="0 0 1024 1024" version="1.1" xmlns="http://www.w3.org/2000/svg"><path d="M932.571429 54.857143H91.428571c-20.228571 0-36.571429 16.342857-36.571428 36.571428v841.142858c0 20.228571 16.342857 36.571429 36.571428 36.571428h841.142858c20.228571 0 36.571429-16.342857 36.571428-36.571428V91.428571c0-20.228571-16.342857-36.571429-36.571428-36.571428z m-45.714286 832H137.142857V137.142857h749.714286v749.714286z" fill="#333333" /><path d="M137.142857 886.857143h749.714286V137.142857H137.142857v749.714286z m148.571429-420.342857h53.6c11.657143 0 22.742857 5.6 29.6 15.2l81.371428 112.914285 179.657143-249.142857c6.857143-9.485714 17.828571-15.2 29.6-15.2H713.142857c7.428571 0 11.771429 8.457143 7.428572 14.514286l-240.685715 333.714286a36.342857 36.342857 0 0 1-59.085714 0L278.285714 481.028571c-4.342857-6.057143 0-14.514286 7.428572-14.514285z" fill="#E6E6E6" /><path d="M420.8 678.514286a36.342857 36.342857 0 0 0 59.085714 0l240.685715-333.714286c4.342857-6.057143 0-14.514286-7.428572-14.514286h-53.6c-11.771429 0-22.742857 5.714286-29.6 15.2L450.285714 594.628571l-81.371428-112.914285c-6.857143-9.6-17.942857-15.2-29.6-15.2H285.714286c-7.428571 0-11.771429 8.457143-7.428572 14.514285l142.514286 197.485715z" fill="#333333" /></svg>