<?xml version="1.0" standalone="no"?><!DOCTYPE svg PUBLIC "-//W3C//DTD SVG 1.1//EN" "http://www.w3.org/Graphics/SVG/1.1/DTD/svg11.dtd"><svg class="icon" width="200px" height="200.00px" viewBox="0 0 1024 1024" version="1.1" xmlns="http://www.w3.org/2000/svg"><path d="M512 0C229.257143 0 0 229.257143 0 512s229.257143 512 512 512 512-229.257143 512-512S794.742857 0 512 0z m0 937.142857c-234.742857 0-425.142857-190.4-425.142857-425.142857s190.4-425.142857 425.142857-425.142857 425.142857 190.4 425.142857 425.142857-190.4 425.142857-425.142857 425.142857z" fill="#333333" /><path d="M512 86.857143c-234.742857 0-425.142857 190.4-425.142857 425.142857s190.4 425.142857 425.142857 425.142857 425.142857-190.4 425.142857-425.142857-190.4-425.142857-425.142857-425.142857z m221.028571 257.942857l-240.685714 333.714286a36.342857 36.342857 0 0 1-59.085714 0L290.857143 481.028571c-4.342857-6.057143 0-14.514286 7.428571-14.514285h53.6c11.771429 0 22.742857 5.714286 29.6 15.2l81.371429 112.914285 179.657143-249.142857c6.857143-9.6 17.942857-15.2 29.6-15.2H725.714286c7.428571 0 11.771429 8.457143 7.314285 14.514286z" fill="#E6E6E6" /><path d="M725.714286 330.285714h-53.6c-11.657143 0-22.742857 5.6-29.6 15.2L462.857143 594.628571l-81.371429-112.914285c-6.857143-9.485714-17.828571-15.2-29.6-15.2H298.285714c-7.428571 0-11.771429 8.457143-7.428571 14.514285l142.4 197.485715a36.342857 36.342857 0 0 0 59.085714 0l240.685714-333.714286c4.457143-6.057143 0.114286-14.514286-7.314285-14.514286z" fill="#333333" /></svg>