<?xml version="1.0" standalone="no"?><!DOCTYPE svg PUBLIC "-//W3C//DTD SVG 1.1//EN" "http://www.w3.org/Graphics/SVG/1.1/DTD/svg11.dtd"><svg class="icon" width="200px" height="200.00px" viewBox="0 0 1024 1024" version="1.1" xmlns="http://www.w3.org/2000/svg"><path d="M512 0C229.257143 0 0 229.257143 0 512s229.257143 512 512 512 512-229.257143 512-512S794.742857 0 512 0z m0 937.142857c-234.742857 0-425.142857-190.4-425.142857-425.142857s190.4-425.142857 425.142857-425.142857 425.142857 190.4 425.142857 425.142857-190.4 425.142857-425.142857 425.142857z" fill="#333333" /><path d="M512 86.857143c-234.742857 0-425.142857 190.4-425.142857 425.142857s190.4 425.142857 425.142857 425.142857 425.142857-190.4 425.142857-425.142857-190.4-425.142857-425.142857-425.142857z m201.714286 582.514286l-32.685715 44.571428a9.131429 9.131429 0 0 1-12.8 1.942857L479.2 578.057143a9.051429 9.051429 0 0 1-3.771429-7.428572V256c0-5.028571 4.114286-9.142857 9.142858-9.142857h54.971428c5.028571 0 9.142857 4.114286 9.142857 9.142857v282.857143l162.971429 117.828571c4.114286 2.857143 5.028571 8.571429 2.057143 12.685715z" fill="#E6E6E6" /><path d="M711.657143 656.685714L548.685714 538.857143V256c0-5.028571-4.114286-9.142857-9.142857-9.142857H484.571429c-5.028571 0-9.142857 4.114286-9.142858 9.142857v314.628571c0 2.971429 1.371429 5.714286 3.771429 7.428572l189.028571 137.828571c4.114286 2.971429 9.828571 2.171429 12.8-1.942857l32.685715-44.571428c2.971429-4.114286 2.057143-9.828571-2.057143-12.685715z" fill="#333333" /></svg>