<?xml version="1.0" standalone="no"?><!DOCTYPE svg PUBLIC "-//W3C//DTD SVG 1.1//EN" "http://www.w3.org/Graphics/SVG/1.1/DTD/svg11.dtd"><svg class="icon" width="200px" height="200.00px" viewBox="0 0 1024 1024" version="1.1" xmlns="http://www.w3.org/2000/svg"><path d="M932.571429 54.857143H91.428571c-20.228571 0-36.571429 16.342857-36.571428 36.571428v841.142858c0 20.228571 16.342857 36.571429 36.571428 36.571428h841.142858c20.228571 0 36.571429-16.342857 36.571428-36.571428V91.428571c0-20.228571-16.342857-36.571429-36.571428-36.571428z m-45.714286 832H137.142857V137.142857h749.714286v749.714286z" fill="#333333" /><path d="M630.857143 429.714286a41.142857 41.142857 0 1 0 82.285714 0 41.142857 41.142857 0 1 0-82.285714 0zM315.885714 614.285714l1.714286 2.742857c0 0.114286 0.114286 0.114286 0.114286 0.228572l1.028571 1.371428c0.114286 0.114286 0.228571 0.228571 0.228572 0.342858 1.142857 1.485714 2.285714 2.857143 3.657142 4.114285l0.228572 0.228572c0.457143 0.457143 0.914286 0.914286 1.371428 1.257143 0.914286 0.914286 1.942857 1.714286 2.971429 2.4h0.114286l1.371428 1.028571c0.114286 0.114286 0.342857 0.228571 0.457143 0.342857 1.371429 0.914286 2.857143 1.828571 4.457143 2.514286 0.228571 0.114286 0.571429 0.228571 0.8 0.457143 0.457143 0.228571 0.8 0.342857 1.257143 0.571428 0.342857 0.114286 0.8 0.342857 1.142857 0.457143 0.571429 0.228571 1.142857 0.457143 1.714286 0.571429 0.457143 0.114286 1.028571 0.342857 1.485714 0.457143l1.028571 0.342857 1.6 0.342857c0.228571 0.114286 0.571429 0.114286 0.8 0.228571 0.8 0.114286 1.6 0.342857 2.4 0.457143 0.228571 0 0.457143 0 0.685715 0.114286 0.685714 0.114286 1.257143 0.114286 1.942857 0.228571 0.228571 0 0.457143 0 0.8 0.114286 0.914286 0 1.714286 0.114286 2.628571 0.114286s1.714286 0 2.628572-0.114286c0.228571 0 0.457143 0 0.8-0.114286 0.685714 0 1.371429-0.114286 1.942857-0.228571 0.228571 0 0.457143 0 0.685714-0.114286 0.8-0.114286 1.6-0.228571 2.4-0.457143 0.228571-0.114286 0.571429-0.114286 0.8-0.228571l1.6-0.342857 1.028572-0.342857c0.457143-0.114286 1.028571-0.342857 1.485714-0.457143 0.571429-0.228571 1.142857-0.457143 1.714286-0.571429 0.342857-0.114286 0.8-0.342857 1.142857-0.457143 0.457143-0.228571 0.8-0.342857 1.257143-0.571428 0.228571-0.114286 0.571429-0.228571 0.8-0.457143 1.485714-0.8 2.971429-1.6 4.457142-2.514286 0.114286-0.114286 0.342857-0.228571 0.457143-0.342857l1.371429-1.028571h0.114286c1.028571-0.8 2.057143-1.6 2.971428-2.4 0.457143-0.457143 0.914286-0.8 1.371429-1.257143l0.228571-0.228572c1.257143-1.257143 2.514286-2.742857 3.657143-4.114285 0.114286-0.114286 0.228571-0.228571 0.228571-0.342858l1.028572-1.371428c0-0.114286 0.114286-0.114286 0.114286-0.228572l1.714285-2.742857c0.114286-0.228571 0.228571-0.342857 0.342857-0.571428 3.085714-5.828571 4.914286-12.457143 4.914286-19.428572s-1.828571-13.714286-4.914286-19.428571c-0.114286-0.228571-0.228571-0.457143-0.342857-0.571429l-1.714285-2.742857c0-0.114286-0.114286-0.114286-0.114286-0.228571l-1.028572-1.371429c-0.114286-0.114286-0.228571-0.228571-0.228571-0.342857-1.142857-1.485714-2.285714-2.857143-3.657143-4.114286l-0.228571-0.228571c-0.457143-0.457143-0.914286-0.914286-1.371429-1.257143-0.914286-0.914286-1.942857-1.714286-2.971428-2.4h-0.114286l-1.371429-1.028571c-0.114286-0.114286-0.342857-0.228571-0.457143-0.342858-1.371429-0.914286-2.857143-1.828571-4.457142-2.514285-0.228571-0.114286-0.571429-0.228571-0.8-0.457143-0.457143-0.228571-0.8-0.342857-1.257143-0.571429-0.342857-0.114286-0.8-0.342857-1.142857-0.457143-0.571429-0.228571-1.142857-0.457143-1.714286-0.571428-0.457143-0.114286-1.028571-0.342857-1.485714-0.457143l-1.028572-0.342857-1.6-0.342857c-0.228571-0.114286-0.571429-0.114286-0.8-0.228572-0.8-0.114286-1.6-0.342857-2.4-0.457143-0.228571 0-0.457143 0-0.685714-0.114285-0.685714-0.114286-1.257143-0.114286-1.942857-0.228572-0.228571 0-0.457143 0-0.8-0.114285-0.914286 0-1.714286-0.114286-2.628572-0.114286s-1.714286 0-2.628571 0.114286c-0.228571 0-0.457143 0-0.8 0.114285-0.685714 0-1.371429 0.114286-1.942857 0.228572-0.228571 0-0.457143 0-0.685715 0.114285-0.8 0.114286-1.6 0.228571-2.4 0.457143-0.228571 0.114286-0.571429 0.114286-0.8 0.228572l-1.6 0.342857-1.028571 0.342857c-0.457143 0.114286-1.028571 0.342857-1.485714 0.457143-0.571429 0.228571-1.142857 0.457143-1.714286 0.571428-0.342857 0.114286-0.8 0.342857-1.142857 0.457143-0.457143 0.228571-0.8 0.342857-1.257143 0.571429-0.228571 0.114286-0.571429 0.228571-0.8 0.457143-1.485714 0.8-2.971429 1.6-4.457143 2.514285-0.114286 0.114286-0.342857 0.228571-0.457143 0.342858l-1.371428 1.028571h-0.114286c-1.028571 0.8-2.057143 1.6-2.971429 2.4-0.457143 0.457143-0.914286 0.8-1.371428 1.257143l-0.228572 0.228571a62.628571 62.628571 0 0 0-3.657142 4.114286c-0.114286 0.114286-0.228571 0.228571-0.228572 0.342857l-1.028571 1.371429c0 0.114286-0.114286 0.114286-0.114286 0.228571l-1.714286 2.742857c-0.114286 0.228571-0.228571 0.342857-0.342857 0.571429-3.085714 5.828571-4.914286 12.457143-4.914286 19.428571s1.828571 13.714286 4.914286 19.428572c0.114286 0.228571 0.228571 0.342857 0.342857 0.571428z" fill="#E6E6E6" /><path d="M137.142857 886.857143h749.714286V137.142857H137.142857v749.714286z m498.742857-570.4c-0.228571 0-0.342857 0.114286-0.457143 0.114286v-88c0-5.028571 4.114286-9.142857 9.142858-9.142858h54.857142c5.028571 0 9.142857 4.114286 9.142858 9.142858v88c-0.228571 0-0.342857-0.114286-0.457143-0.114286 48 15.314286 82.742857 60.228571 82.742857 113.257143 0 53.028571-34.742857 97.942857-82.742857 113.257143 0.228571 0 0.342857-0.114286 0.457143-0.114286v252.571428c0 5.028571-4.114286 9.142857-9.142858 9.142858h-54.857142c-5.028571 0-9.142857-4.114286-9.142858-9.142858V542.857143c0.228571 0 0.342857 0.114286 0.457143 0.114286-48-15.314286-82.742857-60.228571-82.742857-113.257143 0-53.028571 34.742857-97.942857 82.742857-113.257143zM315.428571 481.142857V228.571429c0-5.028571 4.114286-9.142857 9.142858-9.142858h54.857142c5.028571 0 9.142857 4.114286 9.142858 9.142858v252.571428c47.657143 15.542857 82.285714 60.342857 82.285714 113.142857s-34.628571 97.714286-82.285714 113.142857v88c0 5.028571-4.114286 9.142857-9.142858 9.142858h-54.857142c-5.028571 0-9.142857-4.114286-9.142858-9.142858v-88c-47.657143-15.542857-82.285714-60.342857-82.285714-113.142857s34.628571-97.714286 82.285714-113.142857z" fill="#E6E6E6" /><path d="M315.428571 707.428571v88c0 5.028571 4.114286 9.142857 9.142858 9.142858h54.857142c5.028571 0 9.142857-4.114286 9.142858-9.142858v-88c47.657143-15.428571 82.285714-60.342857 82.285714-113.142857s-34.628571-97.6-82.285714-113.142857V228.571429c0-5.028571-4.114286-9.142857-9.142858-9.142858h-54.857142c-5.028571 0-9.142857 4.114286-9.142858 9.142858v252.571428c-47.657143 15.428571-82.285714 60.342857-82.285714 113.142857s34.628571 97.6 82.285714 113.142857z m0.114286-132.571428c0.114286-0.228571 0.228571-0.342857 0.342857-0.571429l1.714286-2.742857c0-0.114286 0.114286-0.114286 0.114286-0.228571l1.028571-1.371429c0-0.114286 0.114286-0.228571 0.228572-0.342857 1.142857-1.371429 2.4-2.857143 3.657142-4.114286l0.228572-0.228571c0.457143-0.457143 0.914286-0.8 1.371428-1.257143 0.914286-0.8 1.942857-1.6 2.971429-2.4h0.114286l1.371428-1.028571c0.114286-0.114286 0.342857-0.228571 0.457143-0.342858 1.485714-0.914286 2.971429-1.714286 4.457143-2.514285 0.228571-0.228571 0.571429-0.342857 0.8-0.457143 0.457143-0.228571 0.8-0.342857 1.257143-0.571429 0.342857-0.114286 0.8-0.342857 1.142857-0.457143 0.571429-0.114286 1.142857-0.342857 1.714286-0.571428 0.457143-0.114286 1.028571-0.342857 1.485714-0.457143l1.028571-0.342857 1.6-0.342857c0.228571-0.114286 0.571429-0.114286 0.8-0.228572 0.8-0.228571 1.6-0.342857 2.4-0.457143 0.228571-0.114286 0.457143-0.114286 0.685715-0.114285 0.571429-0.114286 1.257143-0.228571 1.942857-0.228572 0.342857-0.114286 0.571429-0.114286 0.8-0.114285 0.914286-0.114286 1.714286-0.114286 2.628571-0.114286s1.714286 0.114286 2.628572 0.114286c0.342857 0.114286 0.571429 0.114286 0.8 0.114285 0.685714 0.114286 1.257143 0.114286 1.942857 0.228572 0.228571 0.114286 0.457143 0.114286 0.685714 0.114285 0.8 0.114286 1.6 0.342857 2.4 0.457143 0.228571 0.114286 0.571429 0.114286 0.8 0.228572l1.6 0.342857 1.028572 0.342857c0.457143 0.114286 1.028571 0.342857 1.485714 0.457143 0.571429 0.114286 1.142857 0.342857 1.714286 0.571428 0.342857 0.114286 0.8 0.342857 1.142857 0.457143 0.457143 0.228571 0.8 0.342857 1.257143 0.571429 0.228571 0.228571 0.571429 0.342857 0.8 0.457143 1.6 0.685714 3.085714 1.6 4.457142 2.514285 0.114286 0.114286 0.342857 0.228571 0.457143 0.342858l1.371429 1.028571h0.114286c1.028571 0.685714 2.057143 1.485714 2.971428 2.4 0.457143 0.342857 0.914286 0.8 1.371429 1.257143l0.228571 0.228571c1.371429 1.257143 2.514286 2.628571 3.657143 4.114286 0 0.114286 0.114286 0.228571 0.228571 0.342857l1.028572 1.371429c0 0.114286 0.114286 0.114286 0.114286 0.228571l1.714285 2.742857A41.177143 41.177143 0 0 1 393.142857 594.285714c0 6.971429-1.828571 13.6-4.914286 19.428572-0.114286 0.228571-0.228571 0.342857-0.342857 0.571428l-1.714285 2.742857c0 0.114286-0.114286 0.114286-0.114286 0.228572l-1.028572 1.371428c0 0.114286-0.114286 0.228571-0.228571 0.342858-1.142857 1.371429-2.4 2.857143-3.657143 4.114285l-0.228571 0.228572c-0.457143 0.457143-0.914286 0.8-1.371429 1.257143-0.914286 0.8-1.942857 1.6-2.971428 2.4h-0.114286l-1.371429 1.028571c-0.114286 0.114286-0.342857 0.228571-0.457143 0.342857-1.485714 0.914286-2.971429 1.714286-4.457142 2.514286-0.228571 0.228571-0.571429 0.342857-0.8 0.457143-0.457143 0.228571-0.8 0.342857-1.257143 0.571428-0.342857 0.114286-0.8 0.342857-1.142857 0.457143-0.571429 0.114286-1.142857 0.342857-1.714286 0.571429-0.457143 0.114286-1.028571 0.342857-1.485714 0.457143l-1.028572 0.342857-1.6 0.342857c-0.228571 0.114286-0.571429 0.114286-0.8 0.228571-0.8 0.228571-1.6 0.342857-2.4 0.457143-0.228571 0.114286-0.457143 0.114286-0.685714 0.114286-0.571429 0.114286-1.257143 0.228571-1.942857 0.228571-0.342857 0.114286-0.571429 0.114286-0.8 0.114286-0.914286 0.114286-1.714286 0.114286-2.628572 0.114286s-1.714286-0.114286-2.628571-0.114286c-0.342857-0.114286-0.571429-0.114286-0.8-0.114286-0.685714-0.114286-1.257143-0.114286-1.942857-0.228571-0.228571-0.114286-0.457143-0.114286-0.685715-0.114286-0.8-0.114286-1.6-0.342857-2.4-0.457143-0.228571-0.114286-0.571429-0.114286-0.8-0.228571l-1.6-0.342857-1.028571-0.342857c-0.457143-0.114286-1.028571-0.342857-1.485714-0.457143-0.571429-0.114286-1.142857-0.342857-1.714286-0.571429-0.342857-0.114286-0.8-0.342857-1.142857-0.457143-0.457143-0.228571-0.8-0.342857-1.257143-0.571428-0.228571-0.228571-0.571429-0.342857-0.8-0.457143-1.6-0.685714-3.085714-1.6-4.457143-2.514286-0.114286-0.114286-0.342857-0.228571-0.457143-0.342857l-1.371428-1.028571h-0.114286c-1.028571-0.685714-2.057143-1.485714-2.971429-2.4-0.457143-0.342857-0.914286-0.8-1.371428-1.257143l-0.228572-0.228572c-1.371429-1.257143-2.514286-2.628571-3.657142-4.114285 0-0.114286-0.114286-0.228571-0.228572-0.342858l-1.028571-1.371428c0-0.114286-0.114286-0.114286-0.114286-0.228572l-1.714286-2.742857c-0.114286-0.228571-0.228571-0.342857-0.342857-0.571428-3.085714-5.714286-4.914286-12.457143-4.914286-19.428572s1.828571-13.6 4.914286-19.428571z m320.342857-31.885714c-0.114286 0-0.228571-0.114286-0.457143-0.114286v252.571428c0 5.028571 4.114286 9.142857 9.142858 9.142858h54.857142c5.028571 0 9.142857-4.114286 9.142858-9.142858V542.857143c-0.114286 0-0.228571 0.114286-0.457143 0.114286 48-15.314286 82.742857-60.228571 82.742857-113.257143 0-53.028571-34.742857-97.942857-82.742857-113.257143 0.114286 0 0.228571 0.114286 0.457143 0.114286v-88c0-5.028571-4.114286-9.142857-9.142858-9.142858h-54.857142c-5.028571 0-9.142857 4.114286-9.142858 9.142858v88c0.114286 0 0.228571-0.114286 0.457143-0.114286-48 15.314286-82.742857 60.228571-82.742857 113.257143 0 53.028571 34.742857 97.942857 82.742857 113.257143zM672 388.571429c22.742857 0 41.142857 18.4 41.142857 41.142857s-18.4 41.142857-41.142857 41.142857-41.142857-18.4-41.142857-41.142857 18.4-41.142857 41.142857-41.142857z" fill="#333333" /></svg>