<?xml version="1.0" standalone="no"?><!DOCTYPE svg PUBLIC "-//W3C//DTD SVG 1.1//EN" "http://www.w3.org/Graphics/SVG/1.1/DTD/svg11.dtd"><svg class="icon" width="200px" height="200.00px" viewBox="0 0 1024 1024" version="1.1" xmlns="http://www.w3.org/2000/svg"><path d="M512 82.285714c-161.6 0-292.571429 130.971429-292.571429 292.571429 0 105.714286 56.457143 201.485714 146.4 253.485714l41.028572 23.771429V786.285714h210.285714V652.114286l41.028572-23.771429C748.114286 576.342857 804.571429 480.571429 804.571429 374.857143c0-161.6-130.971429-292.571429-292.571429-292.571429z" fill="#D9D9D9" /><path d="M649.142857 941.714286H374.857143c-5.028571 0-9.142857 4.114286-9.142857 9.142857v36.571428c0 20.228571 16.342857 36.571429 36.571428 36.571429h219.428572c20.228571 0 36.571429-16.342857 36.571428-36.571429v-36.571428c0-5.028571-4.114286-9.142857-9.142857-9.142857zM512 0c-206.971429 0-374.857143 167.885714-374.857143 374.857143 0 138.742857 75.428571 259.885714 187.428572 324.685714V832c0 20.228571 16.342857 36.571429 36.571428 36.571429h301.714286c20.228571 0 36.571429-16.342857 36.571428-36.571429V699.542857c112-64.8 187.428571-185.942857 187.428572-324.685714 0-206.971429-167.885714-374.857143-374.857143-374.857143z m146.171429 628.342857L617.142857 652.114286V786.285714H406.857143V652.114286l-41.028572-23.771429C275.885714 576.342857 219.428571 480.571429 219.428571 374.857143c0-161.6 130.971429-292.571429 292.571429-292.571429s292.571429 130.971429 292.571429 292.571429c0 105.714286-56.457143 201.485714-146.4 253.485714z"  fill="#404040"/></svg>