<?xml version="1.0" standalone="no"?><!DOCTYPE svg PUBLIC "-//W3C//DTD SVG 1.1//EN" "http://www.w3.org/Graphics/SVG/1.1/DTD/svg11.dtd"><svg class="icon" width="200px" height="200.00px" viewBox="0 0 1024 1024" version="1.1" xmlns="http://www.w3.org/2000/svg"><path d="M508.8 487.771429c-0.8-1.485714-1.6-2.171429-2.514286-2.285715-3.314286 3.771429-2.514286 36 3.085715 58.742857 4.571429-15.542857 5.371429-46.285714-0.571429-56.457142z m-1.828571 137.714285c-8.8 22.857143-21.485714 54.057143-36.685715 81.6 4.571429-1.828571 9.257143-3.771429 14.057143-5.714285 20.114286-8.228571 42.628571-17.485714 67.314286-23.085715-17.028571-13.485714-32.457143-31.657143-44.685714-52.8z" fill="#D9D9D9" /><path d="M537.142857 329.142857V82.285714H192v859.428572h640V377.142857H585.142857a48 48 0 0 1-48-48z m62.857143 328.685714c18.4-2.171429 34.971429-3.2 50.628571-2.628571 14.628571 0.457143 26.971429 2.285714 36.571429 5.828571 0.228571 0.114286 0.342857 0.114286 0.571429 0.228572 0.457143 0.228571 0.914286 0.342857 1.371428 0.571428 0.571429 0.228571 1.257143 0.457143 1.828572 0.8 0.114286 0.114286 0.342857 0.114286 0.457142 0.228572 4.685714 2.057143 8.571429 4.571429 11.542858 7.542857 10.4 10.4 13.485714 29.828571 7.085714 45.257143-3.657143 8.8-13.371429 23.428571-38.057143 23.428571-24.914286 0-61.6-11.085714-93.828571-28.342857-29.142857 4.914286-61.371429 15.885714-92.457143 26.4-6.628571 2.285714-13.485714 4.571429-20.114286 6.742857-43.428571 74.514286-76 90.742857-96.114286 90.742857-4.8 0-8.914286-1.028571-12.342857-2.285714-7.885714-2.971429-14.628571-9.142857-18.857143-17.142857-1.028571-1.942857-1.828571-3.885714-2.514285-5.942857-1.828571-5.485714-2.4-10.971429-1.485715-15.542857l0.685715-3.085715c0.114286-0.228571 0.114286-0.457143 0.228571-0.685714 0.228571-0.8 0.457143-1.6 0.8-2.4 0-0.114286 0.114286-0.228571 0.114286-0.342857 4.685714-13.6 15.542857-26.742857 31.657143-39.542857 14.057143-11.2 30.971429-21.371429 52.457142-32.457143 18.171429-32 42.971429-85.828571 58.514286-122.742857-12.342857-47.771429-19.085714-85.257143-11.542857-112.685714 1.028571-3.771429 2.857143-7.314286 5.257143-10.4 0.228571-0.228571 0.342857-0.457143 0.571428-0.685715 0.114286-0.114286 0.114286-0.228571 0.228572-0.228571 7.2-8.571429 19.314286-13.6 32.114286-13.142857 18.971429 0.8 33.942857 13.142857 37.714285 34.4 1.942857 9.142857 2.514286 18.857143 2.171429 29.371428v0.8c0 0.571429 0 1.142857-0.114286 1.714286-0.8 15.2-3.428571 30.4-8.342857 51.085714-0.457143 1.828571-0.914286 3.657143-1.371429 5.942857l-1.142857 4.685715-0.114285 0.342857c0.114286 0.228571 0.114286 0.342857 0.228571 0.571428l2.057143 5.142858c0.114286 0.342857 0.342857 0.8 0.457143 1.142857 0.8 1.828571 1.6 3.771429 2.4 5.485714v0.114286c9.942857 21.485714 22.514286 38.171429 38.742857 51.542857 4.914286 4 10.171429 7.657143 15.885714 11.2 2.057143-0.571429 4-0.8 6.057143-1.028572z" fill="#D9D9D9" /><path d="M374.285714 796.571429c6.514286-5.028571 18.514286-16.571429 34.4-39.657143-11.771429 10.742857-26.742857 25.6-34.4 39.657143z m309.6-94.857143l0.228572-0.342857h0.228571c0.685714-0.457143 0.571429-0.8 0.457143-1.028572-0.114286-0.114286-5.142857-10.628571-51.542857-8.457143 40.342857 15.885714 49.714286 10.4 50.628571 9.828572z" fill="#D9D9D9" /><path d="M903.542857 256.685714L657.6 10.742857c-6.857143-6.857143-16.114286-10.742857-25.828571-10.742857H146.285714c-20.228571 0-36.571429 16.342857-36.571428 36.571429v950.857142c0 20.228571 16.342857 36.571429 36.571428 36.571429h731.428572c20.228571 0 36.571429-16.342857 36.571428-36.571429V282.628571c0-9.714286-3.885714-19.085714-10.742857-25.942857zM614.857143 84.342857L829.942857 299.428571H614.857143V84.342857zM832 941.714286H192V82.285714h345.142857v246.857143a48 48 0 0 0 48 48h246.857143v564.571429z" fill="#404040" /><path d="M539.314286 595.771429c-0.914286-1.942857-1.714286-3.771429-2.514286-5.6-0.114286-0.342857-0.342857-0.8-0.457143-1.142858l-2.057143-5.142857c-0.114286-0.228571-0.114286-0.342857-0.228571-0.571428l0.114286-0.342857 0.228571-1.257143c4.571429-18.628571 9.828571-40.342857 10.742857-62.171429v-0.8c0.342857-9.828571-0.228571-19.657143-2.285714-29.257143-4.342857-24.342857-22.285714-33.828571-37.6-34.514285-12.914286-0.571429-24.914286 4.571429-32.114286 13.028571-0.114286 0.114286-0.114286 0.228571-0.228571 0.228571-0.228571 0.228571-0.457143 0.457143-0.571429 0.685715-2.4 3.085714-4.228571 6.628571-5.257143 10.4-7.542857 27.428571-0.8 64.914286 11.542857 112.685714-15.542857 37.028571-40.342857 90.742857-58.514285 122.742857v0.114286c-31.657143 16.342857-73.257143 40.914286-84.114286 71.885714 0 0.114286-0.114286 0.228571-0.114286 0.342857-0.228571 0.8-0.571429 1.6-0.8 2.4-0.114286 0.228571-0.114286 0.457143-0.228571 0.685715-0.228571 1.028571-0.571429 2.057143-0.685714 3.085714-1.028571 4.571429-0.457143 10.057143 1.485714 15.542857 0.685714 2.057143 1.485714 4 2.514286 5.942857 4.228571 8 10.971429 14.171429 18.857142 17.142857 3.428571 1.257143 7.542857 2.285714 12.342858 2.285715 20.114286 0 52.685714-16.228571 96.114285-90.742858 6.628571-2.171429 13.485714-4.457143 20.114286-6.742857 31.085714-10.514286 63.314286-21.485714 92.457143-26.4 32.228571 17.257143 68.914286 28.342857 93.828571 28.342857 24.685714 0 34.4-14.628571 38.057143-23.428571 6.4-15.428571 3.314286-34.857143-7.085714-45.257143-2.971429-2.971429-6.857143-5.485714-11.542857-7.542857-0.114286-0.114286-0.342857-0.114286-0.457143-0.228571-0.571429-0.228571-1.257143-0.457143-1.828572-0.8-0.457143-0.228571-0.914286-0.342857-1.371428-0.571429-0.228571-0.114286-0.342857-0.114286-0.571429-0.228571-18.514286-6.628571-47.657143-7.657143-87.2-3.2l-6.057143 0.685714c-5.714286-3.428571-10.971429-7.2-15.885714-11.2-16.228571-12.914286-28.685714-29.485714-38.628571-51.085714zM374.285714 796.571429c7.657143-14.057143 22.628571-28.914286 34.4-39.657143-15.885714 23.085714-27.885714 34.628571-34.4 39.657143zM506.285714 485.485714c0.914286 0.114286 1.714286 0.8 2.514286 2.285715 5.942857 10.171429 5.142857 40.914286 0.571429 56.457142-5.6-22.742857-6.4-54.971429-3.085715-58.742857z m-21.942857 215.885715c-4.8 1.942857-9.485714 3.885714-14.057143 5.714285 15.2-27.542857 27.885714-58.742857 36.685715-81.6 12.228571 21.142857 27.657143 39.314286 44.685714 52.8-24.685714 5.6-47.2 14.857143-67.314286 23.085715z m200.457143-1.028572c0.114286 0.228571 0.228571 0.571429-0.457143 1.028572h-0.228571l-0.228572 0.342857c-0.914286 0.571429-10.285714 6.057143-50.628571-9.828572 46.4-2.171429 51.428571 8.342857 51.542857 8.457143z" fill="#404040" /></svg>