<?xml version="1.0" standalone="no"?><!DOCTYPE svg PUBLIC "-//W3C//DTD SVG 1.1//EN" "http://www.w3.org/Graphics/SVG/1.1/DTD/svg11.dtd"><svg class="icon" width="200px" height="200.00px" viewBox="0 0 1024 1024" version="1.1" xmlns="http://www.w3.org/2000/svg"><path d="M537.142857 329.142857V82.285714H192v859.428572h640V377.142857H585.142857a48 48 0 0 1-48-48z m115.771429 147.771429c1.485714-6.171429 6.971429-10.628571 13.371428-10.628572h40.685715a13.76 13.76 0 0 1 13.257142 17.257143l-85.028571 315.428572c-1.6 6.057143-7.085714 10.171429-13.257143 10.171428h-36.342857c-6.171429 0-11.657143-4.228571-13.257143-10.171428l-60.342857-225.142858-60.342857 225.142858c-1.6 6.057143-7.085714 10.171429-13.257143 10.171428h-36.571429c-6.171429 0-11.657143-4.228571-13.257142-10.171428l-84.8-315.428572a13.737143 13.737143 0 0 1 13.257142-17.257143h40.457143c6.4 0 11.885714 4.457143 13.371429 10.628572L423.542857 704l56.8-227.314286c1.485714-6.171429 6.971429-10.4 13.257143-10.4h36.8c6.285714 0 11.771429 4.228571 13.257143 10.4l56.914286 227.771429 52.342857-227.542857z" fill="#D9D9D9" /><path d="M903.542857 256.685714L657.6 10.742857c-6.857143-6.857143-16.114286-10.742857-25.828571-10.742857H146.285714c-20.228571 0-36.571429 16.342857-36.571428 36.571429v950.857142c0 20.228571 16.342857 36.571429 36.571428 36.571429h731.428572c20.228571 0 36.571429-16.342857 36.571428-36.571429V282.628571c0-9.714286-3.885714-19.085714-10.742857-25.942857zM614.857143 84.342857L829.942857 299.428571H614.857143V84.342857zM832 941.714286H192V82.285714h345.142857v246.857143a48 48 0 0 0 48 48h246.857143v564.571429z" fill="#404040" /><path d="M530.4 466.285714h-36.8c-6.285714 0-11.771429 4.228571-13.257143 10.4L423.542857 704l-52.685714-227.085714c-1.485714-6.171429-6.971429-10.628571-13.371429-10.628572h-40.457143a13.737143 13.737143 0 0 0-13.257142 17.257143l84.8 315.428572c1.6 5.942857 7.085714 10.171429 13.257142 10.171428h36.571429c6.171429 0 11.657143-4.114286 13.257143-10.171428l60.342857-225.142858 60.342857 225.142858c1.6 5.942857 7.085714 10.171429 13.257143 10.171428h36.342857c6.171429 0 11.657143-4.114286 13.257143-10.171428l85.028571-315.428572a13.76 13.76 0 0 0-13.257142-17.257143H666.285714c-6.4 0-11.885714 4.457143-13.371428 10.628572l-52.342857 227.542857-56.914286-227.771429c-1.485714-6.171429-6.971429-10.4-13.257143-10.4z" fill="#404040" /></svg>