<?xml version="1.0" standalone="no"?><!DOCTYPE svg PUBLIC "-//W3C//DTD SVG 1.1//EN" "http://www.w3.org/Graphics/SVG/1.1/DTD/svg11.dtd"><svg class="icon" width="200px" height="200.00px" viewBox="0 0 1024 1024" version="1.1" xmlns="http://www.w3.org/2000/svg"><path d="M537.142857 329.142857V82.285714H192v859.428572h640V377.142857H585.142857a48 48 0 0 1-48-48z" fill="#D9D9D9" /><path d="M903.542857 256.685714L657.6 10.742857c-6.857143-6.857143-16.114286-10.742857-25.828571-10.742857H146.285714c-20.228571 0-36.571429 16.342857-36.571428 36.571429v950.857142c0 20.228571 16.342857 36.571429 36.571428 36.571429h731.428572c20.228571 0 36.571429-16.342857 36.571428-36.571429V282.628571c0-9.714286-3.885714-19.085714-10.742857-25.942857zM614.857143 84.342857L829.942857 299.428571H614.857143V84.342857zM832 941.714286H192V82.285714h345.142857v246.857143a48 48 0 0 0 48 48h246.857143v564.571429z"  fill="#404040"/></svg>