<?xml version="1.0" standalone="no"?><!DOCTYPE svg PUBLIC "-//W3C//DTD SVG 1.1//EN" "http://www.w3.org/Graphics/SVG/1.1/DTD/svg11.dtd"><svg class="icon" width="200px" height="200.00px" viewBox="0 0 1024 1024" version="1.1" xmlns="http://www.w3.org/2000/svg"><path d="M537.142857 329.142857V82.285714H192v859.428572h640V377.142857H585.142857a48 48 0 0 1-48-48z m-153.142857 57.142857c25.257143 0 45.714286 20.457143 45.714286 45.714286s-20.457143 45.714286-45.714286 45.714286-45.714286-20.457143-45.714286-45.714286 20.457143-45.714286 45.714286-45.714286z m338.285714 336H301.828571c-7.657143 0-11.885714-8.8-7.2-14.742857l114.057143-145.371428a9.142857 9.142857 0 0 1 14.4 0l46.971429 59.885714 88.914286-113.371429a9.257143 9.257143 0 0 1 14.514285 0l156 198.857143c4.685714 5.942857 0.457143 14.742857-7.2 14.742857z" fill="#D9D9D9" /><path d="M903.542857 256.685714L657.6 10.742857c-6.857143-6.857143-16.114286-10.742857-25.828571-10.742857H146.285714c-20.228571 0-36.571429 16.342857-36.571428 36.571429v950.857142c0 20.228571 16.342857 36.571429 36.571428 36.571429h731.428572c20.228571 0 36.571429-16.342857 36.571428-36.571429V282.628571c0-9.714286-3.885714-19.085714-10.742857-25.942857zM614.857143 84.342857L829.942857 299.428571H614.857143V84.342857zM832 941.714286H192V82.285714h345.142857v246.857143a48 48 0 0 0 48 48h246.857143v564.571429z" fill="#404040" /><path d="M558.971429 508.685714l-88.914286 113.371429-46.971429-59.885714a9.142857 9.142857 0 0 0-14.4 0l-114.057143 145.371428a9.12 9.12 0 0 0 7.2 14.742857H722.285714c7.657143 0 11.885714-8.8 7.2-14.742857l-156-198.857143a9.257143 9.257143 0 0 0-14.514285 0zM338.285714 432a45.714286 45.714286 0 1 0 91.428572 0 45.714286 45.714286 0 1 0-91.428572 0z" fill="#404040" /></svg>