<?xml version="1.0" standalone="no"?><!DOCTYPE svg PUBLIC "-//W3C//DTD SVG 1.1//EN" "http://www.w3.org/Graphics/SVG/1.1/DTD/svg11.dtd"><svg class="icon" width="200px" height="200.00px" viewBox="0 0 1024 1024" version="1.1" xmlns="http://www.w3.org/2000/svg"><path d="M537.142857 329.142857V82.285714H192v859.428572h640V377.142857H585.142857a48 48 0 0 1-48-48z m-25.142857 484.571429c-20.228571 0-36.571429-16.342857-36.571429-36.571429s16.342857-36.571429 36.571429-36.571428 36.571429 16.342857 36.571429 36.571428-16.342857 36.571429-36.571429 36.571429z m125.714286-261.028572c0.8 51.314286-33.942857 96.571429-84.914286 113.028572-6.514286 2.057143-11.085714 8.342857-11.085714 15.2V694.857143c0 6.285714-5.142857 11.428571-11.428572 11.428571h-36.571428c-6.285714 0-11.428571-5.142857-11.428572-11.428571v-36.571429c0.228571-22.628571 17.6-42.628571 39.657143-45.828571C554.285714 608.228571 578.285714 583.2 578.285714 554.285714c0-32.114286-29.485714-58.857143-66.285714-58.857143s-66.285714 26.742857-66.285714 58.971429c0 5.942857-5.028571 10.742857-11.2 10.742857h-37.028572c-6.171429 0-11.2-4.685714-11.2-10.857143 0-65.6 57.257143-118.514286 127.428572-117.714285 67.771429 0.914286 123.085714 52.685714 124 116.114285z" fill="#D9D9D9" /><path d="M903.542857 256.8L657.6 10.742857c-6.857143-6.857143-16.228571-10.742857-25.942857-10.742857H146.285714c-20.228571 0-36.571429 16.342857-36.571428 36.571429v950.857142c0 20.228571 16.342857 36.571429 36.571428 36.571429h731.428572c20.228571 0 36.571429-16.342857 36.571428-36.571429V282.628571c0-9.714286-3.885714-18.971429-10.742857-25.828571zM614.857143 84.342857L829.942857 299.428571H614.857143V84.342857zM832 941.714286H192V82.285714h345.142857v246.857143a48 48 0 0 0 48 48h246.857143v564.571429z"  fill="#404040"/><path d="M475.428571 777.142857a36.571429 36.571429 0 1 0 73.142858 0 36.571429 36.571429 0 1 0-73.142858 0z m-89.142857-222.857143c0 6.171429 5.028571 10.857143 11.2 10.857143h37.028572c6.171429 0 11.2-4.8 11.2-10.742857 0-32.228571 29.485714-58.971429 66.285714-58.971429s66.285714 26.742857 66.285714 58.857143c0 28.914286-24 53.942857-56.342857 58.171429-22.057143 3.2-39.428571 23.2-39.657143 45.828571v36.571429c0 6.285714 5.142857 11.428571 11.428572 11.428571h36.571428c6.285714 0 11.428571-5.142857 11.428572-11.428571v-13.942857c0-6.857143 4.571429-13.142857 11.085714-15.2 50.971429-16.457143 85.714286-61.714286 84.914286-113.028572-0.914286-63.428571-56.228571-115.2-124-116.114285-70.171429-0.8-127.428571 52.114286-127.428572 117.714285z" fill="#404040" /></svg>