<?xml version="1.0" standalone="no"?><!DOCTYPE svg PUBLIC "-//W3C//DTD SVG 1.1//EN" "http://www.w3.org/Graphics/SVG/1.1/DTD/svg11.dtd"><svg class="icon" width="200px" height="200.00px" viewBox="0 0 1024 1024" version="1.1" xmlns="http://www.w3.org/2000/svg"><path d="M407.542857 838.857143h209.028572V660.571429H407.542857zM396.571429 568.457143l10.857142 18.971428h209.142858l10.857142-18.971428L854.057143 185.142857H169.942857z" fill="#D9D9D9" /><path d="M932.685714 102.857143H91.314286c-28 0-45.485714 30.514286-31.428572 54.857143L325.714286 609.6V884.571429c0 20.228571 16.228571 36.571429 36.342857 36.571428h299.885714c20.114286 0 36.342857-16.342857 36.342857-36.571428V609.6L964.228571 157.714286c13.942857-24.342857-3.542857-54.857143-31.542857-54.857143zM616.571429 838.857143H407.542857V660.571429h209.028572v178.285714z m10.857142-270.4l-10.857142 18.971428h-209.142858l-10.857142-18.971428L169.942857 185.142857h684.114286L627.428571 568.457143z"  /></svg>