<?xml version="1.0" standalone="no"?><!DOCTYPE svg PUBLIC "-//W3C//DTD SVG 1.1//EN" "http://www.w3.org/Graphics/SVG/1.1/DTD/svg11.dtd"><svg class="icon" width="200px" height="200.00px" viewBox="0 0 1024 1024" version="1.1" xmlns="http://www.w3.org/2000/svg"><path d="M352.571429 219.428571H137.142857v585.142858h749.714286V350.171429H489.257143L352.571429 219.428571zM544 433.257143V530.285714h96.571429c4.685714 0 8.571429 3.542857 8.571428 8v48c0 4.342857-3.885714 8-8.571428 8H544v97.028572c0 4.457143-3.542857 8.114286-8 8.114285h-48c-4.342857 0-8-3.657143-8-8.114285V594.285714h-96.571429c-4.685714 0-8.571429-3.657143-8.571428-8v-48c0-4.457143 3.885714-8 8.571428-8H480v-97.028571c0-4.457143 3.657143-8.114286 8-8.114286h48c4.457143 0 8 3.657143 8 8.114286z" fill="#D9D9D9" /><path d="M932.571429 267.885714H522.285714L388.228571 139.657143a9.314286 9.314286 0 0 0-6.285714-2.514286H91.428571c-20.228571 0-36.571429 16.342857-36.571428 36.571429v676.571428c0 20.228571 16.342857 36.571429 36.571428 36.571429h841.142858c20.228571 0 36.571429-16.342857 36.571428-36.571429V304.457143c0-20.228571-16.342857-36.571429-36.571428-36.571429zM886.857143 804.571429H137.142857V219.428571h215.428572l136.685714 130.742858H886.857143V804.571429z"  fill="#404040"/><path d="M480 433.257143V530.285714h-96.571429c-4.685714 0-8.571429 3.542857-8.571428 8v48c0 4.342857 3.885714 8 8.571428 8H480v97.028572c0 4.457143 3.657143 8.114286 8 8.114285h48c4.457143 0 8-3.657143 8-8.114285V594.285714h96.571429c4.685714 0 8.571429-3.657143 8.571428-8v-48c0-4.457143-3.885714-8-8.571428-8H544v-97.028571c0-4.457143-3.542857-8.114286-8-8.114286h-48c-4.342857 0-8 3.657143-8 8.114286z"  fill="#404040"/></svg>