<?xml version="1.0" standalone="no"?><!DOCTYPE svg PUBLIC "-//W3C//DTD SVG 1.1//EN" "http://www.w3.org/Graphics/SVG/1.1/DTD/svg11.dtd"><svg class="icon" width="200px" height="200.00px" viewBox="0 0 1024 1024" version="1.1" xmlns="http://www.w3.org/2000/svg"><path d="M512 0C229.257143 0 0 229.257143 0 512s229.257143 512 512 512 512-229.257143 512-512S794.742857 0 512 0z m0 937.142857c-234.742857 0-425.142857-190.4-425.142857-425.142857s190.4-425.142857 425.142857-425.142857 425.142857 190.4 425.142857 425.142857-190.4 425.142857-425.142857 425.142857z" fill="#333333" /><path d="M512 86.857143c-234.742857 0-425.142857 190.4-425.142857 425.142857s190.4 425.142857 425.142857 425.142857 425.142857-190.4 425.142857-425.142857-190.4-425.142857-425.142857-425.142857zM256 408a54.868571 54.868571 0 0 1 109.714286 0 54.868571 54.868571 0 0 1-109.714286 0z m429.714286 310.857143h-54.971429c-4.8 0-8.914286-3.657143-9.257143-8.457143C617.142857 653.828571 569.714286 609.142857 512 609.142857s-105.257143 44.685714-109.485714 101.257143c-0.342857 4.8-4.457143 8.457143-9.257143 8.457143H338.285714a9.142857 9.142857 0 0 1-9.142857-9.6c5.028571-96.342857 85.142857-173.257143 182.857143-173.257143s177.828571 76.914286 182.857143 173.257143a9.142857 9.142857 0 0 1-9.142857 9.6z m27.428571-256a54.868571 54.868571 0 0 1 0-109.714286 54.868571 54.868571 0 0 1 0 109.714286z" fill="#E6E6E6" /><path d="M256 408a54.857143 54.857143 0 1 0 109.714286 0 54.857143 54.857143 0 1 0-109.714286 0z m256 128c-97.714286 0-177.828571 76.914286-182.857143 173.257143a9.142857 9.142857 0 0 0 9.142857 9.6h54.971429c4.8 0 8.914286-3.657143 9.257143-8.457143 4.228571-56.571429 51.771429-101.257143 109.485714-101.257143s105.142857 44.685714 109.485714 101.257143c0.342857 4.8 4.457143 8.457143 9.257143 8.457143H685.714286a9.142857 9.142857 0 0 0 9.142857-9.6C689.828571 612.914286 609.714286 536 512 536z m146.285714-128a54.857143 54.857143 0 1 0 109.714286 0 54.857143 54.857143 0 1 0-109.714286 0z" fill="#333333" /></svg>