<?xml version="1.0" standalone="no"?><!DOCTYPE svg PUBLIC "-//W3C//DTD SVG 1.1//EN" "http://www.w3.org/Graphics/SVG/1.1/DTD/svg11.dtd"><svg class="icon" width="200px" height="200.00px" viewBox="0 0 1024 1024" version="1.1" xmlns="http://www.w3.org/2000/svg"><path d="M987.428571 109.714286H36.571429c-20.228571 0-36.571429 16.342857-36.571429 36.571428v731.428572c0 20.228571 16.342857 36.571429 36.571429 36.571428h950.857142c20.228571 0 36.571429-16.342857 36.571429-36.571428V146.285714c0-20.228571-16.342857-36.571429-36.571429-36.571428z m-45.714285 722.285714H82.285714V192h859.428572v640z" fill="#333333" /><path d="M82.285714 832h859.428572V192H82.285714v640z m64.457143-149.142857l245.6-245.714286c3.542857-3.542857 9.371429-3.542857 12.914286 0L536 568l290.857143-290.971429c3.542857-3.542857 9.371429-3.542857 12.914286 0l42.057142 42.057143c3.542857 3.542857 3.542857 9.371429 0 12.914286l-339.428571 339.657143a9.177143 9.177143 0 0 1-12.914286 0L398.742857 540.8 201.6 737.942857a9.177143 9.177143 0 0 1-12.914286 0l-41.942857-42.171428a9.177143 9.177143 0 0 1 0-12.914286z" fill="#E6E6E6" /><path d="M188.685714 737.942857c3.542857 3.542857 9.371429 3.542857 12.914286 0l197.142857-197.142857 130.742857 130.857143c3.542857 3.542857 9.371429 3.542857 12.914286 0l339.428571-339.657143c3.542857-3.542857 3.542857-9.371429 0-12.914286l-42.057142-42.057143a9.177143 9.177143 0 0 0-12.914286 0L536 568 405.257143 437.142857a9.177143 9.177143 0 0 0-12.914286 0l-245.6 245.714286a9.177143 9.177143 0 0 0 0 12.914286l41.942857 42.171428z" fill="#333333" /></svg>