<?xml version="1.0" standalone="no"?><!DOCTYPE svg PUBLIC "-//W3C//DTD SVG 1.1//EN" "http://www.w3.org/Graphics/SVG/1.1/DTD/svg11.dtd"><svg class="icon" width="200px" height="200.00px" viewBox="0 0 1024 1024" version="1.1" xmlns="http://www.w3.org/2000/svg"><path d="M407.542857 838.857143h209.028572V669.714286H407.542857zM267.085714 354.285714h489.828572l97.142857-169.142857H169.942857z m129.371429 225.6l9.6 16.685715h211.771428l9.6-16.685715L714.971429 427.428571H309.028571z" fill="#D9D9D9" /><path d="M932.685714 102.857143H91.314286c-28 0-45.485714 30.514286-31.428572 54.857143L325.714286 621.028571V884.571429c0 20.228571 16.228571 36.571429 36.342857 36.571428h299.885714c20.114286 0 36.342857-16.342857 36.342857-36.571428V621.028571L964.228571 157.714286c13.942857-24.342857-3.542857-54.857143-31.542857-54.857143zM616.571429 838.857143H407.542857V669.714286h209.028572v169.142857z m10.857142-258.971429l-9.6 16.685715H406.057143l-9.6-16.685715L309.028571 427.428571h405.942858L627.428571 579.885714zM756.914286 354.285714H267.085714l-97.142857-169.142857h684.114286l-97.142857 169.142857z"  /></svg>