<?xml version="1.0" standalone="no"?><!DOCTYPE svg PUBLIC "-//W3C//DTD SVG 1.1//EN" "http://www.w3.org/Graphics/SVG/1.1/DTD/svg11.dtd"><svg class="icon" width="200px" height="200.00px" viewBox="0 0 1024 1024" version="1.1" xmlns="http://www.w3.org/2000/svg"><path d="M550.857143 358.857143h340.571428v118.857143H550.857143zM187.428571 555.428571h285.714286v352H187.428571z m-54.857142-196.571428h340.571428v118.857143H132.571429z m418.285714 196.571428h285.714286v352H550.857143z" fill="#D9D9D9" /><path d="M932.571429 281.142857H763.885714c15.542857-24.457143 24.685714-53.485714 24.685715-84.571428 0-86.971429-70.742857-157.714286-157.714286-157.714286-47.314286 0-89.942857 21.028571-118.857143 54.171428-28.914286-33.142857-71.542857-54.171429-118.857143-54.171428-86.971429 0-157.714286 70.742857-157.714286 157.714286 0 31.085714 9.028571 60.114286 24.685715 84.571428H91.428571c-20.228571 0-36.571429 16.342857-36.571428 36.571429v228.571428c0 5.028571 4.114286 9.142857 9.142857 9.142857h45.714286v393.142858c0 20.228571 16.342857 36.571429 36.571428 36.571428h731.428572c20.228571 0 36.571429-16.342857 36.571428-36.571428V555.428571h45.714286c5.028571 0 9.142857-4.114286 9.142857-9.142857V317.714286c0-20.228571-16.342857-36.571429-36.571428-36.571429zM473.142857 907.428571H187.428571V555.428571h285.714286v352z m0-429.714285H132.571429V358.857143h340.571428v118.857143z m0-201.142857h-80c-44.114286 0-80-35.885714-80-80s35.885714-80 80-80 80 35.885714 80 80v80z m77.714286-80c0-44.114286 35.885714-80 80-80s80 35.885714 80 80-35.885714 80-80 80h-80v-80z m285.714286 710.857142H550.857143V555.428571h285.714286v352z m54.857142-429.714285H550.857143V358.857143h340.571428v118.857143z"  /></svg>