<?xml version="1.0" standalone="no"?><!DOCTYPE svg PUBLIC "-//W3C//DTD SVG 1.1//EN" "http://www.w3.org/Graphics/SVG/1.1/DTD/svg11.dtd"><svg class="icon" width="200px" height="200.00px" viewBox="0 0 1024 1024" version="1.1" xmlns="http://www.w3.org/2000/svg"><path d="M424.8 565.371429c-0.685714-4.457143-4.571429-7.657143-9.028571-7.657143H116.8c-4.457143 0-8.342857 3.2-9.028571 7.657143l-45.942858 283.428571c-0.114286 0.457143-0.114286 1.028571-0.114285 1.485714 0 5.028571 4.114286 9.142857 9.142857 9.142857h390.857143c0.457143 0 1.028571 0 1.485714-0.114285 5.028571-0.8 8.342857-5.485714 7.542857-10.514286l-45.942857-283.428571zM151.428571 781.714286l23.657143-146.285715h182.285715l23.657142 146.285715H151.428571z m810.742858 67.085714l-45.942858-283.428571c-0.685714-4.457143-4.571429-7.657143-9.028571-7.657143H608.228571c-4.457143 0-8.342857 3.2-9.028571 7.657143l-45.942857 283.428571c-0.114286 0.457143-0.114286 1.028571-0.114286 1.485714 0 5.028571 4.114286 9.142857 9.142857 9.142857h390.857143c0.457143 0 1.028571 0 1.485714-0.114285 4.914286-0.8 8.342857-5.485714 7.542858-10.514286zM642.857143 781.714286l23.657143-146.285715h182.285714l23.657143 146.285715H642.857143zM317.714286 466.285714h390.857143c0.457143 0 1.028571 0 1.485714-0.114285 5.028571-0.8 8.342857-5.485714 7.542857-10.514286l-45.942857-283.428572c-0.685714-4.457143-4.571429-7.657143-9.028572-7.657142H363.657143c-4.457143 0-8.342857 3.2-9.028572 7.657142l-45.942857 283.428572c-0.114286 0.457143-0.114286 1.028571-0.114285 1.485714 0 5.028571 4.114286 9.142857 9.142857 9.142857z m104.228571-224h182.285714l23.657143 146.285715h-229.714285l23.771428-146.285715z" fill="#333333" /><path d="M604.228571 242.285714H421.942857l-23.771428 146.285715h229.714285zM175.085714 635.428571l-23.657143 146.285715h229.6l-23.657142-146.285715z m491.428572 0l-23.657143 146.285715h229.6l-23.657143-146.285715z" fill="#E6E6E6" /></svg>