<?xml version="1.0" standalone="no"?><!DOCTYPE svg PUBLIC "-//W3C//DTD SVG 1.1//EN" "http://www.w3.org/Graphics/SVG/1.1/DTD/svg11.dtd"><svg class="icon" width="200px" height="200.00px" viewBox="0 0 1024 1024" version="1.1" xmlns="http://www.w3.org/2000/svg"><path d="M192 941.714286h640V704H192v237.714286z m512-160c25.257143 0 45.714286 20.457143 45.714286 45.714285s-20.457143 45.714286-45.714286 45.714286-45.714286-20.457143-45.714286-45.714286 20.457143-45.714286 45.714286-45.714285zM192 630.857143h640V393.142857H192v237.714286z m82.285714-146.285714c0-5.028571 4.114286-9.142857 9.142857-9.142858h210.285715c5.028571 0 9.142857 4.114286 9.142857 9.142858v54.857142c0 5.028571-4.114286 9.142857-9.142857 9.142858H283.428571c-5.028571 0-9.142857-4.114286-9.142857-9.142858v-54.857142z m-82.285714-164.571429h640V82.285714H192v237.714286z m82.285714-146.285714c0-5.028571 4.114286-9.142857 9.142857-9.142857h210.285715c5.028571 0 9.142857 4.114286 9.142857 9.142857v54.857143c0 5.028571-4.114286 9.142857-9.142857 9.142857H283.428571c-5.028571 0-9.142857-4.114286-9.142857-9.142857v-54.857143z" fill="#D9D9D9" /><path d="M877.714286 0H146.285714c-20.228571 0-36.571429 16.342857-36.571428 36.571429v950.857142c0 20.228571 16.342857 36.571429 36.571428 36.571429h731.428572c20.228571 0 36.571429-16.342857 36.571428-36.571429V36.571429c0-20.228571-16.342857-36.571429-36.571428-36.571429z m-45.714286 941.714286H192V704h640v237.714286z m0-310.857143H192V393.142857h640v237.714286z m0-310.857143H192V82.285714h640v237.714286z"  fill="#404040"/><path d="M283.428571 548.571429h210.285715c5.028571 0 9.142857-4.114286 9.142857-9.142858v-54.857142c0-5.028571-4.114286-9.142857-9.142857-9.142858H283.428571c-5.028571 0-9.142857 4.114286-9.142857 9.142858v54.857142c0 5.028571 4.114286 9.142857 9.142857 9.142858z m0-310.857143h210.285715c5.028571 0 9.142857-4.114286 9.142857-9.142857v-54.857143c0-5.028571-4.114286-9.142857-9.142857-9.142857H283.428571c-5.028571 0-9.142857 4.114286-9.142857 9.142857v54.857143c0 5.028571 4.114286 9.142857 9.142857 9.142857z m374.857143 589.714285a45.714286 45.714286 0 1 0 91.428572 0 45.714286 45.714286 0 1 0-91.428572 0z" fill="#404040" /></svg>