<?xml version="1.0" standalone="no"?><!DOCTYPE svg PUBLIC "-//W3C//DTD SVG 1.1//EN" "http://www.w3.org/Graphics/SVG/1.1/DTD/svg11.dtd"><svg class="icon" width="200px" height="200.00px" viewBox="0 0 1024 1024" version="1.1" xmlns="http://www.w3.org/2000/svg"><path d="M981.714286 250.971429a297.188571 297.188571 0 0 0-65.028572-94.628572 302.171429 302.171429 0 0 0-96-63.428571A303.245714 303.245714 0 0 0 703.657143 69.714286c-56.342857 0-111.314286 15.428571-159.085714 44.571428-11.428571 6.971429-22.285714 14.628571-32.571429 22.971429-10.285714-8.342857-21.142857-16-32.571429-22.971429-47.771429-29.142857-102.742857-44.571429-159.085714-44.571428-40.571429 0-79.885714 7.771429-117.028571 23.2-35.885714 14.857143-68.228571 36.228571-96 63.428571a295.36 295.36 0 0 0-65.028572 94.628572c-15.885714 36.914286-24 76.114286-24 116.457142 0 38.057143 7.771429 77.714286 23.2 118.057143 12.914286 33.714286 31.428571 68.685714 55.085715 104 37.485714 55.885714 89.028571 114.171429 153.028571 173.257143 106.057143 97.942857 211.085714 165.6 215.542857 168.342857l27.085714 17.371429c12 7.657143 27.428571 7.657143 39.428572 0l27.085714-17.371429c4.457143-2.857143 109.371429-70.4 215.542857-168.342857 64-59.085714 115.542857-117.371429 153.028572-173.257143 23.657143-35.314286 42.285714-70.285714 55.085714-104 15.428571-40.342857 23.2-80 23.2-118.057143 0.114286-40.342857-8-79.542857-23.885714-116.457142zM512 858.057143S105.142857 597.371429 105.142857 367.428571C105.142857 250.971429 201.485714 156.571429 320.342857 156.571429c83.542857 0 156 46.628571 191.657143 114.742857C547.657143 203.2 620.114286 156.571429 703.657143 156.571429c118.857143 0 215.2 94.4 215.2 210.857142 0 229.942857-406.857143 490.628571-406.857143 490.628572z" fill="#333333" /><path d="M703.657143 156.571429c-83.542857 0-156 46.628571-191.657143 114.742857C476.342857 203.2 403.885714 156.571429 320.342857 156.571429c-118.857143 0-215.2 94.4-215.2 210.857142 0 229.942857 406.857143 490.628571 406.857143 490.628572s406.857143-260.685714 406.857143-490.628572C918.857143 250.971429 822.514286 156.571429 703.657143 156.571429z" fill="#E6E6E6" /></svg>