<?xml version="1.0" standalone="no"?><!DOCTYPE svg PUBLIC "-//W3C//DTD SVG 1.1//EN" "http://www.w3.org/Graphics/SVG/1.1/DTD/svg11.dtd"><svg class="icon" width="200px" height="200.00px" viewBox="0 0 1024 1024" version="1.1" xmlns="http://www.w3.org/2000/svg"><path d="M189.257143 836.914286h183.085714l62.057143-61.828572-91.542857-90.171428z m252.228571-453.828572l300.342857 295.885715 168.342858-165.714286-300.342858-296z m-88.114285 189.828572l195.885714 193.028571 78.4-77.257143-195.885714-193.028571z" fill="#D9D9D9" /><path d="M1021.257143 506.857143L616.228571 107.771429a9.028571 9.028571 0 0 0-12.8 0L330.628571 376.571429a9.177143 9.177143 0 0 0-0.114285 12.914285l0.114285 0.114286 45.714286 45.028571-133.942857 131.771429a9.177143 9.177143 0 0 0-0.114286 12.914286l0.114286 0.114285 45.142857 44.457143-216.114286 213.714286H9.257143c-5.028571 0-9.257143 4.114286-9.257143 9.142857v63.085714c0 5.028571 4.114286 9.142857 9.142857 9.142858h394.171429c2.4 0 4.685714-0.914286 6.4-2.628572l86.971428-86.4L542.857143 875.428571a9.028571 9.028571 0 0 0 12.8 0l133.828571-132.114285 45.828572 45.142857a9.028571 9.028571 0 0 0 12.8 0l272.8-268.8c3.885714-3.428571 3.885714-9.142857 0.342857-12.8zM372.342857 836.914286H189.257143l153.6-152 91.542857 90.171428-62.057143 61.828572z m176.914286-70.971429L353.371429 572.914286l78.4-77.257143 195.885714 193.028571-78.4 77.257143z m192.571428-86.971428L441.485714 383.085714l168.342857-165.828571 300.342858 296-168.342858 165.714286z"  /></svg>