<?xml version="1.0" standalone="no"?><!DOCTYPE svg PUBLIC "-//W3C//DTD SVG 1.1//EN" "http://www.w3.org/Graphics/SVG/1.1/DTD/svg11.dtd"><svg class="icon" width="200px" height="197.68px" viewBox="0 0 1036 1024" version="1.1" xmlns="http://www.w3.org/2000/svg"><path d="M518.171429 124.114286l-422.857143 422.514285h109.714285V918.857143H380.914286V658.285714c0-25.257143 20.457143-45.714286 45.714285-45.714285h182.857143c25.257143 0 45.714286 20.457143 45.714286 45.714285v260.571429h175.885714V546.628571H940.914286L544.571429 150.514286l-26.4-26.4z m496.571428 483.314285c-6.857143 6.857143-14.971429 12.342857-23.771428 15.885715 8.8-3.657143 16.914286-9.028571 23.771428-15.885715z m-1013.714286-39.657142c5.714286 34.628571 35.885714 61.142857 72.114286 61.142857h1.028572c-36.457143 0-67.314286-26.285714-73.142858-61.142857z m-1.028571-12v-2.171429 2.171429z m0.114286-2.971429c0.114286-3.542857 0.571429-6.971429 1.142857-10.4-0.685714 3.314286-1.028571 6.857143-1.142857 10.4z" fill="#D9D9D9" /><path d="M1019.771429 509.714286c0-0.114286-0.114286-0.114286-0.114286-0.228572l-2.057143-2.4c-0.114286-0.114286-0.228571-0.342857-0.457143-0.457143-0.8-0.914286-1.714286-1.828571-2.514286-2.742857L573.028571 62.628571l-29.6-29.6a36 36 0 0 0-50.742857 0L21.485714 504a72.685714 72.685714 0 0 0-18.285714 30.4l-0.685714 2.4-0.342857 1.257143-0.342858 1.371428c-0.228571 0.8-0.342857 1.6-0.457142 2.4 0 0.114286 0 0.342857-0.114286 0.457143-0.685714 3.428571-1.028571 6.857143-1.142857 10.4v3.771429c0 0.571429 0 1.142857 0.114285 1.714286 0 0.571429 0 1.028571 0.114286 1.6 0 0.571429 0.114286 1.142857 0.114286 1.714285 0 0.685714 0.114286 1.371429 0.228571 2.057143 0 0.342857 0.114286 0.685714 0.114286 1.028572l0.342857 2.857142v0.114286c5.828571 34.857143 36.8 61.142857 73.142857 61.142857h48.571429V1001.142857h790.514286V628.914286h49.6c9.828571 0 19.314286-1.942857 28-5.6s16.8-9.028571 23.771428-15.885715a72.685714 72.685714 0 0 0 21.371429-51.771428c0-16.8-5.714286-32.914286-16.342857-45.942857zM582.057143 918.857143H454.057143V685.714286h128v233.142857z m249.028571-372.228572V918.857143H655.2V658.285714c0-25.257143-20.457143-45.714286-45.714286-45.714285H426.628571c-25.257143 0-45.714286 20.457143-45.714285 45.714285v260.571429H205.028571V546.628571h-109.714285l422.857143-422.514285 26.4 26.4L940.914286 546.628571h-109.828572z"  /></svg>