<?xml version="1.0" standalone="no"?><!DOCTYPE svg PUBLIC "-//W3C//DTD SVG 1.1//EN" "http://www.w3.org/Graphics/SVG/1.1/DTD/svg11.dtd"><svg class="icon" width="200px" height="200.00px" viewBox="0 0 1024 1024" version="1.1" xmlns="http://www.w3.org/2000/svg"><path d="M512 553.142857c-48.228571 0-93.6 18.742857-127.657143 52.914286A179.005714 179.005714 0 0 0 331.428571 733.714286v153.142857h361.142858V733.714286c0-48.228571-18.742857-93.6-52.914286-127.657143A179.005714 179.005714 0 0 0 512 553.142857zM331.428571 290.285714c0 48.228571 18.742857 93.6 52.914286 127.657143C418.4 452.114286 463.771429 470.857143 512 470.857143s93.6-18.742857 127.657143-52.914286C673.828571 383.885714 692.571429 338.514286 692.571429 290.285714V137.142857H331.428571v153.142857z" fill="#D9D9D9" /><path d="M774.857143 290.285714V137.142857h98.285714c5.028571 0 9.142857-4.114286 9.142857-9.142857v-64c0-5.028571-4.114286-9.142857-9.142857-9.142857H150.857143c-5.028571 0-9.142857 4.114286-9.142857 9.142857v64c0 5.028571 4.114286 9.142857 9.142857 9.142857h98.285714v153.142857c0 93.142857 48.457143 175.085714 121.6 221.714286-73.142857 46.628571-121.6 128.571429-121.6 221.714286v153.142857h-98.285714c-5.028571 0-9.142857 4.114286-9.142857 9.142857v64c0 5.028571 4.114286 9.142857 9.142857 9.142857h722.285714c5.028571 0 9.142857-4.114286 9.142857-9.142857v-64c0-5.028571-4.114286-9.142857-9.142857-9.142857h-98.285714V733.714286c0-93.142857-48.457143-175.085714-121.6-221.714286 73.142857-46.628571 121.6-128.571429 121.6-221.714286z m-82.285714 443.428572v153.142857H331.428571V733.714286c0-48.228571 18.742857-93.6 52.914286-127.657143C418.4 571.885714 463.771429 553.142857 512 553.142857s93.6 18.742857 127.657143 52.914286C673.828571 640.114286 692.571429 685.485714 692.571429 733.714286z m0-443.428572c0 48.228571-18.742857 93.6-52.914286 127.657143C605.6 452.114286 560.228571 470.857143 512 470.857143s-93.6-18.742857-127.657143-52.914286A179.005714 179.005714 0 0 1 331.428571 290.285714V137.142857h361.142858v153.142857z"  /></svg>