<?xml version="1.0" standalone="no"?><!DOCTYPE svg PUBLIC "-//W3C//DTD SVG 1.1//EN" "http://www.w3.org/Graphics/SVG/1.1/DTD/svg11.dtd"><svg class="icon" width="200px" height="200.00px" viewBox="0 0 1024 1024" version="1.1" xmlns="http://www.w3.org/2000/svg"><path d="M92.571429 36.571429l75.428571 853.257142L511.771429 987.428571l342.4-97.6L931.085714 36.571429H92.571429z m698.171428 800.685714l-278.971428 79.542857-280.228572-79.542857-64.8-732.8h690.057143l-66.057143 732.8z" fill="#333333" /><path d="M166.742857 104.457143l64.8 732.8 280.228572 79.542857 278.971428-79.542857 66.057143-732.8H166.742857z m606.171429 134.742857l-5.485715 53.942857-1.942857 22.285714H363.085714l9.371429 107.657143H510.857143v-0.228571h245.371428l-3.657142 27.771428-24.228572 276.8-1.942857 18.628572-214.514286 59.085714v0.457143h-1.942857l-215.542857-59.428571-12.914286-165.371429h104l7.428572 83.657143 117.028571 31.657143h0.914286v-0.228572l117.028571-31.657143 13.028572-135.428571H511.885714v0.114286H275.885714l-25.942857-289.714286L248 211.428571h526.857143l-1.942857 27.771429z" fill="#E6E6E6" /><path d="M248 211.428571l1.942857 27.771429 25.942857 289.714286h236v-0.114286h129.028572l-13.028572 135.428571L510.857143 695.885714v0.228572h-0.914286l-117.028571-31.657143-7.428572-83.657143h-104l12.914286 165.371429 215.542857 59.428571h1.942857v-0.457143l214.514286-59.085714 1.942857-18.628572 24.228572-276.8 3.657142-27.771428H510.857143v0.228571H372.457143l-9.371429-107.657143h402.4l1.942857-22.285714 5.485715-53.942857L774.857143 211.428571H510.857143z" fill="#333333" /></svg>