<?xml version="1.0" standalone="no"?><!DOCTYPE svg PUBLIC "-//W3C//DTD SVG 1.1//EN" "http://www.w3.org/Graphics/SVG/1.1/DTD/svg11.dtd"><svg class="icon" width="200px" height="200.00px" viewBox="0 0 1024 1024" version="1.1" xmlns="http://www.w3.org/2000/svg"><path d="M987.428571 109.714286H36.571429c-20.228571 0-36.571429 16.342857-36.571429 36.571428v731.428572c0 20.228571 16.342857 36.571429 36.571429 36.571428h950.857142c20.228571 0 36.571429-16.342857 36.571429-36.571428V146.285714c0-20.228571-16.342857-36.571429-36.571429-36.571428z m-45.714285 722.285714H82.285714V192h859.428572v640z" fill="#333333" /><path d="M82.285714 832h859.428572V192H82.285714v640z m539.428572-425.142857c0-5.028571 1.142857-9.142857 2.628571-9.142857h141.028572c1.485714 0 2.628571 4.114286 2.628571 9.142857v54.857143c0 5.028571-1.142857 9.142857-2.628571 9.142857H624.342857c-1.485714 0-2.628571-4.114286-2.628571-9.142857v-54.857143z m0 164.571428c0-5.028571 3.657143-9.142857 8.114285-9.142857h212.228572c4.457143 0 8.114286 4.114286 8.114286 9.142857v54.857143c0 5.028571-3.657143 9.142857-8.114286 9.142857H629.828571c-4.457143 0-8.114286-4.114286-8.114285-9.142857v-54.857143zM173.942857 686.4c3.2-60.914286 36.457143-113.828571 85.257143-144.114286-20.685714-22.857143-33.257143-53.028571-33.257143-86.285714 0-70.742857 57.028571-128 127.314286-128s127.314286 57.257143 127.314286 128c0 33.257143-12.571429 63.542857-33.257143 86.285714 48.685714 30.171429 82.057143 83.2 85.257143 144.114286a9.142857 9.142857 0 0 1-9.142858 9.6h-50.171428c-4.8 0-8.685714-3.771429-9.028572-8.571429-4.342857-57.714286-52.571429-103.428571-111.085714-103.428571s-106.742857 45.714286-111.085714 103.428571c-0.342857 4.8-4.228571 8.571429-9.028572 8.571429H182.857143c-5.257143 0-9.371429-4.342857-8.914286-9.6z" fill="#E6E6E6" /><path d="M294.057143 456a59.428571 59.085714 90 1 0 118.171428 0 59.428571 59.085714 90 1 0-118.171428 0z" fill="#E6E6E6" /><path d="M624.342857 470.857143h141.028572c1.485714 0 2.628571-4.114286 2.628571-9.142857v-54.857143c0-5.028571-1.142857-9.142857-2.628571-9.142857H624.342857c-1.485714 0-2.628571 4.114286-2.628571 9.142857v54.857143c0 5.028571 1.142857 9.142857 2.628571 9.142857z m5.485714 164.571428h212.228572c4.457143 0 8.114286-4.114286 8.114286-9.142857v-54.857143c0-5.028571-3.657143-9.142857-8.114286-9.142857H629.828571c-4.457143 0-8.114286 4.114286-8.114285 9.142857v54.857143c0 5.028571 3.657143 9.142857 8.114285 9.142857zM182.857143 696h50.171428c4.8 0 8.685714-3.771429 9.028572-8.571429 4.342857-57.714286 52.571429-103.428571 111.085714-103.428571s106.742857 45.714286 111.085714 103.428571c0.342857 4.8 4.228571 8.571429 9.028572 8.571429H523.428571a9.142857 9.142857 0 0 0 9.142858-9.6c-3.2-60.914286-36.571429-113.942857-85.257143-144.114286a127.771429 127.771429 0 0 0 33.257143-86.285714c0-70.742857-57.028571-128-127.314286-128s-127.314286 57.257143-127.314286 128c0 33.257143 12.571429 63.428571 33.257143 86.285714a180.674286 180.674286 0 0 0-85.257143 144.114286c-0.457143 5.257143 3.657143 9.6 8.914286 9.6z m170.285714-299.428571c32.571429 0 59.085714 26.628571 59.085714 59.428571s-26.514286 59.428571-59.085714 59.428571-59.085714-26.628571-59.085714-59.428571 26.514286-59.428571 59.085714-59.428571z" fill="#333333" /></svg>