<?xml version="1.0" standalone="no"?><!DOCTYPE svg PUBLIC "-//W3C//DTD SVG 1.1//EN" "http://www.w3.org/Graphics/SVG/1.1/DTD/svg11.dtd"><svg class="icon" width="200px" height="200.00px" viewBox="0 0 1024 1024" version="1.1" xmlns="http://www.w3.org/2000/svg"><path d="M512 0C229.257143 0 0 229.257143 0 512s229.257143 512 512 512 512-229.257143 512-512S794.742857 0 512 0z m0 937.142857c-234.742857 0-425.142857-190.4-425.142857-425.142857s190.4-425.142857 425.142857-425.142857 425.142857 190.4 425.142857 425.142857-190.4 425.142857-425.142857 425.142857z" fill="#333333" /><path d="M512 86.857143c-234.742857 0-425.142857 190.4-425.142857 425.142857s190.4 425.142857 425.142857 425.142857 425.142857-190.4 425.142857-425.142857-190.4-425.142857-425.142857-425.142857z m36.571429 672c0 5.028571-4.114286 9.142857-9.142858 9.142857h-54.857142c-5.028571 0-9.142857-4.114286-9.142858-9.142857V448c0-5.028571 4.114286-9.142857 9.142858-9.142857h54.857142c5.028571 0 9.142857 4.114286 9.142858 9.142857v310.857143z m-36.571429-393.142857a54.868571 54.868571 0 0 1 0-109.714286 54.868571 54.868571 0 0 1 0 109.714286z" fill="#E6E6E6" /><path d="M457.142857 310.857143a54.857143 54.857143 0 1 0 109.714286 0 54.857143 54.857143 0 1 0-109.714286 0z m82.285714 128h-54.857142c-5.028571 0-9.142857 4.114286-9.142858 9.142857v310.857143c0 5.028571 4.114286 9.142857 9.142858 9.142857h54.857142c5.028571 0 9.142857-4.114286 9.142858-9.142857V448c0-5.028571-4.114286-9.142857-9.142858-9.142857z" fill="#333333" /></svg>