<?xml version="1.0" standalone="no"?><!DOCTYPE svg PUBLIC "-//W3C//DTD SVG 1.1//EN" "http://www.w3.org/Graphics/SVG/1.1/DTD/svg11.dtd"><svg class="icon" width="200px" height="200.00px" viewBox="0 0 1024 1024" version="1.1" xmlns="http://www.w3.org/2000/svg"><path d="M906.976198 131.213564L528.80513 2.337137C524.242148 0.779046 518.121074 0 512 0s-12.242148 0.779046-16.80513 2.337137L117.023802 131.213564c-9.237257 3.116183-16.80513 13.800239-16.80513 23.593957v536.873818c0 9.793718 6.343658 22.703619 14.022823 28.824693L497.865884 1019.437018c3.895229 3.004891 8.90338 4.562982 14.022824 4.562982s10.238887-1.558092 14.022823-4.562982l383.624389-298.930986c7.679165-6.009782 14.022824-18.919683 14.022824-28.824693V154.807521c0.222585-9.793718-7.345289-20.366482-16.582546-23.593957zM843.650908 670.313227L512 928.733833 180.349092 670.313227V194.427562l331.650908-113.072927 331.650908 113.072927v475.885665z" fill="#333333" /><path d="M523.017933 341.444626h108.955113v46.297576h-108.955113z" fill="#E6E6E6" /><path d="M180.349092 194.427562v475.885665l331.650908 258.420606 331.650908-258.420606V194.427562L512 81.354635 180.349092 194.427562zM402.154548 672.205195h-0.222584c0 4.896859-4.006521 8.90338-8.90338 8.90338h-41.51201c-4.896859 0-8.90338-4.006521-8.90338-8.90338V466.7597c-8.569503 10.238887-17.139007 19.921313-25.70851 28.935985a6.722052 6.722052 0 0 1-11.351809-2.671014l-14.690577-48.412129c-0.667754-2.225845-0.222585-4.562982 1.335507-6.232366 41.178133-48.300837 72.006086-105.838931 91.48223-170.944897 1.224215-3.895229 5.564613-5.898489 9.348549-4.117814l42.958809 20.366482c3.004891 1.446799 4.562982 4.896859 3.561352 8.013042a477.666341 477.666341 0 0 1-37.394197 87.920879V672.205195z m287.022715-378.393653v141.563743c0 4.896859-4.006521 8.90338-8.90338 8.90338h-74.231931v20.700359h109.956744c4.896859 0 8.90338 4.006521 8.90338 8.90338v39.620041c0 4.896859-4.006521 8.90338-8.90338 8.90338h-65.662428c20.143897 32.386045 46.520161 60.431692 80.464297 85.583741 2.893599 2.337137 3.561352 6.566243 1.335507 9.459842l-29.269862 39.286164a6.588501 6.588501 0 0 1-9.90501 0.779046c-34.055429-32.608629-63.213998-72.562548-86.919248-118.971416V672.205195c0 4.896859-4.006521 8.90338-8.90338 8.90338h-40.287795c-4.896859 0-8.90338-4.006521-8.90338-8.90338V538.654494c-24.484295 49.747636-54.533203 89.924139-89.701554 119.750462a7.100446 7.100446 0 0 1-5.342028 1.558091c-1.891968-0.333877-3.561352-1.446799-4.562982-3.116183L422.966199 616.225193a6.677535 6.677535 0 0 1 1.780676-9.014672c31.829584-22.592327 57.760678-50.304097 79.017498-84.582111h-61.32203c-4.896859 0-8.90338-4.006521-8.90338-8.90338V474.104989c0-4.896859 4.006521-8.90338 8.90338-8.90338h105.616346v-20.700359h-73.341593c-4.896859 0-8.90338-4.006521-8.90338-8.90338V293.811542c0-4.896859 4.006521-8.90338 8.90338-8.90338h205.556787c4.896859 0 8.90338 4.006521 8.90338 8.90338z" fill="#E6E6E6" /><path d="M435.987393 283.683947l-42.958809-20.366482c-3.783937-1.780676-8.124334 0.222585-9.348549 4.117814-19.476144 65.105967-50.304097 122.64406-91.48223 170.944897a6.343658 6.343658 0 0 0-1.335507 6.232366l14.690577 48.412129c1.558092 5.008151 7.790458 6.454951 11.351809 2.671014 8.569503-9.014672 17.139007-18.697098 25.70851-28.935985V672.205195c0 4.896859 4.006521 8.90338 8.90338 8.90338h41.51201c4.896859 0 8.90338-4.006521 8.90338-8.90338h0.222584V379.617868a477.666341 477.666341 0 0 0 37.394197-87.920879c1.00163-3.116183-0.556461-6.566243-3.561352-8.013042z m29.826323 10.127595v141.786328c0 4.896859 4.006521 8.90338 8.90338 8.90338h73.341593V465.201609h-105.616346c-4.896859 0-8.90338 4.006521-8.90338 8.90338v39.620041c0 4.896859 4.006521 8.90338 8.90338 8.90338h61.32203c-21.25682 34.278013-47.187914 61.989784-79.017498 84.582111a6.677535 6.677535 0 0 0-1.780676 9.014672l25.374634 40.621671c1.00163 1.669384 2.671014 2.782306 4.562982 3.116183 1.891968 0.333877 3.895229-0.222585 5.342028-1.558091 35.168351-29.826323 65.217259-70.002826 89.701554-119.750462v133.550701c0 4.896859 4.006521 8.90338 8.90338 8.90338h40.287795c4.896859 0 8.90338-4.006521 8.90338-8.90338V538.543202c23.705249 46.408869 52.863819 86.362787 86.919248 118.971416 2.893599 2.782306 7.456581 2.44843 9.90501-0.779046l29.269862-39.286164c2.225845-2.893599 1.558092-7.122704-1.335507-9.459842-33.944137-25.152049-60.3204-53.197696-80.464297-85.583741h65.662428c4.896859 0 8.90338-4.006521 8.90338-8.90338v-39.620041c0-4.896859-4.006521-8.90338-8.90338-8.90338h-109.956744v-20.700359h74.231931c4.896859 0 8.90338-4.006521 8.90338-8.90338V293.811542c0-4.896859-4.006521-8.90338-8.90338-8.90338H474.717096c-4.896859 0-8.90338 4.006521-8.90338 8.90338z m57.204217 47.633084h108.955113v46.297576h-108.955113v-46.297576z" fill="#333333" /></svg>