<?xml version="1.0" standalone="no"?><!DOCTYPE svg PUBLIC "-//W3C//DTD SVG 1.1//EN" "http://www.w3.org/Graphics/SVG/1.1/DTD/svg11.dtd"><svg class="icon" width="200px" height="200.00px" viewBox="0 0 1024 1024" version="1.1" xmlns="http://www.w3.org/2000/svg"><path d="M932.571429 54.857143H91.428571c-20.228571 0-36.571429 16.342857-36.571428 36.571428v841.142858c0 20.228571 16.342857 36.571429 36.571428 36.571428h841.142858c20.228571 0 36.571429-16.342857 36.571428-36.571428V91.428571c0-20.228571-16.342857-36.571429-36.571428-36.571428z m-45.714286 832H137.142857V137.142857h749.714286v749.714286z" fill="#333333" /><path d="M137.142857 886.857143h749.714286V137.142857H137.142857v749.714286z m130.285714-459.314286c0-63.2 50.971429-114.4 113.942858-114.4h235.2v-61.028571c0-6.4 7.428571-10.057143 12.457142-6.057143L753.714286 344c4 3.085714 4 9.142857 0 12.228571l-124.685715 97.942858c-5.028571 4-12.457143 0.457143-12.457142-6.057143v-61.028572H381.485714c-22.4 0-40.571429 18.171429-40.571428 40.685715v90.171428c0 4.342857-3.542857 7.771429-7.771429 7.771429h-57.942857c-4.342857 0-7.771429-3.428571-7.771429-8v-90.171429z m2.971429 240.342857l124.685714-97.942857c5.028571-4 12.457143-0.457143 12.457143 6.057143v61.028571h234.971429c22.4 0 40.571429-18.171429 40.571428-40.685714v-90.171428c0-4.342857 3.542857-7.771429 7.771429-7.771429h57.942857c4.342857 0 7.771429 3.542857 7.771429 7.771429v90.171428c0 63.2-50.971429 114.4-113.942858 114.4H407.542857v61.028572c0 6.4-7.428571 10.057143-12.457143 6.057142l-124.685714-97.942857c-4-3.085714-4-9.142857 0-12z" fill="#E6E6E6" /><path d="M275.2 525.714286h57.942857c4.228571 0 7.771429-3.428571 7.771429-7.771429v-90.171428c0-22.514286 18.171429-40.685714 40.571428-40.685715h235.085715v61.028572c0 6.514286 7.428571 10.057143 12.457142 6.057143l124.685715-97.942858c4-3.085714 4-9.142857 0-12.228571l-124.685715-97.942857c-5.028571-4-12.457143-0.342857-12.457142 6.057143V313.142857H381.371429c-62.971429 0-113.942857 51.2-113.942858 114.4V517.714286c0 4.571429 3.428571 8 7.771429 8z m-4.8 154.171428l124.685714 97.942857c5.028571 4 12.457143 0.342857 12.457143-6.057142v-61.028572h235.085714c62.971429 0 113.942857-51.2 113.942858-114.4v-90.171428c0-4.228571-3.428571-7.771429-7.771429-7.771429h-57.942857c-4.228571 0-7.771429 3.428571-7.771429 7.771429v90.171428c0 22.514286-18.171429 40.685714-40.571428 40.685714H407.542857V576c0-6.514286-7.428571-10.057143-12.457143-6.057143l-124.685714 97.942857c-4 2.857143-4 8.914286 0 12z" fill="#333333" /></svg>