<?xml version="1.0" standalone="no"?><!DOCTYPE svg PUBLIC "-//W3C//DTD SVG 1.1//EN" "http://www.w3.org/Graphics/SVG/1.1/DTD/svg11.dtd"><svg class="icon" width="200px" height="200.00px" viewBox="0 0 1024 1024" version="1.1" xmlns="http://www.w3.org/2000/svg"><path d="M365.714286 138.285714h521.142857v155.428572H365.714286z m-228.571429 0h155.428572v749.714286H137.142857z m795.428572-83.428571H91.428571c-20.228571 0-36.571429 16.342857-36.571428 36.571428v1.142858c0-20.228571 16.342857-36.571429 36.571428-36.571429h841.142858c20.228571 0 36.571429 16.342857 36.571428 36.571429v-1.142858c0-20.228571-16.342857-36.571429-36.571428-36.571428zM365.714286 366.857143h521.142857v521.142857H365.714286z" fill="#D9D9D9" /><path d="M932.571429 56H91.428571c-20.228571 0-36.571429 16.342857-36.571428 36.571429v841.142857c0 20.228571 16.342857 36.571429 36.571428 36.571428h841.142858c20.228571 0 36.571429-16.342857 36.571428-36.571428V92.571429c0-20.228571-16.342857-36.571429-36.571428-36.571429zM292.571429 888H137.142857V138.285714h155.428572v749.714286z m594.285714 0H365.714286V366.857143h521.142857v521.142857z m0-594.285714H365.714286V138.285714h521.142857v155.428572z"  /></svg>