<?xml version="1.0" standalone="no"?><!DOCTYPE svg PUBLIC "-//W3C//DTD SVG 1.1//EN" "http://www.w3.org/Graphics/SVG/1.1/DTD/svg11.dtd"><svg class="icon" width="200px" height="200.00px" viewBox="0 0 1024 1024" version="1.1" xmlns="http://www.w3.org/2000/svg"><path d="M238.857143 493.6v489.142857l0.342857-489.142857z m615.085714-100.914286H494.628571l10.971429-226.742857c0.685714-13.6-5.371429-26.4-16.685714-34.857143-6.971429-5.142857-15.542857-7.771429-24.114286-7.657143-22.4 0.114286-42.171429 15.314286-48.228571 36.914286-42.4 153.6-74.171429 268.8-95.428572 345.714286V900.571429h456.457143a64.971429 64.971429 0 0 0 38.4-59.2c0-11.085714-2.628571-21.6-7.885714-31.2l-15.885715-29.028572 25.028572-21.714286a64.868571 64.868571 0 0 0 22.4-49.142857c0-11.085714-2.628571-21.6-7.885714-31.2l-15.885715-29.028571 25.028572-21.714286a64.868571 64.868571 0 0 0 22.4-49.142857c0-11.085714-2.628571-21.6-7.885715-31.2l-16-29.142857 25.028572-21.714286a64.868571 64.868571 0 0 0 22.4-49.142857c0-21.828571-12.571429-42.857143-32.914286-55.314286z" fill="#D9D9D9" /><path d="M54.857143 530.285714v416c0 20.228571 16.342857 36.571429 36.571428 36.571429h74.285715V493.714286h-74.285715c-20.228571 0-36.571429 16.342857-36.571428 36.571428z m884.457143 6.514286c19.2-25.371429 29.828571-56.457143 29.828571-88.8 0-51.314286-28.685714-100-74.857143-126.857143a77.337143 77.337143 0 0 0-39.2-10.628571H580.914286l6.857143-140.457143c1.714286-33.942857-10.285714-66.171429-33.714286-90.742857a121.6 121.6 0 0 0-89.028572-38.171429c-59.428571 0-112 40-127.771428 97.257143l-98.057143 355.2-0.342857 489.142857h539.542857c10.628571 0 20.8-2.057143 30.285714-6.171428 54.4-23.2 89.485714-76.342857 89.485715-135.314286 0-14.4-2.057143-28.571429-6.171429-42.285714 19.2-25.371429 29.828571-56.457143 29.828571-88.8 0-14.4-2.057143-28.571429-6.171428-42.285715 19.2-25.371429 29.828571-56.457143 29.828571-88.8 0-14.4-2.057143-28.571429-6.171428-42.285714zM864.457143 497.142857l-25.028572 21.714286 16 29.142857a64.228571 64.228571 0 0 1 7.885715 31.2c0 18.857143-8.114286 36.8-22.4 49.142857l-25.028572 21.714286 15.885715 29.028571a64.228571 64.228571 0 0 1 7.885714 31.2c0 18.857143-8.114286 36.8-22.4 49.142857l-25.028572 21.714286 15.885715 29.028572a64.228571 64.228571 0 0 1 7.885714 31.2c0 25.6-15.085714 48.685714-38.4 59.2H321.142857V506.057143c21.257143-76.8 53.028571-192 95.428572-345.714286a50.605714 50.605714 0 0 1 48.228571-36.914286c8.571429-0.114286 17.142857 2.514286 24.114286 7.657143 11.314286 8.457143 17.371429 21.257143 16.685714 34.857143l-10.971429 226.742857h359.314286C874.285714 405.142857 886.857143 426.171429 886.857143 448c0 18.857143-8.114286 36.8-22.4 49.142857z"  /></svg>