<?xml version="1.0" standalone="no"?><!DOCTYPE svg PUBLIC "-//W3C//DTD SVG 1.1//EN" "http://www.w3.org/Graphics/SVG/1.1/DTD/svg11.dtd"><svg class="icon" width="200px" height="200.00px" viewBox="0 0 1024 1024" version="1.1" xmlns="http://www.w3.org/2000/svg"><path d="M472.571429 539.771429L82.171429 236.228571l-31.428572-24.457142 31.542857 24.571428V832h859.428572V236.342857L551.085714 539.771429a63.988571 63.988571 0 0 1-78.514285 0z" fill="#D9D9D9" /><path d="M928.342857 154.057143l44.914286 57.714286-31.542857 24.571428 31.657143-24.571428-44.914286-57.714286z" fill="#D9D9D9" /><path d="M987.428571 109.714286H36.571429c-20.228571 0-36.571429 16.342857-36.571429 36.571428v731.428572c0 20.228571 16.342857 36.571429 36.571429 36.571428h950.857142c20.228571 0 36.571429-16.342857 36.571429-36.571428V146.285714c0-20.228571-16.342857-36.571429-36.571429-36.571428z m-108 82.4L512 477.714286 144.571429 192.114286h734.857142z m62.285715 44.228571V832H82.285714V236.342857l-31.542857-24.571428 31.428572 24.457142 390.4 303.542858a63.988571 63.988571 0 0 0 78.514285 0L941.714286 236.342857l31.542857-24.571428-44.914286-57.714286h0.114286l44.914286 57.714286-31.657143 24.571428z"  /></svg>