<?xml version="1.0" standalone="no"?><!DOCTYPE svg PUBLIC "-//W3C//DTD SVG 1.1//EN" "http://www.w3.org/Graphics/SVG/1.1/DTD/svg11.dtd"><svg class="icon" width="200px" height="200.00px" viewBox="0 0 1024 1024" version="1.1" xmlns="http://www.w3.org/2000/svg"><path d="M206.057143 301.714286L137.142857 513.6V886.857143h749.714286V513.6L817.942857 301.714286H206.057143zM681.142857 644.571429c0 5.028571-4.114286 9.142857-9.142857 9.142857H548.571429v123.428571c0 5.028571-4.114286 9.142857-9.142858 9.142857h-54.857142c-5.028571 0-9.142857-4.114286-9.142858-9.142857V653.714286H352c-5.028571 0-9.142857-4.114286-9.142857-9.142857v-54.857143c0-5.028571 4.114286-9.142857 9.142857-9.142857h123.428571V457.142857c0-5.028571 4.114286-9.142857 9.142858-9.142857h54.857142c5.028571 0 9.142857 4.114286 9.142858 9.142857v123.428572h123.428571c5.028571 0 9.142857 4.114286 9.142857 9.142857v54.857143z" fill="#D9D9D9" /><path d="M672 580.571429H548.571429V457.142857c0-5.028571-4.114286-9.142857-9.142858-9.142857h-54.857142c-5.028571 0-9.142857 4.114286-9.142858 9.142857v123.428572H352c-5.028571 0-9.142857 4.114286-9.142857 9.142857v54.857143c0 5.028571 4.114286 9.142857 9.142857 9.142857h123.428571v123.428571c0 5.028571 4.114286 9.142857 9.142858 9.142857h54.857142c5.028571 0 9.142857-4.114286 9.142858-9.142857V653.714286h123.428571c5.028571 0 9.142857-4.114286 9.142857-9.142857v-54.857143c0-5.028571-4.114286-9.142857-9.142857-9.142857z"  /><path d="M885.942857 244.685714a36.571429 36.571429 0 0 0-34.742857-25.257143H768V91.428571c0-20.228571-16.342857-36.571429-36.571429-36.571428H292.571429c-20.228571 0-36.571429 16.342857-36.571429 36.571428v128h-83.2a36.457143 36.457143 0 0 0-34.742857 25.257143L54.857143 500.571429v432c0 20.228571 16.342857 36.571429 36.571428 36.571428h841.142858c20.228571 0 36.571429-16.342857 36.571428-36.571428V500.571429l-83.2-255.885715zM338.285714 137.142857h347.428572v82.285714H338.285714v-82.285714z m548.571429 749.714286H137.142857V513.6L206.057143 301.714286h611.885714L886.857143 513.6V886.857143z"  /></svg>