<?xml version="1.0" standalone="no"?><!DOCTYPE svg PUBLIC "-//W3C//DTD SVG 1.1//EN" "http://www.w3.org/Graphics/SVG/1.1/DTD/svg11.dtd"><svg class="icon" width="200px" height="200.00px" viewBox="0 0 1024 1024" version="1.1" xmlns="http://www.w3.org/2000/svg"><path d="M777.142857 0H246.857143c-40.342857 0-73.142857 32.8-73.142857 73.142857v877.714286c0 40.342857 32.8 73.142857 73.142857 73.142857h530.285714c40.342857 0 73.142857-32.8 73.142857-73.142857V73.142857c0-40.342857-32.8-73.142857-73.142857-73.142857z m-9.142857 941.714286H256V82.285714h512v859.428572z" fill="#333333" /><path d="M256 941.714286h512V82.285714H256v859.428572z m256-162.285715c25.257143 0 45.714286 20.457143 45.714286 45.714286s-20.457143 45.714286-45.714286 45.714286-45.714286-20.457143-45.714286-45.714286 20.457143-45.714286 45.714286-45.714286z" fill="#E6E6E6" /><path d="M466.285714 825.142857a45.714286 45.714286 0 1 0 91.428572 0 45.714286 45.714286 0 1 0-91.428572 0z" fill="#333333" /></svg>