<?xml version="1.0" standalone="no"?><!DOCTYPE svg PUBLIC "-//W3C//DTD SVG 1.1//EN" "http://www.w3.org/Graphics/SVG/1.1/DTD/svg11.dtd"><svg class="icon" width="200px" height="200.00px" viewBox="0 0 1024 1024" version="1.1" xmlns="http://www.w3.org/2000/svg"><path d="M219.428571 777.6l292.571429 106.4 292.571429-106.4V137.142857H219.428571v640.457143zM337.942857 284.571429c1.371429-0.8 2.857143-1.142857 4.342857-1.142858h63.657143a9.142857 9.142857 0 0 1 8.114286 5.028572L510.857143 481.371429h3.771428L611.428571 288.457143c1.485714-3.085714 4.685714-5.028571 8.114286-5.028572h62.285714c5.028571 0 9.142857 4.114286 9.257143 9.028572 0 1.485714-0.457143 2.971429-1.142857 4.342857L571.428571 515.771429h65.828572c5.028571 0 9.142857 4.114286 9.142857 9.142857v30.971428c0 5.028571-4.114286 9.142857-9.142857 9.142857h-87.2v44.571429h87.2c5.028571 0 9.142857 4.114286 9.142857 9.142857v30.971429c0 5.028571-4.114286 9.142857-9.142857 9.142857h-87.2V731.428571c0 5.028571-4.114286 9.142857-9.142857 9.142858h-57.028572c-5.028571 0-9.142857-4.114286-9.142857-9.142858v-72.457142h-86.857143c-5.028571 0-9.142857-4.114286-9.142857-9.142858v-30.971428c0-5.028571 4.114286-9.142857 9.142857-9.142857h86.857143v-44.571429h-86.857143c-5.028571 0-9.142857-4.114286-9.142857-9.142857v-30.971429c0-5.028571 4.114286-9.142857 9.142857-9.142857h65.142857L334.285714 296.914286c-2.4-4.342857-0.8-9.942857 3.657143-12.342857z" fill="#D9D9D9" /><path d="M968.571429 727.657143a9.142857 9.142857 0 0 0-11.771429-5.485714L886.857143 747.657143V132.571429c0-42.971429-34.742857-77.714286-77.714286-77.714286H214.857143c-42.971429 0-77.714286 34.742857-77.714286 77.714286v615.085714l-70.057143-25.485714c-1.028571-0.342857-2.057143-0.571429-3.085714-0.571429-5.028571 0-9.142857 4.114286-9.142857 9.142857V798.857143c0 3.771429 2.4 7.2 6.057143 8.571428L499.428571 966.971429c8.114286 2.971429 16.914286 2.971429 25.028572 0l438.628571-159.428572c3.657143-1.371429 6.057143-4.8 6.057143-8.571428v-68.114286c0-1.142857-0.228571-2.171429-0.571428-3.2zM804.571429 777.6l-292.571429 106.4-292.571429-106.4V137.142857h585.142858v640.457143z"  /><path d="M453.028571 515.885714h-65.142857c-5.028571 0-9.142857 4.114286-9.142857 9.142857v30.971429c0 5.028571 4.114286 9.142857 9.142857 9.142857h86.857143v44.571429h-86.857143c-5.028571 0-9.142857 4.114286-9.142857 9.142857v30.971428c0 5.028571 4.114286 9.142857 9.142857 9.142858h86.857143V731.428571c0 5.028571 4.114286 9.142857 9.142857 9.142858h57.028572c5.028571 0 9.142857-4.114286 9.142857-9.142858v-72.571428h87.2c5.028571 0 9.142857-4.114286 9.142857-9.142857v-30.971429c0-5.028571-4.114286-9.142857-9.142857-9.142857h-87.2v-44.571429h87.2c5.028571 0 9.142857-4.114286 9.142857-9.142857v-30.971428c0-5.028571-4.114286-9.142857-9.142857-9.142857H571.428571l118.514286-218.971429c0.685714-1.371429 1.142857-2.857143 1.142857-4.342857-0.114286-4.914286-4.228571-9.028571-9.257143-9.028572h-62.285714c-3.428571 0-6.628571 1.942857-8.114286 5.028572l-96.8 192.914286H510.857143l-96.8-192.914286a9.142857 9.142857 0 0 0-8.114286-5.028572h-63.657143c-1.485714 0-2.971429 0.342857-4.342857 1.142858-4.457143 2.4-6.057143 8-3.657143 12.342857l118.742857 218.971428z"  /></svg>