<?xml version="1.0" standalone="no"?><!DOCTYPE svg PUBLIC "-//W3C//DTD SVG 1.1//EN" "http://www.w3.org/Graphics/SVG/1.1/DTD/svg11.dtd"><svg class="icon" width="200px" height="200.00px" viewBox="0 0 1024 1024" version="1.1" xmlns="http://www.w3.org/2000/svg"><path d="M189.257143 701.828571c-4.228571 13.257143-6.4 27.314286-6.4 41.6 0-14.285714 2.285714-28.342857 6.514286-41.6h-0.114286z m87.2-297.371428H137.142857v215.085714h139.314286l14.742857 5.942857L886.857143 864.8V159.2L291.2 398.514286z" fill="#D9D9D9" /><path d="M932.571429 54.857143c-4.342857 0-8.8 0.8-13.257143 2.628571L260.571429 322.171429H73.142857c-10.057143 0-18.285714 8.457143-18.285714 18.971428v341.714286c0 10.514286 8.228571 18.971429 18.285714 18.971428h116.228572c-4.228571 13.257143-6.514286 27.314286-6.514286 41.6 0 75.314286 61.485714 136.571429 137.142857 136.571429 63.314286 0 116.685714-42.971429 132.457143-101.028571l466.971428 187.657142c4.457143 1.714286 8.914286 2.628571 13.257143 2.628572 19.314286 0 36.571429-16.228571 36.571429-37.942857V92.8C969.142857 71.085714 952 54.857143 932.571429 54.857143zM320 798.057143c-30.285714 0-54.857143-24.457143-54.857143-54.628572 0-12.8 4.457143-25.028571 12.571429-34.742857l97.028571 38.971429c-2.285714 28.114286-25.942857 50.4-54.742857 50.4z m566.857143 66.742857L291.2 625.485714l-14.742857-5.942857H137.142857V404.457143h139.314286l14.742857-5.942857L886.857143 159.2v705.6z"  /></svg>