<?xml version="1.0" standalone="no"?><!DOCTYPE svg PUBLIC "-//W3C//DTD SVG 1.1//EN" "http://www.w3.org/Graphics/SVG/1.1/DTD/svg11.dtd"><svg class="icon" width="200px" height="200.00px" viewBox="0 0 1024 1024" version="1.1" xmlns="http://www.w3.org/2000/svg"><path d="M987.428571 109.714286H36.571429c-20.228571 0-36.571429 16.342857-36.571429 36.571428v731.428572c0 20.228571 16.342857 36.571429 36.571429 36.571428h950.857142c20.228571 0 36.571429-16.342857 36.571429-36.571428V146.285714c0-20.228571-16.342857-36.571429-36.571429-36.571428z m-45.714285 722.285714H82.285714v-45.6l158.285715-187.771429 171.542857 203.428572L678.971429 485.714286 941.714286 797.257143V832z m0-148.342857L685.942857 380.342857c-3.657143-4.342857-10.285714-4.342857-13.942857 0L412.114286 688.457143l-164.571429-195.085714c-3.657143-4.342857-10.285714-4.342857-13.942857 0L82.285714 672.8V192h859.428572v491.657143z" fill="#333333" /><path d="M412.114286 802.057143l-171.542857-203.428572L82.285714 786.4V832h859.428572v-34.742857L678.971429 485.714286z" fill="#E6E6E6" /><path d="M82.285714 672.8l151.314286-179.428571c3.657143-4.342857 10.285714-4.342857 13.942857 0l164.571429 195.085714L672 380.342857c3.657143-4.342857 10.285714-4.342857 13.942857 0L941.714286 683.657143V192H82.285714v480.8zM274.285714 246.857143a100.571429 100.571429 0 1 1 0 201.142857 100.571429 100.571429 0 0 1 0-201.142857z" fill="#E6E6E6" /><path d="M242.285714 347.428571a32 32 0 1 0 64 0 32 32 0 1 0-64 0z" fill="#E6E6E6" /><path d="M274.285714 448a100.571429 100.571429 0 1 0 0-201.142857 100.571429 100.571429 0 0 0 0 201.142857z m0-132.571429c17.714286 0 32 14.285714 32 32s-14.285714 32-32 32-32-14.285714-32-32 14.285714-32 32-32z" fill="#333333" /></svg>