<?xml version="1.0" standalone="no"?><!DOCTYPE svg PUBLIC "-//W3C//DTD SVG 1.1//EN" "http://www.w3.org/Graphics/SVG/1.1/DTD/svg11.dtd"><svg class="icon" width="200px" height="200.00px" viewBox="0 0 1024 1024" version="1.1" xmlns="http://www.w3.org/2000/svg"><path d="M288.228571 978.857143c-54.4-22.971429-103.314286-56-145.257142-97.942857a455.074286 455.074286 0 0 1-97.942858-145.257143A453.851429 453.851429 0 0 1 9.142857 557.942857v0.228572a455.508571 455.508571 0 0 0 133.714286 322.857142c41.942857 41.942857 90.742857 74.857143 145.142857 97.828572A453.302857 453.302857 0 0 0 465.828571 1014.857143c30.857143 0 61.257143-3.085714 91.085715-9.028572-29.6 5.942857-59.885714 8.914286-90.628572 8.914286-61.714286 0.114286-121.6-12-178.057143-35.885714zM566.857143 466.285714c-5.028571 0-9.142857-4.114286-9.142857-9.142857V18.171429c0-1.485714 0.342857-2.857143 1.028571-4.114286-1.028571 1.485714-1.714286 3.314286-1.714286 5.257143v438.514285c0 5.028571 4.114286 9.142857 9.142858 9.142858l438.4-1.142858c1.828571 0 3.542857-0.571429 5.028571-1.485714-1.142857 0.571429-2.514286 0.8-3.885714 0.8l-438.857143 1.142857z" fill="#D9D9D9" /><path d="M635.2 95.542857v293.257143l293.028571-0.8c-14.857143-71.428571-50.628571-137.714286-102.857142-189.828571a379.702857 379.702857 0 0 0-190.171429-102.628572z" fill="#D9D9D9" /><path d="M427.428571 180.228571c-86.742857 8.685714-167.085714 46.742857-229.485714 109.142858C126.285714 361.028571 86.857143 456.342857 86.857143 557.714286s39.428571 196.685714 111.085714 268.342857c71.2 71.2 165.828571 110.628571 266.514286 111.085714 100.8 0.457143 197.371429-38.971429 268.914286-109.942857C796.571429 764.571429 834.971429 683.771429 843.771429 596.571429H427.428571V180.228571z" fill="#D9D9D9" /><path d="M914.285714 518.857143H505.142857V109.714286c0-5.028571-4.114286-9.142857-9.142857-9.142857h-29.714286a455.382857 455.382857 0 0 0-323.2 133.828571 455.074286 455.074286 0 0 0-97.942857 145.257143A454.411429 454.411429 0 0 0 9.142857 557.714286v0.228571c0 61.6 12.114286 121.371429 35.885714 177.714286 22.971429 54.4 56 103.314286 97.942858 145.257143 41.942857 41.942857 90.857143 74.971429 145.257142 97.942857A454.411429 454.411429 0 0 0 466.285714 1014.857143c30.742857 0 61.028571-2.971429 90.628572-8.914286 29.828571-6.057143 59.085714-14.971429 87.314285-26.971428 54.4-22.971429 103.314286-56 145.257143-97.942858 41.942857-41.942857 74.971429-90.857143 97.942857-145.257142A454.411429 454.411429 0 0 0 923.428571 557.714286v-29.714286c0-5.028571-4.114286-9.142857-9.142857-9.142857zM733.371429 827.2A378.96 378.96 0 0 1 464.457143 937.142857c-100.685714-0.457143-195.314286-39.885714-266.514286-111.085714C126.285714 754.4 86.857143 659.085714 86.857143 557.714286s39.428571-196.685714 111.085714-268.342857c62.4-62.4 142.742857-100.457143 229.485714-109.142858V596.571429h416.342858c-8.8 87.2-47.2 168-110.4 230.628571z"  /><path d="M1014.857143 455.314286l-2.971429-32.228572c-9.714286-105.257143-56.457143-204.571429-131.657143-279.542857A456.457143 456.457143 0 0 0 600 12.114286L567.657143 9.142857c-3.885714-0.342857-7.314286 1.714286-8.914286 4.914286a9.942857 9.942857 0 0 0-1.028571 4.114286V457.142857c0 5.028571 4.114286 9.142857 9.142857 9.142857l438.857143-1.142857c1.371429 0 2.628571-0.342857 3.885714-0.8a9.257143 9.257143 0 0 0 5.257143-9.028571z m-379.657143-66.514286V95.542857a379.702857 379.702857 0 0 1 190.171429 102.628572c52.228571 52.114286 88 118.4 102.857142 189.828571l-293.028571 0.8z"  /></svg>