<?xml version="1.0" standalone="no"?><!DOCTYPE svg PUBLIC "-//W3C//DTD SVG 1.1//EN" "http://www.w3.org/Graphics/SVG/1.1/DTD/svg11.dtd"><svg class="icon" width="200px" height="200.00px" viewBox="0 0 1024 1024" version="1.1" xmlns="http://www.w3.org/2000/svg"><path d="M932.571429 54.857143H91.428571c-20.228571 0-36.571429 16.342857-36.571428 36.571428v841.142858c0 20.228571 16.342857 36.571429 36.571428 36.571428h841.142858c20.228571 0 36.571429-16.342857 36.571428-36.571428V91.428571c0-20.228571-16.342857-36.571429-36.571428-36.571428z m-45.714286 832H137.142857V137.142857h749.714286v749.714286z" fill="#333333" /><path d="M137.142857 886.857143h749.714286V137.142857H137.142857v749.714286z m274.285714-553.942857c0-10.742857 12.457143-16.8 20.914286-10.057143l227.885714 179.085714a12.8 12.8 0 0 1 0 20.114286L432.342857 701.257143c-8.457143 6.628571-20.914286 0.685714-20.914286-10.057143V332.914286z" fill="#E6E6E6" /><path d="M432.342857 701.257143l227.885714-179.2a12.8 12.8 0 0 0 0-20.114286L432.342857 322.857143c-8.457143-6.742857-20.914286-0.685714-20.914286 10.057143v358.285714c0 10.742857 12.457143 16.685714 20.914286 10.057143z" fill="#333333" /></svg>