<?xml version="1.0" standalone="no"?><!DOCTYPE svg PUBLIC "-//W3C//DTD SVG 1.1//EN" "http://www.w3.org/Graphics/SVG/1.1/DTD/svg11.dtd"><svg class="icon" width="200px" height="200.00px" viewBox="0 0 1024 1024" version="1.1" xmlns="http://www.w3.org/2000/svg"><path d="M512 0C229.257143 0 0 229.257143 0 512s229.257143 512 512 512 512-229.257143 512-512S794.742857 0 512 0z m0 937.142857c-234.742857 0-425.142857-190.4-425.142857-425.142857s190.4-425.142857 425.142857-425.142857 425.142857 190.4 425.142857 425.142857-190.4 425.142857-425.142857 425.142857z" fill="#333333" /><path d="M512 86.857143c-234.742857 0-425.142857 190.4-425.142857 425.142857s190.4 425.142857 425.142857 425.142857 425.142857-190.4 425.142857-425.142857-190.4-425.142857-425.142857-425.142857z m187.542857 432.228571L449.942857 700.685714a9.165714 9.165714 0 0 1-14.514286-7.428571V330.285714a9.142857 9.142857 0 0 1 14.514286-7.428571l249.6 181.485714a9.028571 9.028571 0 0 1 0 14.742857z" fill="#E6E6E6" /><path d="M699.542857 504.342857L449.942857 322.857143A9.142857 9.142857 0 0 0 435.428571 330.285714v362.971429a9.165714 9.165714 0 0 0 14.514286 7.428571l249.6-181.6a9.028571 9.028571 0 0 0 0-14.742857z" fill="#333333" /></svg>