<?xml version="1.0" standalone="no"?><!DOCTYPE svg PUBLIC "-//W3C//DTD SVG 1.1//EN" "http://www.w3.org/Graphics/SVG/1.1/DTD/svg11.dtd"><svg class="icon" width="200px" height="200.00px" viewBox="0 0 1024 1024" version="1.1" xmlns="http://www.w3.org/2000/svg"><path d="M512 0C229.257143 0 0 229.257143 0 512s229.257143 512 512 512 512-229.257143 512-512S794.742857 0 512 0z m0 937.142857c-234.742857 0-425.142857-190.4-425.142857-425.142857s190.4-425.142857 425.142857-425.142857 425.142857 190.4 425.142857 425.142857-190.4 425.142857-425.142857 425.142857z" fill="#333333" /><path d="M512 86.857143c-234.742857 0-425.142857 190.4-425.142857 425.142857s190.4 425.142857 425.142857 425.142857 425.142857-190.4 425.142857-425.142857-190.4-425.142857-425.142857-425.142857z m219.428571 452.571428c0 5.028571-4.114286 9.142857-9.142857 9.142858H548.571429v173.714285c0 5.028571-4.114286 9.142857-9.142858 9.142857h-54.857142c-5.028571 0-9.142857-4.114286-9.142858-9.142857V548.571429H301.714286c-5.028571 0-9.142857-4.114286-9.142857-9.142858v-54.857142c0-5.028571 4.114286-9.142857 9.142857-9.142858h173.714285V301.714286c0-5.028571 4.114286-9.142857 9.142858-9.142857h54.857142c5.028571 0 9.142857 4.114286 9.142858 9.142857v173.714285h173.714285c5.028571 0 9.142857 4.114286 9.142857 9.142858v54.857142z" fill="#E6E6E6" /><path d="M722.285714 475.428571H548.571429V301.714286c0-5.028571-4.114286-9.142857-9.142858-9.142857h-54.857142c-5.028571 0-9.142857 4.114286-9.142858 9.142857v173.714285H301.714286c-5.028571 0-9.142857 4.114286-9.142857 9.142858v54.857142c0 5.028571 4.114286 9.142857 9.142857 9.142858h173.714285v173.714285c0 5.028571 4.114286 9.142857 9.142858 9.142857h54.857142c5.028571 0 9.142857-4.114286 9.142858-9.142857V548.571429h173.714285c5.028571 0 9.142857-4.114286 9.142857-9.142858v-54.857142c0-5.028571-4.114286-9.142857-9.142857-9.142858z" fill="#333333" /></svg>