<?xml version="1.0" standalone="no"?><!DOCTYPE svg PUBLIC "-//W3C//DTD SVG 1.1//EN" "http://www.w3.org/Graphics/SVG/1.1/DTD/svg11.dtd"><svg class="icon" width="200px" height="200.00px" viewBox="0 0 1024 1024" version="1.1" xmlns="http://www.w3.org/2000/svg"><path d="M932.571429 54.857143H91.428571c-20.228571 0-36.571429 16.342857-36.571428 36.571428v841.142858c0 20.228571 16.342857 36.571429 36.571428 36.571428h841.142858c20.228571 0 36.571429-16.342857 36.571428-36.571428V91.428571c0-20.228571-16.342857-36.571429-36.571428-36.571428z m-45.714286 832H137.142857V137.142857h749.714286v749.714286z" fill="#333333" /><path d="M137.142857 886.857143h749.714286V137.142857H137.142857v749.714286z m155.428572-402.285714c0-5.028571 4.114286-9.142857 9.142857-9.142858h173.714285V301.714286c0-5.028571 4.114286-9.142857 9.142858-9.142857h54.857142c5.028571 0 9.142857 4.114286 9.142858 9.142857v173.714285h173.714285c5.028571 0 9.142857 4.114286 9.142857 9.142858v54.857142c0 5.028571-4.114286 9.142857-9.142857 9.142858H548.571429v173.714285c0 5.028571-4.114286 9.142857-9.142858 9.142857h-54.857142c-5.028571 0-9.142857-4.114286-9.142858-9.142857V548.571429H301.714286c-5.028571 0-9.142857-4.114286-9.142857-9.142858v-54.857142z" fill="#E6E6E6" /><path d="M301.714286 548.571429h173.714285v173.714285c0 5.028571 4.114286 9.142857 9.142858 9.142857h54.857142c5.028571 0 9.142857-4.114286 9.142858-9.142857V548.571429h173.714285c5.028571 0 9.142857-4.114286 9.142857-9.142858v-54.857142c0-5.028571-4.114286-9.142857-9.142857-9.142858H548.571429V301.714286c0-5.028571-4.114286-9.142857-9.142858-9.142857h-54.857142c-5.028571 0-9.142857 4.114286-9.142858 9.142857v173.714285H301.714286c-5.028571 0-9.142857 4.114286-9.142857 9.142858v54.857142c0 5.028571 4.114286 9.142857 9.142857 9.142858z" fill="#333333" /></svg>