<?xml version="1.0" standalone="no"?><!DOCTYPE svg PUBLIC "-//W3C//DTD SVG 1.1//EN" "http://www.w3.org/Graphics/SVG/1.1/DTD/svg11.dtd"><svg class="icon" width="200px" height="200.00px" viewBox="0 0 1024 1024" version="1.1" xmlns="http://www.w3.org/2000/svg"><path d="M512 0C229.257143 0 0 229.257143 0 512s229.257143 512 512 512 512-229.257143 512-512S794.742857 0 512 0z m0 937.142857c-234.742857 0-425.142857-190.4-425.142857-425.142857s190.4-425.142857 425.142857-425.142857 425.142857 190.4 425.142857 425.142857-190.4 425.142857-425.142857 425.142857z" fill="#333333" /><path d="M512 86.857143c-234.742857 0-425.142857 190.4-425.142857 425.142857s190.4 425.142857 425.142857 425.142857 425.142857-190.4 425.142857-425.142857-190.4-425.142857-425.142857-425.142857z m166.857143 665.257143c0 5.028571-4.114286 9.142857-9.142857 9.142857H356.8c-5.028571 0-9.142857-4.114286-9.142857-9.142857v-44c0-4.228571 2.857143-7.885714 6.971428-8.914286 50.285714-12.457143 83.2-56 83.2-107.657143 0-16.8-2.857143-33.6-6.742857-50.514286H354.285714c-5.028571 0-9.142857-4.114286-9.142857-9.142857v-34.285714c0-5.028571 4.114286-9.142857 9.142857-9.142857h61.371429c-8.914286-28.685714-16.685714-57.942857-16.685714-88.114286 0-86.628571 66.971429-137.485714 173.142857-137.485714 30.285714 0 58.742857 6.285714 80.342857 14.514286 3.542857 1.371429 5.942857 4.8 5.942857 8.571428v45.142857a9.142857 9.142857 0 0 1-12.114286 8.685715c-20.457143-7.314286-44.571429-12-69.028571-12-60.914286 0-99.771429 30.4-99.771429 80.228571 0 28.228571 7.085714 54.742857 15.314286 80.571429h128c5.028571 0 9.142857 4.114286 9.142857 9.142857v34.285714c0 5.028571-4.114286 9.142857-9.142857 9.142857h-112.685714c3.542857 15.085714 6.057143 30.742857 6.057143 46.857143 0 46.514286-18.857143 84.457143-50.171429 104.114286v5.371428h205.714286c5.028571 0 9.142857 4.114286 9.142857 9.142857v45.485715z" fill="#E6E6E6" /><path d="M669.714286 697.485714H464v-5.371428c31.314286-19.657143 50.171429-57.6 50.171429-104.114286 0-16.114286-2.514286-31.771429-6.057143-46.857143h112.685714c5.028571 0 9.142857-4.114286 9.142857-9.142857v-34.285714c0-5.028571-4.114286-9.142857-9.142857-9.142857h-128c-8.228571-25.828571-15.314286-52.342857-15.314286-80.571429 0-49.828571 38.857143-80.228571 99.771429-80.228571 24.457143 0 48.571429 4.685714 69.028571 12a9.142857 9.142857 0 0 0 12.114286-8.685715v-45.142857c0-3.771429-2.4-7.2-5.942857-8.571428-21.6-8.228571-50.057143-14.514286-80.342857-14.514286-106.171429 0-173.142857 50.857143-173.142857 137.485714 0 30.171429 7.771429 59.428571 16.685714 88.114286H354.285714c-5.028571 0-9.142857 4.114286-9.142857 9.142857v34.285714c0 5.028571 4.114286 9.142857 9.142857 9.142857h76.8c3.885714 16.914286 6.742857 33.714286 6.742857 50.514286 0 51.657143-32.914286 95.2-83.2 107.657143-4.114286 1.028571-6.971429 4.685714-6.971428 8.914286v44c0 5.028571 4.114286 9.142857 9.142857 9.142857H669.714286c5.028571 0 9.142857-4.114286 9.142857-9.142857v-45.485715c0-5.028571-4.114286-9.142857-9.142857-9.142857z" fill="#333333" /></svg>