<?xml version="1.0" standalone="no"?><!DOCTYPE svg PUBLIC "-//W3C//DTD SVG 1.1//EN" "http://www.w3.org/Graphics/SVG/1.1/DTD/svg11.dtd"><svg class="icon" width="200px" height="200.00px" viewBox="0 0 1024 1024" version="1.1" xmlns="http://www.w3.org/2000/svg"><path d="M338.285714 132.571429h347.428572v173.714285H338.285714z m562.285715 251.428571H123.428571c-7.542857 0-13.714286 6.171429-13.714285 13.714286v333.714285h150.857143V498.285714h502.857142v233.142857h150.857143V397.714286c0-7.542857-6.171429-13.714286-13.714285-13.714286z m-27.428572 96c0 5.028571-4.114286 9.142857-9.142857 9.142857h-45.714286c-5.028571 0-9.142857-4.114286-9.142857-9.142857v-45.714286c0-5.028571 4.114286-9.142857 9.142857-9.142857h45.714286c5.028571 0 9.142857 4.114286 9.142857 9.142857v45.714286z" fill="#D9D9D9" /><path d="M900.571429 306.285714H763.428571V64c0-5.028571-4.114286-9.142857-9.142857-9.142857H269.714286c-5.028571 0-9.142857 4.114286-9.142857 9.142857v242.285714H123.428571c-50.514286 0-91.428571 40.914286-91.428571 91.428572v374.857143c0 20.228571 16.342857 36.571429 36.571429 36.571428h192v150.857143c0 5.028571 4.114286 9.142857 9.142857 9.142857h484.571428c5.028571 0 9.142857-4.114286 9.142857-9.142857V809.142857h192c20.228571 0 36.571429-16.342857 36.571429-36.571428V397.714286c0-50.514286-40.914286-91.428571-91.428571-91.428572zM338.285714 132.571429h347.428572v173.714285H338.285714V132.571429z m347.428572 758.857142H338.285714V576h347.428572v315.428571z m228.571428-160H763.428571V498.285714H260.571429v233.142857H109.714286V397.714286c0-7.542857 6.171429-13.714286 13.714285-13.714286h777.142858c7.542857 0 13.714286 6.171429 13.714285 13.714286v333.714285z"  /><path d="M864 425.142857h-45.714286c-5.028571 0-9.142857 4.114286-9.142857 9.142857v45.714286c0 5.028571 4.114286 9.142857 9.142857 9.142857h45.714286c5.028571 0 9.142857-4.114286 9.142857-9.142857v-45.714286c0-5.028571-4.114286-9.142857-9.142857-9.142857z"  /></svg>