<?xml version="1.0" standalone="no"?><!DOCTYPE svg PUBLIC "-//W3C//DTD SVG 1.1//EN" "http://www.w3.org/Graphics/SVG/1.1/DTD/svg11.dtd"><svg class="icon" width="200px" height="200.00px" viewBox="0 0 1024 1024" version="1.1" xmlns="http://www.w3.org/2000/svg"><path d="M932.571429 54.857143H91.428571c-20.228571 0-36.571429 16.342857-36.571428 36.571428v841.142858c0 20.228571 16.342857 36.571429 36.571428 36.571428h841.142858c20.228571 0 36.571429-16.342857 36.571428-36.571428V91.428571c0-20.228571-16.342857-36.571429-36.571428-36.571428z m-45.714286 832H137.142857V137.142857h749.714286v749.714286z" fill="#333333" /><path d="M137.142857 886.857143h749.714286V137.142857H137.142857v749.714286z m539.428572-640c0-5.028571 4.114286-9.142857 9.142857-9.142857h91.428571c5.028571 0 9.142857 4.114286 9.142857 9.142857v292.571428c0 5.028571-4.114286 9.142857-9.142857 9.142858h-91.428571c-5.028571 0-9.142857-4.114286-9.142857-9.142858V246.857143z m-219.428572 0c0-5.028571 4.114286-9.142857 9.142857-9.142857h91.428572c5.028571 0 9.142857 4.114286 9.142857 9.142857v210.285714c0 5.028571-4.114286 9.142857-9.142857 9.142857h-91.428572c-5.028571 0-9.142857-4.114286-9.142857-9.142857V246.857143z m-219.428571 0c0-5.028571 4.114286-9.142857 9.142857-9.142857h91.428571c5.028571 0 9.142857 4.114286 9.142857 9.142857v530.285714c0 5.028571-4.114286 9.142857-9.142857 9.142857h-91.428571c-5.028571 0-9.142857-4.114286-9.142857-9.142857V246.857143z" fill="#E6E6E6" /><path d="M246.857143 786.285714h91.428571c5.028571 0 9.142857-4.114286 9.142857-9.142857V246.857143c0-5.028571-4.114286-9.142857-9.142857-9.142857h-91.428571c-5.028571 0-9.142857 4.114286-9.142857 9.142857v530.285714c0 5.028571 4.114286 9.142857 9.142857 9.142857z m219.428571-320h91.428572c5.028571 0 9.142857-4.114286 9.142857-9.142857V246.857143c0-5.028571-4.114286-9.142857-9.142857-9.142857h-91.428572c-5.028571 0-9.142857 4.114286-9.142857 9.142857v210.285714c0 5.028571 4.114286 9.142857 9.142857 9.142857z m219.428572 82.285715h91.428571c5.028571 0 9.142857-4.114286 9.142857-9.142858V246.857143c0-5.028571-4.114286-9.142857-9.142857-9.142857h-91.428571c-5.028571 0-9.142857 4.114286-9.142857 9.142857v292.571428c0 5.028571 4.114286 9.142857 9.142857 9.142858z" fill="#333333" /></svg>