<?xml version="1.0" standalone="no"?><!DOCTYPE svg PUBLIC "-//W3C//DTD SVG 1.1//EN" "http://www.w3.org/Graphics/SVG/1.1/DTD/svg11.dtd"><svg class="icon" width="200px" height="200.00px" viewBox="0 0 1024 1024" version="1.1" xmlns="http://www.w3.org/2000/svg"><path d="M906.976198 131.213564L528.80513 2.337137C524.242148 0.779046 518.121074 0 512 0s-12.242148 0.779046-16.80513 2.337137L117.023802 131.213564c-9.237257 3.116183-16.80513 13.800239-16.80513 23.593957v536.873818c0 9.793718 6.343658 22.703619 14.022823 28.824693L497.865884 1019.437018c3.895229 3.004891 8.90338 4.562982 14.022824 4.562982s10.238887-1.558092 14.022823-4.562982l383.624389-298.930986c7.679165-6.009782 14.022824-18.919683 14.022824-28.824693V154.807521c0.222585-9.793718-7.345289-20.366482-16.582546-23.593957zM843.650908 670.313227L512 928.733833 180.349092 670.313227V194.427562l331.650908-113.072927 331.650908 113.072927v475.885665z" fill="#333333" /><path d="M180.349092 194.427562v475.885665l331.650908 258.420606 331.650908-258.420606V194.427562L512 81.354635 180.349092 194.427562zM603.148353 296.037387h50.081513c6.121074 0 11.129225 5.008151 11.129225 11.129225 0.111292 1.891968-0.333877 3.672644-1.224214 5.342028l-97.603304 179.291816h50.860558c6.121074 0 11.129225 5.008151 11.129225 11.129226v23.705249c0 6.121074-5.008151 11.129225-11.129225 11.129225h-70.559287v33.053799h70.559287c6.121074 0 11.129225 5.008151 11.129225 11.129225v23.705249c0 6.121074-5.008151 11.129225-11.129225 11.129225h-70.559287V674.43104c0 6.121074-5.008151 11.129225-11.129225 11.129225h-45.963699c-6.121074 0-11.129225-5.008151-11.129226-11.129225v-57.649386H407.385284c-6.121074 0-11.129225-5.008151-11.129225-11.129225v-23.705249c0-6.121074 5.008151-11.129225 11.129225-11.129225h70.22541v-33.053799H407.385284c-6.121074 0-11.129225-5.008151-11.129225-11.129225v-23.705249c0-6.121074 5.008151-11.129225 11.129225-11.129226h50.304098l-97.937181-179.291816c-2.893599-5.342028-1.00163-12.130855 4.45169-15.135746 1.669384-0.890338 3.45006-1.335507 5.342028-1.335507h51.194435c4.229106 0 8.013042 2.337137 9.905011 6.121074l81.13205 160.594718L593.243343 302.158461a11.129225 11.129225 0 0 1 9.90501-6.121074z" fill="#E6E6E6" /><path d="M430.645365 302.158461a10.995674 10.995674 0 0 0-9.905011-6.121074h-51.194435c-1.891968 0-3.672644 0.445169-5.342028 1.335507-5.45332 3.004891-7.345289 9.793718-4.45169 15.135746l97.937181 179.291816H407.385284c-6.121074 0-11.129225 5.008151-11.129225 11.129226v23.705249c0 6.121074 5.008151 11.129225 11.129225 11.129225h70.22541v33.053799H407.385284c-6.121074 0-11.129225 5.008151-11.129225 11.129225v23.705249c0 6.121074 5.008151 11.129225 11.129225 11.129225h70.22541V674.43104c0 6.121074 5.008151 11.129225 11.129226 11.129225h45.963699c6.121074 0 11.129225-5.008151 11.129225-11.129225v-57.649386h70.559287c6.121074 0 11.129225-5.008151 11.129225-11.129225v-23.705249c0-6.121074-5.008151-11.129225-11.129225-11.129225h-70.559287v-33.053799h70.559287c6.121074 0 11.129225-5.008151 11.129225-11.129225v-23.705249c0-6.121074-5.008151-11.129225-11.129225-11.129226h-50.860558l97.603304-179.291816c0.890338-1.669384 1.335507-3.45006 1.224214-5.342028 0-6.121074-5.008151-11.129225-11.129225-11.129225h-50.081513a11.129225 11.129225 0 0 0-9.90501 6.121074l-81.465928 160.594718-81.13205-160.594718z" fill="#333333" /></svg>