<?xml version="1.0" standalone="no"?><!DOCTYPE svg PUBLIC "-//W3C//DTD SVG 1.1//EN" "http://www.w3.org/Graphics/SVG/1.1/DTD/svg11.dtd"><svg class="icon" width="200px" height="200.00px" viewBox="0 0 1024 1024" version="1.1" xmlns="http://www.w3.org/2000/svg"><path d="M512 0C229.257143 0 0 229.257143 0 512s229.257143 512 512 512 512-229.257143 512-512S794.742857 0 512 0z m0 937.142857c-234.742857 0-425.142857-190.4-425.142857-425.142857s190.4-425.142857 425.142857-425.142857 425.142857 190.4 425.142857 425.142857-190.4 425.142857-425.142857 425.142857z" fill="#333333" /><path d="M512 86.857143c-234.742857 0-425.142857 190.4-425.142857 425.142857s190.4 425.142857 425.142857 425.142857 425.142857-190.4 425.142857-425.142857-190.4-425.142857-425.142857-425.142857z m0 722.285714c-25.257143 0-45.714286-20.457143-45.714286-45.714286s20.457143-45.714286 45.714286-45.714285 45.714286 20.457143 45.714286 45.714285-20.457143 45.714286-45.714286 45.714286z m71.885714-250.857143a55.2 55.2 0 0 0-35.314285 51.2V635.428571c0 5.028571-4.114286 9.142857-9.142858 9.142858h-54.857142c-5.028571 0-9.142857-4.114286-9.142858-9.142858v-24.571428c0-26.4 7.657143-52.457143 22.742858-74.171429 14.742857-21.257143 35.314286-37.485714 59.542857-46.742857 38.857143-14.971429 64-47.542857 64-83.085714 0-50.4-49.257143-91.428571-109.714286-91.428572s-109.714286 41.028571-109.714286 91.428572v8.685714c0 5.028571-4.114286 9.142857-9.142857 9.142857h-54.857143c-5.028571 0-9.142857-4.114286-9.142857-9.142857V406.857143c0-44.914286 19.657143-86.857143 55.314286-118.057143C418.742857 258.742857 464 242.285714 512 242.285714s93.257143 16.571429 127.542857 46.514286C675.2 320 694.857143 361.942857 694.857143 406.857143c0 66.057143-43.542857 125.485714-110.971429 151.428571z" fill="#E6E6E6" /><path d="M466.285714 763.428571a45.714286 45.714286 0 1 0 91.428572 0 45.714286 45.714286 0 1 0-91.428572 0z m173.257143-474.628571C605.257143 258.857143 560 242.285714 512 242.285714s-93.257143 16.457143-127.542857 46.514286C348.8 320 329.142857 361.942857 329.142857 406.857143v8.685714c0 5.028571 4.114286 9.142857 9.142857 9.142857h54.857143c5.028571 0 9.142857-4.114286 9.142857-9.142857V406.857143c0-50.4 49.257143-91.428571 109.714286-91.428572s109.714286 41.028571 109.714286 91.428572c0 35.542857-25.142857 68.114286-64 83.085714-24.228571 9.257143-44.8 25.485714-59.542857 46.742857-15.085714 21.714286-22.742857 47.771429-22.742858 74.171429V635.428571c0 5.028571 4.114286 9.142857 9.142858 9.142858h54.857142c5.028571 0 9.142857-4.114286 9.142858-9.142858v-25.942857a55.2 55.2 0 0 1 35.314285-51.2c67.428571-25.942857 110.971429-85.371429 110.971429-151.428571 0-44.914286-19.657143-86.857143-55.314286-118.057143z" fill="#333333" /></svg>