<?xml version="1.0" standalone="no"?><!DOCTYPE svg PUBLIC "-//W3C//DTD SVG 1.1//EN" "http://www.w3.org/Graphics/SVG/1.1/DTD/svg11.dtd"><svg class="icon" width="200px" height="200.00px" viewBox="0 0 1024 1024" version="1.1" xmlns="http://www.w3.org/2000/svg"><path d="M772.571429 320H388.571429V201.142857H274.285714v182.857143h201.142857c20.228571 0 36.571429 16.342857 36.571429 36.571429v411.428571h374.857143V201.142857H772.571429v118.857143zM594.285714 438.857143c0-5.028571 4.114286-9.142857 9.142857-9.142857h54.857143c5.028571 0 9.142857 4.114286 9.142857 9.142857v64c0 5.028571-4.114286 9.142857-9.142857 9.142857h-54.857143c-5.028571 0-9.142857-4.114286-9.142857-9.142857v-64z m105.142857 344c-58.057143 0-105.142857-47.085714-105.142857-105.142857s47.085714-105.142857 105.142857-105.142857 105.142857 47.085714 105.142858 105.142857-47.085714 105.142857-105.142858 105.142857z m105.142858-389.714286v109.714286c0 5.028571-4.114286 9.142857-9.142858 9.142857h-54.857142c-5.028571 0-9.142857-4.114286-9.142858-9.142857v-109.714286c0-5.028571 4.114286-9.142857 9.142858-9.142857h54.857142c5.028571 0 9.142857 4.114286 9.142858 9.142857z" fill="#D9D9D9" /><path d="M660.571429 677.714286a38.857143 38.857143 0 1 0 77.714285 0 38.857143 38.857143 0 1 0-77.714285 0z" fill="#D9D9D9" /><path d="M603.428571 512h54.857143c5.028571 0 9.142857-4.114286 9.142857-9.142857v-64c0-5.028571-4.114286-9.142857-9.142857-9.142857h-54.857143c-5.028571 0-9.142857 4.114286-9.142857 9.142857v64c0 5.028571 4.114286 9.142857 9.142857 9.142857z m128-118.857143v109.714286c0 5.028571 4.114286 9.142857 9.142858 9.142857h54.857142c5.028571 0 9.142857-4.114286 9.142858-9.142857v-109.714286c0-5.028571-4.114286-9.142857-9.142858-9.142857h-54.857142c-5.028571 0-9.142857 4.114286-9.142858 9.142857z"  /><path d="M932.571429 118.857143H690.285714c0-35.314286-28.685714-64-64-64h-91.428571c-35.314286 0-64 28.685714-64 64H228.571429c-20.228571 0-36.571429 16.342857-36.571429 36.571428v228.571429h-100.571429c-20.228571 0-36.571429 16.342857-36.571428 36.571429v512c0 20.228571 16.342857 36.571429 36.571428 36.571428h384c20.228571 0 36.571429-16.342857 36.571429-36.571428v-18.285715h420.571429c20.228571 0 36.571429-16.342857 36.571428-36.571428V155.428571c0-20.228571-16.342857-36.571429-36.571428-36.571428z m-470.857143 73.142857h82.285714v-64h73.142857v64h82.285714v54.857143H461.714286v-54.857143z m-22.857143 704H128V630.857143h310.857143v265.142857z m0-338.285714H128v-100.571429h310.857143v100.571429z m448 274.285714H512V420.571429c0-20.228571-16.342857-36.571429-36.571429-36.571429H274.285714V201.142857h114.285715v118.857143h384V201.142857h114.285714v630.857143z"  /><path d="M699.428571 572.571429c-58.057143 0-105.142857 47.085714-105.142857 105.142857s47.085714 105.142857 105.142857 105.142857 105.142857-47.085714 105.142858-105.142857-47.085714-105.142857-105.142858-105.142857z m0 144c-21.485714 0-38.857143-17.371429-38.857142-38.857143s17.371429-38.857143 38.857142-38.857143 38.857143 17.371429 38.857143 38.857143-17.371429 38.857143-38.857143 38.857143z"  /></svg>