<?xml version="1.0" standalone="no"?><!DOCTYPE svg PUBLIC "-//W3C//DTD SVG 1.1//EN" "http://www.w3.org/Graphics/SVG/1.1/DTD/svg11.dtd"><svg class="icon" width="200px" height="200.00px" viewBox="0 0 1024 1024" version="1.1" xmlns="http://www.w3.org/2000/svg"><path d="M877.714286 0H146.285714c-20.228571 0-36.571429 16.342857-36.571428 36.571429v950.857142c0 20.228571 16.342857 36.571429 36.571428 36.571429h731.428572c20.228571 0 36.571429-16.342857 36.571428-36.571429V36.571429c0-20.228571-16.342857-36.571429-36.571428-36.571429z m-45.714286 941.714286H192V147.542857l297.485714 233.257143c13.257143 10.4 31.885714 10.4 45.142857 0L832 147.542857V941.714286z m0-858.628572h-36.228571L512 305.485714 228.228571 83.085714H192v-0.8h640v0.8z" fill="#333333" /><path d="M489.485714 380.8L192 147.542857V941.714286h640V147.542857L534.628571 380.8a36.56 36.56 0 0 1-45.142857 0z m113.6 69.6h54.628572a9.657143 9.657143 0 0 1 8.457143 14.171429l-99.657143 184h52.457143c5.257143 0 9.6 4.342857 9.6 9.6V686.857143c0 5.257143-4.342857 9.6-9.6 9.6h-72.342858V729.142857h72.342858c5.257143 0 9.6 4.342857 9.6 9.6v28.571429c0.228571 5.371429-4 9.714286-9.371429 9.714285h-72.342857v57.028572c0 5.257143-4.342857 9.6-9.6 9.6h-49.942857c-5.257143 0-9.6-4.342857-9.6-9.6v-57.028572h-72c-5.257143 0-9.6-4.342857-9.6-9.6v-28.685714c0-5.257143 4.342857-9.6 9.6-9.6h72v-32.685714h-72c-5.257143 0-9.6-4.342857-9.6-9.6v-28.685714c0-5.257143 4.342857-9.6 9.6-9.6h51.885714L357.714286 464.457143a9.6 9.6 0 0 1 3.885714-13.028572c1.485714-0.685714 2.971429-1.142857 4.457143-1.142857h55.771428c3.657143 0 6.971429 2.057143 8.571429 5.257143l81.942857 162.285714 82.171429-162.171428a9.828571 9.828571 0 0 1 8.571428-5.257143z" fill="#E6E6E6" /><path d="M192 83.085714h36.228571L512 305.485714l283.771429-222.4H832v-0.8H192z" fill="#E6E6E6" /><path d="M430.4 455.542857a9.577143 9.577143 0 0 0-8.571429-5.257143h-55.771428c-1.485714 0-2.971429 0.457143-4.457143 1.142857a9.6 9.6 0 0 0-3.885714 13.028572l99.885714 184.114286H405.714286c-5.257143 0-9.6 4.342857-9.6 9.6V686.857143c0 5.257143 4.342857 9.6 9.6 9.6h72V729.142857h-72c-5.257143 0-9.6 4.342857-9.6 9.6v28.685714c0 5.257143 4.342857 9.6 9.6 9.6h72v57.028572c0 5.257143 4.342857 9.6 9.6 9.6h49.942857c5.257143 0 9.6-4.342857 9.6-9.6v-57.028572h72.342857c5.371429 0 9.6-4.342857 9.371429-9.714285v-28.571429c0-5.257143-4.342857-9.6-9.6-9.6h-72.342858v-32.685714h72.342858c5.257143 0 9.6-4.342857 9.6-9.6v-28.685714c0-5.257143-4.342857-9.6-9.6-9.6h-52.457143l99.657143-184a9.657143 9.657143 0 0 0-8.457143-14.171429h-54.628572c-3.542857 0-6.857143 2.057143-8.571428 5.257143l-82.171429 162.171428-81.942857-162.285714z" fill="#333333" /></svg>