<?xml version="1.0" standalone="no"?><!DOCTYPE svg PUBLIC "-//W3C//DTD SVG 1.1//EN" "http://www.w3.org/Graphics/SVG/1.1/DTD/svg11.dtd"><svg class="icon" width="200px" height="200.00px" viewBox="0 0 1024 1024" version="1.1" xmlns="http://www.w3.org/2000/svg"><path d="M299.885714 891.428571h415.085715l50.628571-594.285714H249.142857l50.742857 594.285714zM507.428571 402.285714c90.857143 0 164.571429 73.714286 164.571429 164.571429s-73.714286 164.571429-164.571429 164.571428-164.571429-73.714286-164.571428-164.571428 73.714286-164.571429 164.571428-164.571429z" fill="#D9D9D9" /><path d="M507.428571 731.428571c90.857143 0 164.571429-73.714286 164.571429-164.571428s-73.714286-164.571429-164.571429-164.571429-164.571429 73.714286-164.571428 164.571429 73.714286 164.571429 164.571428 164.571428z m0-256c50.514286 0 91.428571 40.914286 91.428572 91.428572s-40.914286 91.428571-91.428572 91.428571-91.428571-40.914286-91.428571-91.428571 40.914286-91.428571 91.428571-91.428572z"  /><path d="M877.714286 219.428571h-32.114286l-40.8-138.171428c-4.571429-15.657143-18.857143-26.4-35.085714-26.4h-515.428572c-16.342857 0-30.628571 10.742857-35.085714 26.4L178.4 219.428571H146.285714c-20.228571 0-36.571429 16.342857-36.571428 36.571429v32c0 5.028571 4.114286 9.142857 9.142857 9.142857h52.342857l54.514286 638.514286a36.571429 36.571429 0 0 0 36.457143 33.485714h490.514285a36.571429 36.571429 0 0 0 36.457143-33.485714L843.657143 297.142857H905.142857c5.028571 0 9.142857-4.114286 9.142857-9.142857v-32c0-20.228571-16.342857-36.571429-36.571428-36.571429z m-592.685715-86.857142h453.942858l25.6 86.857142H259.428571l25.6-86.857142z m429.942858 758.857142H299.885714L249.142857 297.142857h516.457143l-50.628571 594.285714z"  /></svg>