<?xml version="1.0" standalone="no"?><!DOCTYPE svg PUBLIC "-//W3C//DTD SVG 1.1//EN" "http://www.w3.org/Graphics/SVG/1.1/DTD/svg11.dtd"><svg class="icon" width="200px" height="200.00px" viewBox="0 0 1024 1024" version="1.1" xmlns="http://www.w3.org/2000/svg"><path d="M512 86.857143c-234.742857 0-425.142857 190.4-425.142857 425.142857s190.4 425.142857 425.142857 425.142857 425.142857-190.4 425.142857-425.142857-190.4-425.142857-425.142857-425.142857z m176.8 432.457143l-281.142857 203.428571c-6.057143 4.342857-14.514286 0-14.514286-7.428571V661.714286c0-11.657143 5.6-22.742857 15.085714-29.6L574.4 512 408.228571 391.771429c-9.485714-6.857143-15.085714-17.828571-15.085714-29.6V308.571429c0-7.428571 8.457143-11.771429 14.514286-7.428572l281.142857 203.428572c5.028571 3.657143 5.028571 11.085714 0 14.742857z" fill="#E6E6E6" /><path d="M512 0C229.257143 0 0 229.257143 0 512s229.257143 512 512 512 512-229.257143 512-512S794.742857 0 512 0z m0 937.142857c-234.742857 0-425.142857-190.4-425.142857-425.142857s190.4-425.142857 425.142857-425.142857 425.142857 190.4 425.142857 425.142857-190.4 425.142857-425.142857 425.142857z" fill="#333333" /><path d="M688.8 504.571429l-281.142857-203.428572c-6.057143-4.342857-14.514286 0-14.514286 7.428572v53.6c0 11.771429 5.6 22.742857 15.085714 29.6L574.4 512 408.228571 632.114286c-9.485714 6.857143-15.085714 17.942857-15.085714 29.6v53.6c0 7.428571 8.457143 11.771429 14.514286 7.428571l281.142857-203.428571c5.028571-3.657143 5.028571-11.085714 0-14.742857z" fill="#333333" /></svg>