<?xml version="1.0" standalone="no"?><!DOCTYPE svg PUBLIC "-//W3C//DTD SVG 1.1//EN" "http://www.w3.org/Graphics/SVG/1.1/DTD/svg11.dtd"><svg class="icon" width="200px" height="200.00px" viewBox="0 0 1024 1024" version="1.1" xmlns="http://www.w3.org/2000/svg"><path d="M932.571429 54.857143H91.428571c-20.228571 0-36.571429 16.342857-36.571428 36.571428v841.142858c0 20.228571 16.342857 36.571429 36.571428 36.571428h841.142858c20.228571 0 36.571429-16.342857 36.571428-36.571428V91.428571c0-20.228571-16.342857-36.571429-36.571428-36.571428z m-45.714286 832H137.142857V137.142857h749.714286v749.714286z" fill="#333333" /><path d="M137.142857 886.857143h749.714286V137.142857H137.142857v749.714286z m246.857143-225.028572c0-11.657143 5.6-22.742857 15.085714-29.6L565.257143 512 399.085714 391.771429c-9.485714-6.857143-15.085714-17.828571-15.085714-29.6V308.571429c0-7.428571 8.457143-11.771429 14.514286-7.428572l281.142857 203.428572c5.028571 3.657143 5.028571 11.085714 0 14.742857l-281.142857 203.428571c-6.057143 4.457143-14.514286 0.114286-14.514286-7.314286v-53.6z" fill="#E6E6E6" /><path d="M398.514286 722.742857l281.142857-203.428571c5.028571-3.657143 5.028571-11.085714 0-14.742857l-281.142857-203.428572c-6.057143-4.342857-14.514286 0-14.514286 7.428572v53.6c0 11.771429 5.6 22.742857 15.085714 29.6L565.257143 512 399.085714 632.228571c-9.485714 6.857143-15.085714 17.942857-15.085714 29.6V715.428571c0 7.428571 8.457143 11.771429 14.514286 7.314286z" fill="#333333" /></svg>