<?xml version="1.0" standalone="no"?><!DOCTYPE svg PUBLIC "-//W3C//DTD SVG 1.1//EN" "http://www.w3.org/Graphics/SVG/1.1/DTD/svg11.dtd"><svg class="icon" width="200px" height="200.00px" viewBox="0 0 1024 1024" version="1.1" xmlns="http://www.w3.org/2000/svg"><path d="M225.942857 637.028571c-10.742857 16.685714-19.428571 34.628571-25.714286 53.257143H297.142857V565.371429c-28.342857 18.514286-52.571429 42.857143-71.2 71.657142zM726.857143 565.371429V690.285714h96.914286c-6.285714-18.628571-14.971429-36.571429-25.714286-53.257143a241.828571 241.828571 0 0 0-71.2-71.657142z m-73.142857-274.171429l-141.714286-168-141.714286 168V690.285714h283.428572V291.2zM512 438.857143a54.868571 54.868571 0 0 1 0-109.714286 54.868571 54.868571 0 0 1 0 109.714286z" fill="#D9D9D9" /><path d="M914.285714 768c0-127.542857-74.742857-237.714286-182.857143-289.028571V289.485714c0-17.257143-6.057143-33.942857-17.257142-47.085714L540 35.885714C532.685714 27.2 522.285714 22.857143 512 22.857143s-20.685714 4.342857-28 13.028571L309.828571 242.4a73.108571 73.108571 0 0 0-17.257142 47.085714v189.485715C184.457143 530.285714 109.714286 640.457143 109.714286 768h178.857143c-2.628571 8.228571-4 17.142857-4 27.2 0 25.257143 8.685714 49.942857 24.457142 69.485714a111.085714 111.085714 0 0 0 49.257143 34.971429c26.4 61.714286 86.4 101.485714 153.714286 101.485714 33.257143 0 65.485714-9.828571 93.028571-28.342857 26.971429-18.057143 47.885714-43.314286 60.571429-73.142857a110.857143 110.857143 0 0 0 49.257143-34.857143 111.451429 111.451429 0 0 0 24.457143-69.485714c0-9.6-1.257143-18.742857-3.542857-27.2L914.285714 768z m-617.142857-77.714286h-96.914286c6.285714-18.628571 14.971429-36.571429 25.714286-53.257143 18.628571-28.8 42.857143-53.142857 71.2-71.657142V690.285714z m73.142857-211.314285V291.2l141.714286-168 141.714286 168V690.285714H370.285714V478.971429z m274.4 344.114285c-5.942857 3.428571-12.8 4.8-19.542857 3.885715l-22.285714-2.742858-3.2 22.171429c-6.171429 43.314286-43.885714 76-87.657143 76s-81.485714-32.685714-87.657143-76l-3.2-22.285714-22.285714 2.857143a31.657143 31.657143 0 0 1-19.542857-4c-9.942857-5.714286-16.114286-16.342857-16.114286-27.885715 0-12.114286 6.742857-22.171429 16.685714-27.2h264.342857c10.057143 5.142857 16.685714 15.2 16.685715 27.2-0.114286 11.657143-6.285714 22.4-16.228572 28zM726.857143 690.285714V565.371429a241.828571 241.828571 0 0 1 71.2 71.657142c10.742857 16.685714 19.428571 34.628571 25.714286 53.257143H726.857143z"  /><path d="M457.142857 384a54.857143 54.857143 0 1 0 109.714286 0 54.857143 54.857143 0 1 0-109.714286 0z"  /></svg>