<?xml version="1.0" standalone="no"?><!DOCTYPE svg PUBLIC "-//W3C//DTD SVG 1.1//EN" "http://www.w3.org/Graphics/SVG/1.1/DTD/svg11.dtd"><svg class="icon" width="200px" height="200.00px" viewBox="0 0 1024 1024" version="1.1" xmlns="http://www.w3.org/2000/svg"><path d="M906.976198 131.213564L528.80513 2.337137C524.242148 0.779046 518.121074 0 512 0s-12.242148 0.779046-16.80513 2.337137L117.023802 131.213564c-9.237257 3.116183-16.80513 13.800239-16.80513 23.593957v536.873818c0 9.793718 6.343658 22.703619 14.022823 28.824693L497.865884 1019.437018c3.895229 3.004891 8.90338 4.562982 14.022824 4.562982s10.238887-1.558092 14.022823-4.562982l383.624389-298.930986c7.679165-6.009782 14.022824-18.919683 14.022824-28.824693V154.807521c0.222585-9.793718-7.345289-20.366482-16.582546-23.593957zM843.650908 670.313227L512 928.733833 180.349092 670.313227V194.427562l331.650908-113.072927 331.650908 113.072927v475.885665z" fill="#333333" /><path d="M180.349092 194.427562v475.885665l331.650908 258.420606 331.650908-258.420606V194.427562L512 81.354635 180.349092 194.427562zM646.441039 307.166612H707.874361c7.233996 0 11.463102 8.235627 7.233997 14.134116L478.501032 647.053146a17.918052 17.918052 0 0 1-28.935985 0l-140.673405-193.648516c-4.229106-5.898489 0-14.134116 7.233997-14.134116h61.433322c5.787197 0 11.129225 2.782306 14.467993 7.345289l72.006086 99.161395 167.940006-231.265297c3.338768-4.562982 8.792088-7.345289 14.467993-7.345289z" fill="#E6E6E6" /><path d="M392.026954 446.615803c-3.338768-4.562982-8.680796-7.345289-14.467993-7.345289H316.125639c-7.233996 0-11.463102 8.235627-7.233997 14.134116l140.673405 193.648516a17.918052 17.918052 0 0 0 28.935985 0l236.607326-325.752418c4.229106-5.898489 0-14.134116-7.233997-14.134116h-61.433322c-5.675905 0-11.129225 2.782306-14.467993 7.345289L464.03304 545.777198l-72.006086-99.161395z" fill="#333333" /></svg>