<?xml version="1.0" standalone="no"?><!DOCTYPE svg PUBLIC "-//W3C//DTD SVG 1.1//EN" "http://www.w3.org/Graphics/SVG/1.1/DTD/svg11.dtd"><svg class="icon" width="200px" height="200.00px" viewBox="0 0 1024 1024" version="1.1" xmlns="http://www.w3.org/2000/svg"><path d="M731.428571 292.571429c0 20.228571-16.342857 36.571429-36.571428 36.571428H329.142857c-20.228571 0-36.571429-16.342857-36.571428-36.571428V137.142857H137.142857v749.714286h749.714286V317.485714l-155.428572-155.428571V292.571429zM512 761.142857c-90.857143 0-164.571429-73.714286-164.571429-164.571428s73.714286-164.571429 164.571429-164.571429 164.571429 73.714286 164.571429 164.571429-73.714286 164.571429-164.571429 164.571428z" fill="#D9D9D9" /><path d="M512 432c-90.857143 0-164.571429 73.714286-164.571429 164.571429s73.714286 164.571429 164.571429 164.571428 164.571429-73.714286 164.571429-164.571428-73.714286-164.571429-164.571429-164.571429z m0 256c-50.514286 0-91.428571-40.914286-91.428571-91.428571s40.914286-91.428571 91.428571-91.428572 91.428571 40.914286 91.428571 91.428572-40.914286 91.428571-91.428571 91.428571z"  fill="#404040"/><path d="M947.771429 262.057143L761.942857 76.228571c-0.8-0.8-1.6-1.485714-2.4-2.285714-0.114286-0.114286-0.342857-0.228571-0.457143-0.342857-0.8-0.8-1.714286-1.485714-2.514285-2.171429a73.142857 73.142857 0 0 0-25.142858-13.371428V54.857143H91.428571c-20.228571 0-36.571429 16.342857-36.571428 36.571428v841.142858c0 20.228571 16.342857 36.571429 36.571428 36.571428h841.142858c20.228571 0 36.571429-16.342857 36.571428-36.571428V313.714286c0-19.428571-7.657143-37.942857-21.371428-51.657143zM365.714286 137.142857h292.571428v118.857143H365.714286V137.142857z m521.142857 749.714286H137.142857V137.142857h155.428572v155.428572c0 20.228571 16.342857 36.571429 36.571428 36.571428h365.714286c20.228571 0 36.571429-16.342857 36.571428-36.571428V162.057143l155.428572 155.428571V886.857143z"  fill="#404040"/></svg>