<?xml version="1.0" standalone="no"?><!DOCTYPE svg PUBLIC "-//W3C//DTD SVG 1.1//EN" "http://www.w3.org/Graphics/SVG/1.1/DTD/svg11.dtd"><svg class="icon" width="200px" height="200.00px" viewBox="0 0 1024 1024" version="1.1" xmlns="http://www.w3.org/2000/svg"><path d="M804.571429 329.142857c0 5.028571-4.114286 9.142857-9.142858 9.142857h-64c-5.028571 0-9.142857-4.114286-9.142857-9.142857v-64H553.142857v64c0 5.028571-4.114286 9.142857-9.142857 9.142857h-64c-5.028571 0-9.142857-4.114286-9.142857-9.142857v-64H301.714286v64c0 5.028571-4.114286 9.142857-9.142857 9.142857h-64c-5.028571 0-9.142857-4.114286-9.142858-9.142857v-64H82.285714v566.857143h859.428572V265.142857H804.571429v64zM411.428571 713.142857c0 5.028571-4.114286 9.142857-9.142857 9.142857H192c-5.028571 0-9.142857-4.114286-9.142857-9.142857v-54.857143c0-5.028571 4.114286-9.142857 9.142857-9.142857h210.285714c5.028571 0 9.142857 4.114286 9.142857 9.142857v54.857143z m0-155.428571c0 5.028571-4.114286 9.142857-9.142857 9.142857H192c-5.028571 0-9.142857-4.114286-9.142857-9.142857v-54.857143c0-5.028571 4.114286-9.142857 9.142857-9.142857h210.285714c5.028571 0 9.142857 4.114286 9.142857 9.142857v54.857143z m427.885715-104.228572l-188.571429 261.371429a18.171429 18.171429 0 0 1-29.485714 0L490.857143 534.057143c-4.342857-6.057143 0-14.514286 7.428571-14.514286h62.742857c5.828571 0 11.314286 2.742857 14.742858 7.542857l60.342857 83.542857 118.4-164.228571c3.428571-4.685714 8.914286-7.542857 14.628571-7.428571h62.742857c7.428571 0 11.771429 8.457143 7.428572 14.514285z" fill="#D9D9D9" /><path d="M754.514286 446.4L636.114286 610.628571l-60.342857-83.542857c-3.428571-4.8-8.914286-7.542857-14.742858-7.542857H498.285714c-7.428571 0-11.771429 8.457143-7.428571 14.514286l130.4 180.8a18.171429 18.171429 0 0 0 29.485714 0l188.571429-261.371429c4.342857-6.057143 0-14.514286-7.428572-14.514285H769.142857c-5.714286-0.114286-11.2 2.742857-14.628571 7.428571zM402.285714 493.714286H192c-5.028571 0-9.142857 4.114286-9.142857 9.142857v54.857143c0 5.028571 4.114286 9.142857 9.142857 9.142857h210.285714c5.028571 0 9.142857-4.114286 9.142857-9.142857v-54.857143c0-5.028571-4.114286-9.142857-9.142857-9.142857z"  /><path d="M987.428571 182.857143H804.571429v-64c0-5.028571-4.114286-9.142857-9.142858-9.142857h-64c-5.028571 0-9.142857 4.114286-9.142857 9.142857v64H553.142857v-64c0-5.028571-4.114286-9.142857-9.142857-9.142857h-64c-5.028571 0-9.142857 4.114286-9.142857 9.142857v64H301.714286v-64c0-5.028571-4.114286-9.142857-9.142857-9.142857h-64c-5.028571 0-9.142857 4.114286-9.142858 9.142857v64H36.571429c-20.228571 0-36.571429 16.342857-36.571429 36.571428v658.285715c0 20.228571 16.342857 36.571429 36.571429 36.571428h950.857142c20.228571 0 36.571429-16.342857 36.571429-36.571428V219.428571c0-20.228571-16.342857-36.571429-36.571429-36.571428z m-45.714285 649.142857H82.285714V265.142857h137.142857v64c0 5.028571 4.114286 9.142857 9.142858 9.142857h64c5.028571 0 9.142857-4.114286 9.142857-9.142857v-64h169.142857v64c0 5.028571 4.114286 9.142857 9.142857 9.142857h64c5.028571 0 9.142857-4.114286 9.142857-9.142857v-64h169.142857v64c0 5.028571 4.114286 9.142857 9.142857 9.142857h64c5.028571 0 9.142857-4.114286 9.142858-9.142857v-64h137.142857v566.857143z"  /><path d="M402.285714 649.142857H192c-5.028571 0-9.142857 4.114286-9.142857 9.142857v54.857143c0 5.028571 4.114286 9.142857 9.142857 9.142857h210.285714c5.028571 0 9.142857-4.114286 9.142857-9.142857v-54.857143c0-5.028571-4.114286-9.142857-9.142857-9.142857z"  /></svg>