<?xml version="1.0" standalone="no"?><!DOCTYPE svg PUBLIC "-//W3C//DTD SVG 1.1//EN" "http://www.w3.org/Graphics/SVG/1.1/DTD/svg11.dtd"><svg class="icon" width="200px" height="200.00px" viewBox="0 0 1024 1024" version="1.1" xmlns="http://www.w3.org/2000/svg"><path d="M906.976198 131.213564L528.80513 2.337137C524.242148 0.779046 518.121074 0 512 0s-12.242148 0.779046-16.80513 2.337137L117.023802 131.213564c-9.237257 3.116183-16.80513 13.800239-16.80513 23.593957v536.873818c0 9.793718 6.343658 22.703619 14.022823 28.824693L497.865884 1019.437018c3.895229 3.004891 8.90338 4.562982 14.022824 4.562982s10.238887-1.558092 14.022823-4.562982l383.624389-298.930986c7.679165-6.009782 14.022824-18.919683 14.022824-28.824693V154.807521c0.222585-9.793718-7.345289-20.366482-16.582546-23.593957zM843.650908 670.313227L512 928.733833 180.349092 670.313227V194.427562l331.650908-113.072927 331.650908 113.072927v475.885665z" fill="#333333" /><path d="M454.907075 444.167373a89.145093 89.145093 0 1 0 178.290186 0 89.145093 89.145093 0 1 0-178.290186 0z" fill="#E6E6E6" /><path d="M180.349092 194.427562v475.885665l331.650908 258.420606 331.650908-258.420606V194.427562L512 81.354635 180.349092 194.427562z m477.10988 136.333008c62.657537 62.657537 62.657537 164.15607 0 226.813607-53.976742 53.976742-136.889469 61.433322-198.76796 22.369742l-86.251495 86.251495a8.936768 8.936768 0 0 1-12.576024 0l-37.839365-37.839366a8.936768 8.936768 0 0 1 0-12.576024l86.251494-86.251494c-39.06358-61.989784-31.606999-144.791218 22.369743-198.76796 62.657537-62.657537 164.15607-62.657537 226.813607 0z" fill="#E6E6E6" /><path d="M408.275622 529.52853l-86.251494 86.251494a8.936768 8.936768 0 0 0 0 12.576024l37.839365 37.839366c3.45006 3.45006 9.125965 3.45006 12.576024 0l86.251495-86.251495c61.878491 39.06358 144.791218 31.606999 198.76796-22.369742 62.657537-62.657537 62.657537-164.15607 0-226.813607-62.657537-62.657537-164.15607-62.657537-226.813607 0-53.976742 53.976742-61.433322 136.778176-22.369743 198.76796z m72.785132-148.352571a89.145093 89.145093 0 0 1 126.09412 0 89.145093 89.145093 0 0 1 0 126.09412c-34.834475 34.834475-91.259646 34.834475-126.09412 0s-34.834475-91.259646 0-126.09412z" fill="#333333" /></svg>