<?xml version="1.0" standalone="no"?><!DOCTYPE svg PUBLIC "-//W3C//DTD SVG 1.1//EN" "http://www.w3.org/Graphics/SVG/1.1/DTD/svg11.dtd"><svg class="icon" width="200px" height="200.00px" viewBox="0 0 1024 1024" version="1.1" xmlns="http://www.w3.org/2000/svg"><path d="M908.847849 578.017519l0.228533 0.114267c3.542264-21.596385 5.256263-43.649835 5.256263-65.474753 0-19.539586-1.485466-39.193439-4.227863-58.390225 2.742398 19.08252 4.113597 38.393573 4.113597 57.704625 0 22.167717-1.828265 44.335435-5.37053 66.046086zM40.079005 381.93606c-0.571333-0.457066-1.028399-0.914133-1.599733-1.485466 0.799866 0.799866 1.599732 1.599732 2.513865 2.399598l74.844613 63.875021v-0.114266L40.079005 381.93606z m613.154494-246.815823h0.114266l-17.71132-95.755399c-0.228533-1.142666-0.457066-2.171065-0.799866-3.199464 0.114267 0.571333 0.3428 1.256932 0.457066 1.828265l17.939854 97.126598z m61.703956 624.466886l35.879707-29.480779 106.039391 37.593706c19.425319-26.167048 35.765441-54.276628 48.677565-84.100206l-85.357139-73.016348 7.541595-45.8209c2.856665-17.254254 4.34213-34.965575 4.34213-52.676896s-1.485466-35.422641-4.34213-52.676896l-7.427328-45.592367 85.357139-73.016348c-13.026391-29.709312-29.252246-57.933159-48.677565-84.100206l-106.039391 37.593706-35.879708-29.480779c-27.309714-22.396251-57.818892-39.993305-90.613402-52.334095l-43.535568-16.340122-20.453719-110.838587a431.356358 431.356358 0 0 0-97.126597 0l-20.453719 111.06712-43.307035 16.340122c-32.565977 12.340791-62.846622 29.937845-89.927803 52.219829l-35.879707 29.595045-106.724991-37.936506c-19.425319 26.167048-35.765441 54.276628-48.677565 84.100207l86.271272 73.701947-7.427328 45.706634c-2.856665 17.025721-4.227864 34.508509-4.227864 51.991296 0 17.368521 1.485466 34.965575 4.227864 51.991296l7.427328 45.706634-86.271272 73.701947c13.026391 29.709312 29.252246 57.933159 48.677565 84.100207l106.724991-37.936507 35.879707 29.595046c27.081181 22.281984 57.361826 39.879038 89.927803 52.219829l43.192769 16.568655 20.453718 111.06712c32.223177 3.656531 65.017687 3.656531 97.126597 0l20.453719-110.838587 43.535569-16.340121c32.908776-12.340791 63.303688-29.937845 90.613402-52.334096z m-202.366122-57.476092c-34.851308 0-67.645818-8.912794-96.326731-24.567316C353.512247 643.492272 310.890811 577.103387 310.890811 500.659041c0-111.06712 90.042069-201.109189 201.109189-201.109189 76.444345 0 142.833231 42.621436 176.884673 105.353791 15.654522 28.566646 24.567316 61.361156 24.567316 96.326731 0 110.952854-89.927802 200.880656-200.880656 200.880657zM163.715449 855.799587c-6.284662 2.171065-12.797858 2.628131-18.968253 1.371199 6.513195 1.371199 13.36919 1.142666 19.996653-1.142666l93.013-33.137309c-0.114267-0.114267-0.3428-0.228533-0.457067-0.3428l-93.584333 33.251576z m819.977013-473.863527l-74.844613 63.989287c0 0.228533 0.114267 0.571333 0.114267 0.799866l74.730346-63.875021c8.112928-6.970262 12.683591-17.025721 12.797858-27.42398-0.3428 10.055459-4.913463 19.768119-12.797858 26.509848z" fill="#D9D9D9" /><path d="M996.261787 665.888523c0.571333 5.370529 0 10.855326-1.942532 16.111589l-1.0284 2.970931a509.651822 509.651822 0 0 1-91.070468 157.57362l-2.056798 2.399599a36.565307 36.565307 0 0 1-40.107572 10.855325l-92.898733-33.023043a399.933047 399.933047 0 0 1-113.923785 65.817553l-17.939854 97.126597a36.62244 36.62244 0 0 1-29.480779 29.366512l-3.085198 0.571333a508.714836 508.714836 0 0 1-90.499135 8.112928h0.3428c30.509178 0 61.018356-2.742398 90.727668-8.112928l3.085198-0.571333a36.62244 36.62244 0 0 0 29.480779-29.366512l17.939854-97.01233c41.364504-15.540256 79.529543-37.593706 113.809518-65.703287l92.784467 33.023043a36.565307 36.565307 0 0 0 40.107571-10.855325l2.056799-2.399599c39.764772-46.963566 70.27395-99.868995 90.956201-157.345087l1.0284-2.970931c1.828265-5.370529 2.399598-11.083859 1.713999-16.568655z" fill="#D9D9D9" /><path d="M713.109189 500.659041c0-34.622775-8.798527-67.303018-24.224516-95.755398C654.833231 342.171288 588.444345 299.549852 512 299.549852c-111.06712 0-201.109189 90.042069-201.109189 201.109189 0 76.444345 42.621436 142.833231 105.353791 176.884674 28.45238 15.425989 61.018356 24.224516 95.755398 24.224516 111.06712 0 201.109189-90.042069 201.109189-201.10919z m-329.087764 0c0-34.165709 13.36919-66.274619 37.47944-90.499135C445.725381 385.93539 477.834291 372.680466 512 372.680466c34.165709 0 66.274619 13.254924 90.499135 37.47944A127.521509 127.521509 0 0 1 639.978575 500.659041c0 34.165709-13.36919 66.274619-37.47944 90.499136A127.521509 127.521509 0 0 1 512 628.637616c-34.165709 0-66.274619-13.36919-90.499135-37.479439A127.521509 127.521509 0 0 1 384.021425 500.659041z"  fill="#404040"/><path d="M605.812866 1015.087206a36.62244 36.62244 0 0 0 29.480779-29.366512l17.939854-97.126597a399.933047 399.933047 0 0 0 113.923785-65.817553l92.898733 33.023043a36.565307 36.565307 0 0 0 40.107572-10.855325l2.056798-2.399599c39.764772-46.963566 70.388216-99.983262 91.070468-157.57362l1.0284-2.970931c1.942532-5.256263 2.513865-10.741059 1.942532-16.111589-1.028399-9.02706-5.370529-17.597054-12.569325-23.881716l-74.61608-63.875021-0.228533-0.114267c3.542264-21.710651 5.370529-43.878369 5.37053-66.046086 0-19.311053-1.371199-38.736372-4.113597-57.704625-0.3428-2.513865-0.799866-5.02773-1.142666-7.541595 0-0.228533-0.114267-0.571333-0.114267-0.799866l74.844613-63.989287c7.884394-6.741729 12.455058-16.454388 12.797858-26.509848 0.114267-4.570663-0.571333-9.255593-2.171065-13.71199l-1.0284-2.970931a507.046544 507.046544 0 0 0-91.070468-157.573621l-2.056798-2.399598a36.702427 36.702427 0 0 0-40.107572-10.855326l-92.898733 33.023043c-34.279975-28.10958-72.445015-50.277297-113.809519-65.817552h-0.114266l-17.939854-97.126598c-0.114267-0.571333-0.228533-1.256932-0.457066-1.828265a36.65672 36.65672 0 0 0-29.023713-27.538247l-3.085198-0.571333c-59.532891-10.741059-122.150979-10.741059-181.68387 0l-3.085197 0.571333a36.62244 36.62244 0 0 0-29.480779 29.366512l-18.054121 97.583664a402.058405 402.058405 0 0 0-113.123919 65.58902l-93.584333-33.251577a36.565307 36.565307 0 0 0-40.107571 10.855326l-2.056798 2.399598a509.651822 509.651822 0 0 0-91.070468 157.573621l-1.0284 2.970931a36.668147 36.668147 0 0 0 9.02706 38.736372c0.571333 0.457066 1.028399 1.028399 1.599733 1.485466l75.758745 64.674887v0.114266c-3.542264 21.482118-5.256263 43.307036-5.256263 65.131954 0 21.939184 1.713999 43.878369 5.256263 65.24622L40.079005 641.778274a36.599587 36.599587 0 0 0-10.626793 40.221838l1.0284 2.970931c20.682252 57.590359 51.305697 110.724321 91.070468 157.57362l2.056798 2.399599c5.599063 6.513195 13.026391 10.741059 21.139318 12.226524 6.170396 1.142666 12.683591 0.799866 18.968253-1.371199l93.584333-33.251576c0.114267 0.114267 0.3428 0.228533 0.457067 0.3428 33.937176 27.76678 71.759415 49.820231 112.666852 65.24622l18.054121 97.583663a36.62244 36.62244 0 0 0 29.480779 29.366512l3.085197 0.571333c29.823579 5.370529 60.332757 8.112928 90.841935 8.112928h0.3428c30.394912 0 60.90409-2.742398 90.499135-8.112928l3.085198-0.571333z m-45.478101-75.987279a431.356358 431.356358 0 0 1-97.126597 0l-20.453718-111.06712-43.192769-16.568655c-32.565977-12.340791-62.846622-29.937845-89.927803-52.219829l-35.879707-29.595046-106.724991 37.936507c-19.425319-26.167048-35.651174-54.390894-48.677565-84.100207l86.271272-73.701947-7.427328-45.706634c-2.742398-17.025721-4.227864-34.622775-4.227864-51.991296 0-17.482787 1.371199-34.965575 4.227864-51.991296l7.427328-45.706634-86.271272-73.701947c12.912124-29.823579 29.252246-57.933159 48.677565-84.100207l106.724991 37.936506 35.879707-29.595045c27.081181-22.281984 57.361826-39.879038 89.927803-52.219829l43.307035-16.340122 20.453719-111.06712c32.10891-3.656531 64.90342-3.656531 97.126597 0l20.453719 110.838587 43.535568 16.340122c32.79451 12.340791 63.303688 29.937845 90.613402 52.334095l35.879708 29.480779 106.039391-37.593706c19.425319 26.167048 35.651174 54.390894 48.677565 84.100206L820.291246 413.816437l7.427328 45.592367c2.856665 17.254254 4.34213 34.965575 4.34213 52.676896s-1.485466 35.422641-4.34213 52.676896l-7.541595 45.8209 85.357139 73.016348a422.820644 422.820644 0 0 1-48.677565 84.100206L750.817162 730.106344l-35.879707 29.480779c-27.309714 22.396251-57.704625 39.993305-90.613402 52.334096l-43.535569 16.340121-20.453719 110.838587z"  fill="#404040"/></svg>