<?xml version="1.0" standalone="no"?><!DOCTYPE svg PUBLIC "-//W3C//DTD SVG 1.1//EN" "http://www.w3.org/Graphics/SVG/1.1/DTD/svg11.dtd"><svg class="icon" width="200px" height="200.00px" viewBox="0 0 1024 1024" version="1.1" xmlns="http://www.w3.org/2000/svg"><path d="M722.285714 466.285714c0 5.028571-4.114286 9.142857-9.142857 9.142857h-64c-5.028571 0-9.142857-4.114286-9.142857-9.142857v-100.571428H384v100.571428c0 5.028571-4.114286 9.142857-9.142857 9.142857h-64c-5.028571 0-9.142857-4.114286-9.142857-9.142857v-100.571428h-109.714286v521.142857h640V365.714286h-109.714286v100.571428z" fill="#D9D9D9" /><path d="M877.714286 283.428571H722.285714v-18.285714c0-116.114286-94.171429-210.285714-210.285714-210.285714s-210.285714 94.171429-210.285714 210.285714v18.285714H146.285714c-20.228571 0-36.571429 16.342857-36.571428 36.571429v612.571429c0 20.228571 16.342857 36.571429 36.571428 36.571428h731.428572c20.228571 0 36.571429-16.342857 36.571428-36.571428V320c0-20.228571-16.342857-36.571429-36.571428-36.571429z m-493.714286-18.285714c0-70.742857 57.257143-128 128-128s128 57.257143 128 128v18.285714H384v-18.285714z m448 621.714286H192V365.714286h109.714286v100.571428c0 5.028571 4.114286 9.142857 9.142857 9.142857h64c5.028571 0 9.142857-4.114286 9.142857-9.142857v-100.571428h256v100.571428c0 5.028571 4.114286 9.142857 9.142857 9.142857h64c5.028571 0 9.142857-4.114286 9.142857-9.142857v-100.571428h109.714286v521.142857z"  /></svg>