<?xml version="1.0" standalone="no"?><!DOCTYPE svg PUBLIC "-//W3C//DTD SVG 1.1//EN" "http://www.w3.org/Graphics/SVG/1.1/DTD/svg11.dtd"><svg class="icon" width="200px" height="200.00px" viewBox="0 0 1024 1024" version="1.1" xmlns="http://www.w3.org/2000/svg"><path d="M512 290.285714c-90.514286 0-169.714286-55.771429-201.942857-137.142857H134.857143v224h136v493.714286h482.285714V377.142857h136V153.142857H713.942857c-32.228571 81.371429-111.428571 137.142857-201.942857 137.142857z" fill="#D9D9D9" /><path d="M921.142857 70.857143H685.485714c-19.885714 0-37.6 13.6-42.285714 33.485714C628.914286 164.685714 574.857143 208 512 208s-116.914286-43.314286-131.2-103.657143a43.348571 43.348571 0 0 0-42.285714-33.485714H102.857143a50.285714 50.285714 0 0 0-50.285714 50.285714v288a50.285714 50.285714 0 0 0 50.285714 50.285714h85.714286v443.428572a50.285714 50.285714 0 0 0 50.285714 50.285714h546.285714a50.285714 50.285714 0 0 0 50.285714-50.285714V459.428571h85.714286a50.285714 50.285714 0 0 0 50.285714-50.285714V121.142857a50.285714 50.285714 0 0 0-50.285714-50.285714z m-32 306.285714H753.142857v493.714286H270.857143V377.142857H134.857143V153.142857h175.2c32.228571 81.371429 111.428571 137.142857 201.942857 137.142857s169.714286-55.771429 201.942857-137.142857H889.142857v224z"  /></svg>