<?xml version="1.0" standalone="no"?><!DOCTYPE svg PUBLIC "-//W3C//DTD SVG 1.1//EN" "http://www.w3.org/Graphics/SVG/1.1/DTD/svg11.dtd"><svg class="icon" width="200px" height="200.00px" viewBox="0 0 1024 1024" version="1.1" xmlns="http://www.w3.org/2000/svg"><path d="M132.571429 260.571429h91.428571v502.857142h-91.428571z m421.714285 205.714285h-84.571428a3.428571 3.428571 0 0 0-3.428572 3.428572v84.571428a3.428571 3.428571 0 0 0 3.428572 3.428572h84.571428a3.428571 3.428571 0 0 0 3.428572-3.428572v-84.571428a3.428571 3.428571 0 0 0-3.428572-3.428572z m245.714286-123.428571h91.428571v338.285714h-91.428571z" fill="#D9D9D9" /><path d="M960 265.142857h-75.428571v-109.714286c0-5.028571-4.114286-9.142857-9.142858-9.142857h-59.428571c-5.028571 0-9.142857 4.114286-9.142857 9.142857v109.714286h-75.428572c-5.028571 0-9.142857 4.114286-9.142857 9.142857v475.428572c0 5.028571 4.114286 9.142857 9.142857 9.142857h75.428572v109.714286c0 5.028571 4.114286 9.142857 9.142857 9.142857h59.428571c5.028571 0 9.142857-4.114286 9.142858-9.142857v-109.714286h75.428571c5.028571 0 9.142857-4.114286 9.142857-9.142857V274.285714c0-5.028571-4.114286-9.142857-9.142857-9.142857z m-68.571429 416h-91.428571V342.857143h91.428571v338.285714zM626.285714 388.571429h-75.428571V192c0-5.028571-4.114286-9.142857-9.142857-9.142857h-59.428572c-5.028571 0-9.142857 4.114286-9.142857 9.142857v196.571429h-75.428571c-5.028571 0-9.142857 4.114286-9.142857 9.142857v228.571428c0 5.028571 4.114286 9.142857 9.142857 9.142857h75.428571v196.571429c0 5.028571 4.114286 9.142857 9.142857 9.142857h59.428572c5.028571 0 9.142857-4.114286 9.142857-9.142857V635.428571h75.428571c5.028571 0 9.142857-4.114286 9.142857-9.142857V397.714286c0-5.028571-4.114286-9.142857-9.142857-9.142857z m-68.571428 165.714285a3.428571 3.428571 0 0 1-3.428572 3.428572h-84.571428a3.428571 3.428571 0 0 1-3.428572-3.428572v-84.571428a3.428571 3.428571 0 0 1 3.428572-3.428572h84.571428a3.428571 3.428571 0 0 1 3.428572 3.428572v84.571428zM292.571429 182.857143h-75.428572v-64c0-5.028571-4.114286-9.142857-9.142857-9.142857h-59.428571c-5.028571 0-9.142857 4.114286-9.142858 9.142857v64h-75.428571c-5.028571 0-9.142857 4.114286-9.142857 9.142857v640c0 5.028571 4.114286 9.142857 9.142857 9.142857h75.428571v64c0 5.028571 4.114286 9.142857 9.142858 9.142857h59.428571c5.028571 0 9.142857-4.114286 9.142857-9.142857v-64h75.428572c5.028571 0 9.142857-4.114286 9.142857-9.142857V192c0-5.028571-4.114286-9.142857-9.142857-9.142857z m-68.571429 580.571428h-91.428571V260.571429h91.428571v502.857142z"  fill="#404040"/></svg>