<?xml version="1.0" standalone="no"?><!DOCTYPE svg PUBLIC "-//W3C//DTD SVG 1.1//EN" "http://www.w3.org/Graphics/SVG/1.1/DTD/svg11.dtd"><svg class="icon" width="200px" height="200.00px" viewBox="0 0 1024 1024" version="1.1" xmlns="http://www.w3.org/2000/svg"><path d="M441.142857 509.714286V310.857143H192v630.857143h493.714286V555.428571H486.857143c-25.257143 0-45.714286-20.457143-45.714286-45.714285z" fill="#D9D9D9" /><path d="M877.714286 54.857143H754.285714V9.142857c0-5.028571-4.114286-9.142857-9.142857-9.142857h-64c-5.028571 0-9.142857 4.114286-9.142857 9.142857v45.714286H498.285714V9.142857c0-5.028571-4.114286-9.142857-9.142857-9.142857h-64c-5.028571 0-9.142857 4.114286-9.142857 9.142857v45.714286H292.571429c-20.228571 0-36.571429 16.342857-36.571429 36.571428v137.142858h-109.714286c-20.228571 0-36.571429 16.342857-36.571428 36.571428v722.285714c0 20.228571 16.342857 36.571429 36.571428 36.571429h585.142857c20.228571 0 36.571429-16.342857 36.571429-36.571429v-109.714285h109.714286c20.228571 0 36.571429-16.342857 36.571428-36.571429V91.428571c0-20.228571-16.342857-36.571429-36.571428-36.571428zM685.714286 941.714286H192V310.857143h249.142857v198.857143c0 25.257143 20.457143 45.714286 45.714286 45.714285h198.857143v386.285715z m0-459.428572H514.285714V310.857143h0.228572L685.714286 482.057143v0.228571z m146.285714 313.142857h-64V448L548.571429 228.571429H338.285714v-91.428572h77.714286v36.571429c0 5.028571 4.114286 9.142857 9.142857 9.142857h64c5.028571 0 9.142857-4.114286 9.142857-9.142857v-36.571429h173.714286v36.571429c0 5.028571 4.114286 9.142857 9.142857 9.142857h64c5.028571 0 9.142857-4.114286 9.142857-9.142857v-36.571429h77.714286v658.285714z" fill="#404040" /></svg>