<?xml version="1.0" standalone="no"?><!DOCTYPE svg PUBLIC "-//W3C//DTD SVG 1.1//EN" "http://www.w3.org/Graphics/SVG/1.1/DTD/svg11.dtd"><svg class="icon" width="200px" height="200.00px" viewBox="0 0 1024 1024" version="1.1" xmlns="http://www.w3.org/2000/svg"><path d="M241.6 411.428571H93.714286v201.142858h147.885714l20.571429 13.371428L596.571429 844.571429V179.428571L262.057143 398.057143z" fill="#D9D9D9" /><path d="M946.4 770.057143l-126.057143-72.8a18.171429 18.171429 0 0 0-24.8 6.742857l-22.742857 39.428571c-5.028571 8.685714-2.057143 19.885714 6.628571 24.914286L905.485714 841.142857a18.171429 18.171429 0 0 0 24.8-6.742857l22.742857-39.428571c5.028571-8.685714 1.942857-19.885714-6.628571-24.914286zM994.285714 470.857143H848c-10.057143 0-18.285714 8.228571-18.285714 18.285714v45.714286c0 10.057143 8.228571 18.285714 18.285714 18.285714h146.285714c10.057143 0 18.285714-8.228571 18.285715-18.285714v-45.714286c0-10.057143-8.228571-18.285714-18.285715-18.285714zM795.428571 320a18.171429 18.171429 0 0 0 24.8 6.742857L946.285714 253.942857c8.685714-5.028571 11.657143-16.228571 6.628572-24.914286L930.285714 189.714286a18.171429 18.171429 0 0 0-24.8-6.742857L779.428571 255.771429a18.274286 18.274286 0 0 0-6.628571 24.914285L795.428571 320zM642.171429 58.285714c-6.742857 0-13.6 1.828571-19.885715 6.057143L217.142857 329.142857H29.714286c-10.057143 0-18.285714 8.228571-18.285715 18.285714v329.142858c0 10.057143 8.228571 18.285714 18.285715 18.285714h187.428571l405.142857 264.8c6.285714 4.114286 13.257143 6.057143 19.885715 6.057143 19.085714 0 36.685714-15.2 36.685714-36.685715V94.971429c0-21.485714-17.6-36.685714-36.685714-36.685715zM596.571429 844.571429L262.171429 625.942857l-20.571429-13.371428H93.714286V411.428571h147.885714l20.457143-13.371428L596.571429 179.428571v665.142858z"  /></svg>