<?xml version="1.0" standalone="no"?><!DOCTYPE svg PUBLIC "-//W3C//DTD SVG 1.1//EN" "http://www.w3.org/Graphics/SVG/1.1/DTD/svg11.dtd"><svg class="icon" width="200px" height="200.00px" viewBox="0 0 1024 1024" version="1.1" xmlns="http://www.w3.org/2000/svg"><path d="M512.571429 144.457143l-107.885715 218.628571-241.371428 35.085715 174.628571 170.285714-41.257143 240.342857 215.885715-113.485714 215.885714 113.371428-41.257143-240.342857 174.628571-170.171428-241.371428-35.085715z" fill="#D9D9D9" /><path d="M965.257143 330.057143l-290.171429-42.171429L545.371429 24.914286c-3.542857-7.2-9.371429-13.028571-16.571429-16.571429-18.057143-8.914286-40-1.485714-49.028571 16.571429L350.057143 287.885714l-290.171429 42.171429c-8 1.142857-15.314286 4.914286-20.914285 10.628571a36.628571 36.628571 0 0 0 0.685714 51.771429l209.942857 204.685714L200 886.171429a36.514286 36.514286 0 0 0 53.028571 38.514285l259.542858-136.457143 259.542857 136.457143c7.085714 3.771429 15.314286 5.028571 23.2 3.657143 19.885714-3.428571 33.257143-22.285714 29.828571-42.171428l-49.6-289.028572 209.942857-204.685714c5.714286-5.6 9.485714-12.914286 10.628572-20.914286 3.085714-20-10.857143-38.514286-30.857143-41.485714zM687.2 568.342857l41.257143 240.342857-215.885714-113.371428-215.885715 113.485714 41.257143-240.342857-174.628571-170.285714 241.371428-35.085715 107.885715-218.628571 107.885714 218.628571 241.371428 35.085715-174.628571 170.171428z"  /></svg>