<?xml version="1.0" standalone="no"?><!DOCTYPE svg PUBLIC "-//W3C//DTD SVG 1.1//EN" "http://www.w3.org/Graphics/SVG/1.1/DTD/svg11.dtd"><svg class="icon" width="200px" height="200.00px" viewBox="0 0 1024 1024" version="1.1" xmlns="http://www.w3.org/2000/svg"><path d="M512 0C229.257143 0 0 229.257143 0 512s229.257143 512 512 512 512-229.257143 512-512S794.742857 0 512 0z m329.714286 780.342857L244.228571 182.857143C221.714286 201.142857 201.142857 221.714286 182.857143 244.228571l597.485714 597.485715C707.2 901.371429 613.714286 937.142857 512 937.142857c-234.742857 0-425.142857-190.4-425.142857-425.142857s190.4-425.142857 425.142857-425.142857 425.142857 190.4 425.142857 425.142857c0 101.714286-35.771429 195.2-95.428571 268.342857z" fill="#333333" /><path d="M512 86.857143c-234.742857 0-425.142857 190.4-425.142857 425.142857s190.4 425.142857 425.142857 425.142857c101.714286 0 195.2-35.771429 268.342857-95.428571L182.857143 244.228571c18.285714-22.514286 38.857143-43.085714 61.371428-61.371428l597.485715 597.485714C901.371429 707.2 937.142857 613.714286 937.142857 512c0-234.742857-190.4-425.142857-425.142857-425.142857z" fill="#E6E6E6" /></svg>