<?xml version="1.0" standalone="no"?><!DOCTYPE svg PUBLIC "-//W3C//DTD SVG 1.1//EN" "http://www.w3.org/Graphics/SVG/1.1/DTD/svg11.dtd"><svg class="icon" width="200px" height="200.00px" viewBox="0 0 1024 1024" version="1.1" xmlns="http://www.w3.org/2000/svg"><path d="M137.142857 886.857143h603.428572V283.428571H137.142857v603.428572z m132.571429-331.428572h338.285714v73.142858H269.714286v-73.142858z" fill="#D9D9D9" /><path d="M932.571429 54.857143H228.571429c-5.028571 0-9.142857 4.114286-9.142858 9.142857v64c0 5.028571 4.114286 9.142857 9.142858 9.142857h658.285714v658.285714c0 5.028571 4.114286 9.142857 9.142857 9.142858h64c5.028571 0 9.142857-4.114286 9.142857-9.142858V91.428571c0-20.228571-16.342857-36.571429-36.571428-36.571428z"  /><path d="M786.285714 201.142857H91.428571c-20.228571 0-36.571429 16.342857-36.571428 36.571429v694.857143c0 20.228571 16.342857 36.571429 36.571428 36.571428h694.857143c20.228571 0 36.571429-16.342857 36.571429-36.571428V237.714286c0-20.228571-16.342857-36.571429-36.571429-36.571429z m-45.714285 685.714286H137.142857V283.428571h603.428572v603.428572z"  /><path d="M269.714286 555.428571h338.285714v73.142858H269.714286z"  /></svg>