<?xml version="1.0" standalone="no"?><!DOCTYPE svg PUBLIC "-//W3C//DTD SVG 1.1//EN" "http://www.w3.org/Graphics/SVG/1.1/DTD/svg11.dtd"><svg class="icon" width="200px" height="200.00px" viewBox="0 0 1024 1024" version="1.1" xmlns="http://www.w3.org/2000/svg"><path d="M600 114.971429L143.2 571.771429l309.028571 309.028571L909.028571 424 882.285714 141.714286l-282.285714-26.742857zM704 420.571429c-55.428571 0-100.571429-45.142857-100.571429-100.571429s45.142857-100.571429 100.571429-100.571429 100.571429 45.142857 100.571429 100.571429-45.142857 100.571429-100.571429 100.571429z" fill="#D9D9D9" /><path d="M704 219.428571c-55.428571 0-100.571429 45.142857-100.571429 100.571429s45.142857 100.571429 100.571429 100.571429 100.571429-45.142857 100.571429-100.571429-45.142857-100.571429-100.571429-100.571429z m0 137.142858c-20.228571 0-36.571429-16.342857-36.571429-36.571429s16.342857-36.571429 36.571429-36.571429 36.571429 16.342857 36.571429 36.571429-16.342857 36.571429-36.571429 36.571429z"  /><path d="M998.857143 451.2l-33.828572-357.257143c-1.714286-18.514286-16.457143-33.142857-34.971428-34.971428L572.8 25.142857h-0.457143c-3.657143 0-6.514286 1.142857-8.685714 3.314286L28.457143 563.657143a11.382857 11.382857 0 0 0 0 16.114286l415.771428 415.771428a11.314286 11.314286 0 0 0 8.114286 3.314286c3.085714 0 5.942857-1.142857 8.114286-3.314286l535.2-535.2c2.285714-2.4 3.428571-5.714286 3.2-9.142857zM452.228571 880.8L143.2 571.771429 600 114.971429 882.285714 141.714286l26.742857 282.285714-456.8 456.8z"  /></svg>