<?xml version="1.0" standalone="no"?><!DOCTYPE svg PUBLIC "-//W3C//DTD SVG 1.1//EN" "http://www.w3.org/Graphics/SVG/1.1/DTD/svg11.dtd"><svg class="icon" width="200px" height="200.00px" viewBox="0 0 1024 1024" version="1.1" xmlns="http://www.w3.org/2000/svg"><path d="M472.572529 719.979911l356.447197-356.332915-21.71368-256.678552-256.678552-21.71368-356.447198 356.447197L472.572529 719.979911z m132.567729-474.843894a54.638475 54.638475 0 0 1 38.741777-38.741776c18.970899-5.028431 39.084624 0.342848 53.027091 14.171033a54.775615 54.775615 0 0 1 14.171034 53.027092 54.638475 54.638475 0 0 1-38.741777 38.741776c-18.970899 5.028431-39.084624-0.342848-53.027091-14.171033a55.19846 55.19846 0 0 1-14.171034-53.027092z" fill="#D9D9D9" /><path d="M471.543986 832.662482c-1.942803-0.228565-3.885606-1.142825-5.371279-2.628499L84.240507 448.101783a9.176887 9.176887 0 0 1 0-12.913926L516.457018 2.971346c1.37139-1.485673 3.314193-2.399933 5.371279-2.628498h-0.45713c-2.628498-0.228565-5.371279 0.685695-7.199799 2.628498L81.954856 435.187857a9.176887 9.176887 0 0 0 0 12.913926l381.932201 381.9322c2.057085 2.171368 4.914149 2.971346 7.656929 2.628499z" fill="#D9D9D9" /><path d="M943.645099 543.756257l-45.25588-45.141598a9.176887 9.176887 0 0 0-12.913925 0l-413.702743 412.902765-271.535281-270.849585a9.176887 9.176887 0 0 0-12.913925 0l-45.25588 45.141597a9.176887 9.176887 0 0 0 0 12.913926l277.935102 277.477972 45.25588 45.141597c3.542758 3.542758 9.371167 3.542758 12.913925 0l465.472727-464.672749c3.542758-3.542758 3.542758-9.371167 0-12.913925zM672.338383 312.334142a54.638475 54.638475 0 0 0 38.741777-38.741776c5.028431-18.970899-0.342848-39.084624-14.171034-53.027092a54.775615 54.775615 0 0 0-53.027091-14.171033 54.638475 54.638475 0 0 0-38.741777 38.741776c-5.028431 18.970899 0.342848 39.084624 14.171034 53.027092a55.19846 55.19846 0 0 0 53.027091 14.171033z"  /><path d="M84.240507 435.187857a9.176887 9.176887 0 0 0 0 12.913926l381.9322 381.9322c1.485673 1.485673 3.314193 2.399933 5.371279 2.628499 2.742781 0.342848 5.485561-0.571413 7.542647-2.628499L911.303144 397.703189c1.942803-1.942803 2.857063-4.571301 2.628499-7.199799l-29.142044-344.447532c-0.799978-8.914037-7.771212-15.885271-16.685249-16.685249L523.656818 0.342848h-1.828521c-2.057085 0.228565-3.885606 1.142825-5.371279 2.628498L84.240507 435.187857z m466.386987-349.933093l256.678552 21.71368 21.71368 256.678552L472.572529 719.979911 194.180296 441.701961l356.447198-356.447197z"  /></svg>