<?xml version="1.0" standalone="no"?><!DOCTYPE svg PUBLIC "-//W3C//DTD SVG 1.1//EN" "http://www.w3.org/Graphics/SVG/1.1/DTD/svg11.dtd"><svg class="icon" width="200px" height="200.00px" viewBox="0 0 1024 1024" version="1.1" xmlns="http://www.w3.org/2000/svg"><path d="M721.6 114.4H464.914286L248.228571 488.571429h179.885715l-68.914286 275.428571 365.485714-348.685714h-241.142857z" fill="#D9D9D9" /><path d="M896.114286 337.485714H644.342857L870.742857 51.428571c4.685714-6.057143 0.457143-14.857143-7.2-14.857142H425.257143c-3.2 0-6.285714 1.714286-7.885714 4.571428L121.257143 552.571429c-3.542857 6.057143 0.8 13.714286 7.885714 13.714285h199.314286L226.285714 974.971429c-2.171429 8.914286 8.571429 15.2 15.2 8.8L902.4 353.142857c5.942857-5.6 1.942857-15.657143-6.285714-15.657143zM359.2 764l68.914286-275.428571H248.228571l216.685715-374.171429h256.685714L483.542857 415.314286h241.142857L359.2 764z"  /></svg>