<?xml version="1.0" standalone="no"?><!DOCTYPE svg PUBLIC "-//W3C//DTD SVG 1.1//EN" "http://www.w3.org/Graphics/SVG/1.1/DTD/svg11.dtd"><svg class="icon" width="200px" height="200.00px" viewBox="0 0 1024 1024" version="1.1" xmlns="http://www.w3.org/2000/svg"><path d="M512 0C229.257143 0 0 229.257143 0 512s229.257143 512 512 512 512-229.257143 512-512S794.742857 0 512 0z m0 937.142857c-234.742857 0-425.142857-190.4-425.142857-425.142857s190.4-425.142857 425.142857-425.142857 425.142857 190.4 425.142857 425.142857-190.4 425.142857-425.142857 425.142857z" fill="#333333" /><path d="M512 86.857143c-234.742857 0-425.142857 190.4-425.142857 425.142857s190.4 425.142857 425.142857 425.142857 425.142857-190.4 425.142857-425.142857-190.4-425.142857-425.142857-425.142857z m195.085714 667.657143c-1.257143 0.571429-2.628571 0.914286-4 0.914285h-70.857143c-3.542857 0-6.742857-2.057143-8.228571-5.257142l-85.257143-181.942858h-101.371428V746.285714c0 5.028571-4.114286 9.142857-9.142858 9.142857H365.714286c-5.028571 0-9.142857-4.114286-9.142857-9.142857V277.714286c0-5.028571 4.114286-9.142857 9.142857-9.142857h177.828571c112.914286 0 164.8 68.457143 164.8 149.828571 0 80.228571-49.828571 121.6-89.6 136.228571l92.342857 187.657143c2.4 4.457143 0.457143 9.942857-4 12.228572z" fill="#E6E6E6" /><path d="M532.457143 334.857143h-95.314286v169.142857H530.285714c60.571429 0 94.628571-29.257143 94.628572-82.742857 0-57.485714-37.6-86.4-92.457143-86.4z" fill="#E6E6E6" /><path d="M618.742857 554.628571c39.771429-14.628571 89.6-56 89.6-136.228571 0-81.371429-51.885714-149.828571-164.8-149.828571H365.714286c-5.028571 0-9.142857 4.114286-9.142857 9.142857v468.571428c0 5.028571 4.114286 9.142857 9.142857 9.142857h62.514285c5.028571 0 9.142857-4.114286 9.142858-9.142857V568.228571h101.371428L624 750.171429c1.485714 3.2 4.685714 5.257143 8.228571 5.257142h70.857143c1.371429 0 2.742857-0.342857 4-0.914285 4.457143-2.285714 6.4-7.771429 4-12.228572l-92.342857-187.657143zM530.285714 504h-93.142857V334.857143h95.314286c54.857143 0 92.457143 28.914286 92.457143 86.4 0 53.485714-34.057143 82.742857-94.628572 82.742857z" fill="#333333" /></svg>