<?xml version="1.0" standalone="no"?><!DOCTYPE svg PUBLIC "-//W3C//DTD SVG 1.1//EN" "http://www.w3.org/Graphics/SVG/1.1/DTD/svg11.dtd"><svg class="icon" width="200px" height="200.00px" viewBox="0 0 1024 1024" version="1.1" xmlns="http://www.w3.org/2000/svg"><path d="M192 886.857143h640V539.428571H192v347.428572z m320-258.285714a54.868571 54.868571 0 0 1 32 99.428571v60.571429c0 5.028571-4.114286 9.142857-9.142857 9.142857h-45.714286c-5.028571 0-9.142857-4.114286-9.142857-9.142857v-60.571429a54.868571 54.868571 0 0 1 32-99.428571z" fill="#D9D9D9" /><path d="M480 728v60.571429c0 5.028571 4.114286 9.142857 9.142857 9.142857h45.714286c5.028571 0 9.142857-4.114286 9.142857-9.142857v-60.571429a54.868571 54.868571 0 1 0-64 0z"  /><path d="M877.714286 457.142857H306.285714V201.142857c0-35.314286 28.685714-64 64-64h283.428572c35.314286 0 64 28.685714 64 64v77.714286c0 5.028571 4.114286 9.142857 9.142857 9.142857h64c5.028571 0 9.142857-4.114286 9.142857-9.142857v-77.714286c0-80.8-65.485714-146.285714-146.285714-146.285714H370.285714c-80.8 0-146.285714 65.485714-146.285714 146.285714v256h-77.714286c-20.228571 0-36.571429 16.342857-36.571428 36.571429v438.857143c0 20.228571 16.342857 36.571429 36.571428 36.571428h731.428572c20.228571 0 36.571429-16.342857 36.571428-36.571428V493.714286c0-20.228571-16.342857-36.571429-36.571428-36.571429z m-45.714286 429.714286H192V539.428571h640v347.428572z"  /></svg>