<?xml version="1.0" standalone="no"?><!DOCTYPE svg PUBLIC "-//W3C//DTD SVG 1.1//EN" "http://www.w3.org/Graphics/SVG/1.1/DTD/svg11.dtd"><svg class="icon" width="200px" height="200.00px" viewBox="0 0 1024 1024" version="1.1" xmlns="http://www.w3.org/2000/svg"><path d="M512 86.857143c-234.742857 0-425.142857 190.4-425.142857 425.142857s190.4 425.142857 425.142857 425.142857 425.142857-190.4 425.142857-425.142857-190.4-425.142857-425.142857-425.142857z m203.428571 547.428571h-53.6c-11.657143 0-22.742857-5.6-29.6-15.085714L512 453.028571 391.771429 619.2c-6.857143 9.485714-17.828571 15.085714-29.6 15.085714H308.571429c-7.428571 0-11.771429-8.457143-7.428572-14.514285l203.428572-281.142858c3.657143-5.028571 11.085714-5.028571 14.742857 0l203.428571 281.142858c4.457143 6.057143 0.114286 14.514286-7.314286 14.514285z" fill="#E6E6E6" /><path d="M512 0C229.257143 0 0 229.257143 0 512s229.257143 512 512 512 512-229.257143 512-512S794.742857 0 512 0z m0 937.142857c-234.742857 0-425.142857-190.4-425.142857-425.142857s190.4-425.142857 425.142857-425.142857 425.142857 190.4 425.142857 425.142857-190.4 425.142857-425.142857 425.142857z" fill="#333333" /><path d="M519.314286 338.628571a9.085714 9.085714 0 0 0-14.742857 0l-203.428572 281.142858c-4.342857 6.057143 0 14.514286 7.428572 14.514285h53.6c11.771429 0 22.742857-5.6 29.6-15.085714L512 453.028571l120.228571 166.171429c6.857143 9.485714 17.942857 15.085714 29.6 15.085714H715.428571c7.428571 0 11.771429-8.457143 7.314286-14.514285l-203.428571-281.142858z" fill="#333333" /></svg>