<?xml version="1.0" standalone="no"?><!DOCTYPE svg PUBLIC "-//W3C//DTD SVG 1.1//EN" "http://www.w3.org/Graphics/SVG/1.1/DTD/svg11.dtd"><svg class="icon" width="200px" height="200.00px" viewBox="0 0 1024 1024" version="1.1" xmlns="http://www.w3.org/2000/svg"><path d="M932.571429 54.857143H91.428571c-20.228571 0-36.571429 16.342857-36.571428 36.571428v841.142858c0 20.228571 16.342857 36.571429 36.571428 36.571428h841.142858c20.228571 0 36.571429-16.342857 36.571428-36.571428V91.428571c0-20.228571-16.342857-36.571429-36.571428-36.571428z m-45.714286 832H137.142857V137.142857h749.714286v749.714286z" fill="#333333" /><path d="M137.142857 886.857143h749.714286V137.142857H137.142857v749.714286z m164-261.371429l203.428572-281.142857c3.657143-5.028571 11.085714-5.028571 14.742857 0l203.428571 281.142857c4.457143 6.057143 0.114286 14.514286-7.314286 14.514286h-53.6c-11.657143 0-22.742857-5.6-29.6-15.085714L512 458.742857 391.771429 624.914286c-6.857143 9.485714-17.828571 15.085714-29.6 15.085714H308.571429c-7.428571 0-11.771429-8.457143-7.428572-14.514286z" fill="#E6E6E6" /><path d="M308.571429 640h53.6c11.771429 0 22.742857-5.6 29.6-15.085714L512 458.742857l120.228571 166.171429c6.857143 9.485714 17.942857 15.085714 29.6 15.085714H715.428571c7.428571 0 11.771429-8.457143 7.314286-14.514286l-203.428571-281.142857a9.085714 9.085714 0 0 0-14.742857 0l-203.428572 281.142857c-4.342857 6.057143 0 14.514286 7.428572 14.514286z" fill="#333333" /></svg>