<?xml version="1.0" standalone="no"?><!DOCTYPE svg PUBLIC "-//W3C//DTD SVG 1.1//EN" "http://www.w3.org/Graphics/SVG/1.1/DTD/svg11.dtd"><svg class="icon" width="200px" height="200.00px" viewBox="0 0 1024 1024" version="1.1" xmlns="http://www.w3.org/2000/svg"><path d="M795.314286 502.857143H228.685714c-30.285714 0-54.971429 22.514286-54.971428 50.285714v333.714286h676.571428V553.142857c0-27.771429-24.685714-50.285714-54.971428-50.285714z" fill="#D9D9D9" /><path d="M448 210.285714h-54.857143c-5.028571 0-9.142857 4.114286-9.142857 9.142857v54.857143c0 5.028571 4.114286 9.142857 9.142857 9.142857h54.857143c5.028571 0 9.142857-4.114286 9.142857-9.142857v-54.857143c0-5.028571-4.114286-9.142857-9.142857-9.142857z m182.857143 0h-54.857143c-5.028571 0-9.142857 4.114286-9.142857 9.142857v54.857143c0 5.028571 4.114286 9.142857 9.142857 9.142857h54.857143c5.028571 0 9.142857-4.114286 9.142857-9.142857v-54.857143c0-5.028571-4.114286-9.142857-9.142857-9.142857z"  /><path d="M795.428571 420.571429V91.428571c0-20.228571-16.342857-36.571429-36.571428-36.571428H265.142857c-20.228571 0-36.571429 16.342857-36.571428 36.571428v329.142858c-75.657143 0-137.142857 59.542857-137.142858 132.571428v406.857143c0 5.028571 4.114286 9.142857 9.142858 9.142857h822.857142c5.028571 0 9.142857-4.114286 9.142858-9.142857V553.142857c0-73.028571-61.485714-132.571429-137.142858-132.571428zM310.857143 137.142857h402.285714v283.428572H310.857143V137.142857z m539.428571 749.714286H173.714286V553.142857c0-27.771429 24.685714-50.285714 54.971428-50.285714h566.628572c30.285714 0 54.971429 22.514286 54.971428 50.285714v333.714286z"  /></svg>