<?xml version="1.0" standalone="no"?><!DOCTYPE svg PUBLIC "-//W3C//DTD SVG 1.1//EN" "http://www.w3.org/Graphics/SVG/1.1/DTD/svg11.dtd"><svg class="icon" width="200px" height="200.00px" viewBox="0 0 1024 1024" version="1.1" xmlns="http://www.w3.org/2000/svg"><path d="M82.285714 832h658.285715V192H82.285714v640z m73.142857-557.714286c0-5.028571 4.114286-9.142857 9.142858-9.142857h128c5.028571 0 9.142857 4.114286 9.142857 9.142857v54.857143c0 5.028571-4.114286 9.142857-9.142857 9.142857H164.571429c-5.028571 0-9.142857-4.114286-9.142858-9.142857v-54.857143z" fill="#D9D9D9" /><path d="M969.142857 272.342857L822.857143 356.571429V182.857143c0-40.342857-32.8-73.142857-73.142857-73.142857H73.142857c-40.342857 0-73.142857 32.8-73.142857 73.142857v658.285714c0 40.342857 32.8 73.142857 73.142857 73.142857h676.571429c40.342857 0 73.142857-32.8 73.142857-73.142857V667.428571l146.285714 84.228572c24.342857 14.057143 54.857143-3.542857 54.857143-31.542857V304c0-28.114286-30.514286-45.714286-54.857143-31.657143zM740.571429 832H82.285714V192h658.285715v640z m201.142857-190.857143l-118.857143-68.342857V451.314286L941.714286 382.857143v258.285714z"  /><path d="M164.571429 338.285714h128c5.028571 0 9.142857-4.114286 9.142857-9.142857v-54.857143c0-5.028571-4.114286-9.142857-9.142857-9.142857H164.571429c-5.028571 0-9.142857 4.114286-9.142858 9.142857v54.857143c0 5.028571 4.114286 9.142857 9.142858 9.142857z"  /></svg>