<?xml version="1.0" standalone="no"?><!DOCTYPE svg PUBLIC "-//W3C//DTD SVG 1.1//EN" "http://www.w3.org/Graphics/SVG/1.1/DTD/svg11.dtd"><svg class="icon" width="200px" height="200.00px" viewBox="0 0 1024 1024" version="1.1" xmlns="http://www.w3.org/2000/svg"><path d="M932.571429 54.857143H91.428571c-20.228571 0-36.571429 16.342857-36.571428 36.571428v841.142858c0 20.228571 16.342857 36.571429 36.571428 36.571428h841.142858c20.228571 0 36.571429-16.342857 36.571428-36.571428V91.428571c0-20.228571-16.342857-36.571429-36.571428-36.571428z m-45.714286 530.285714H530.285714V438.857143h356.571429v146.285714z m0-219.428571H493.714286c-20.228571 0-36.571429 16.342857-36.571429 36.571428v219.428572c0 20.228571 16.342857 36.571429 36.571429 36.571428h393.142857v228.571429H137.142857V137.142857h749.714286v228.571429z" fill="#333333" /><path d="M530.285714 585.142857h356.571429V438.857143H530.285714v146.285714z m105.142857-118.857143c25.257143 0 45.714286 20.457143 45.714286 45.714286s-20.457143 45.714286-45.714286 45.714286-45.714286-20.457143-45.714285-45.714286 20.457143-45.714286 45.714285-45.714286z" fill="#E6E6E6" /><path d="M589.714286 512a45.714286 45.714286 0 1 0 91.428571 0 45.714286 45.714286 0 1 0-91.428571 0z" fill="#333333" /><path d="M137.142857 886.857143h749.714286V658.285714H493.714286c-20.228571 0-36.571429-16.342857-36.571429-36.571428V402.285714c0-20.228571 16.342857-36.571429 36.571429-36.571428h393.142857V137.142857H137.142857v749.714286z" fill="#E6E6E6" /></svg>